<svg width="48" height="48" viewBox="0 0 48 48" fill="none" xmlns="http://www.w3.org/2000/svg">
<path fill-rule="evenodd" clip-rule="evenodd" d="M24 48C10.7452 48 0 37.2548 0 24C0 10.7452 10.7452 0 24 0C37.2548 0 48 10.7452 48 24C48 37.2548 37.2548 48 24 48ZM15 17.693C15 16.5122 15.3791 15.3159 16.1373 14.1041C16.8954 12.8923 18.0016 11.8886 19.4558 11.0932C20.91 10.2977 22.6065 9.9 24.5455 9.9C26.3477 9.9 27.9386 10.2325 29.3182 10.8974C30.6978 11.5624 31.7636 12.4666 32.5155 13.61C33.2675 14.7535 33.6435 15.9964 33.6435 17.3387C33.6435 18.3952 33.4291 19.3212 33.0003 20.1166C32.5715 20.9121 32.0619 21.5988 31.4715 22.1767C30.8811 22.7547 29.8216 23.7272 28.2928 25.0944C27.8702 25.4797 27.5315 25.8184 27.2767 26.1105C27.0219 26.4026 26.8324 26.6698 26.7081 26.9122C26.5838 27.1545 26.4875 27.3969 26.4191 27.6393C26.3508 27.8816 26.2482 28.3073 26.1115 28.9163C25.8754 30.209 25.1358 30.8553 23.8929 30.8553C23.2466 30.8553 22.7029 30.644 22.2616 30.2214C21.8204 29.7988 21.5998 29.1711 21.5998 28.3384C21.5998 27.2943 21.7614 26.3902 22.0845 25.6258C22.4077 24.8614 22.8365 24.1902 23.3709 23.6123C23.9054 23.0343 24.6262 22.3476 25.5336 21.5522C26.329 20.8561 26.9039 20.331 27.2581 19.9768C27.6123 19.6226 27.9106 19.2279 28.153 18.7929C28.3953 18.3579 28.5165 17.8856 28.5165 17.376C28.5165 16.3817 28.1468 15.5428 27.4072 14.8592C26.6677 14.1756 25.7138 13.8338 24.5455 13.8338C23.1783 13.8338 22.1715 14.1787 21.5252 14.8685C20.8789 15.5583 20.332 16.5744 19.8846 17.9167C19.462 19.3212 18.6603 20.0234 17.4796 20.0234C16.7836 20.0234 16.1963 19.7779 15.7178 19.287C15.2393 18.796 15 18.2647 15 17.693ZM22.1125 38.738C22.678 39.2289 23.3398 39.4744 24.098 39.4744C24.8313 39.4744 25.4776 39.2258 26.0369 38.7287C26.5962 38.2315 26.8759 37.5479 26.8759 36.6779C26.8759 35.8948 26.6087 35.2361 26.0742 34.7017C25.5398 34.1672 24.881 33.9 24.098 33.9C23.3026 33.9 22.6314 34.1672 22.0845 34.7017C21.5376 35.2361 21.2642 35.8948 21.2642 36.6779C21.2642 37.5603 21.547 38.247 22.1125 38.738Z" fill="#75C345"/>
</svg>
