<svg width="48" height="48" viewBox="0 0 48 48" fill="none" xmlns="http://www.w3.org/2000/svg">
<path d="M0 15C0 10.0294 4.02944 6 9 6H39C43.9706 6 48 10.0294 48 15H0Z" fill="#70D3CD"/>
<path fill-rule="evenodd" clip-rule="evenodd" d="M0 21V33C0 37.9706 4.02944 42 9 42H39C43.9706 42 48 37.9706 48 33V21H0ZM6 28.5C6 27.6716 6.67157 27 7.5 27H28.5C29.3284 27 30 27.6716 30 28.5C30 29.3284 29.3284 30 28.5 30H7.5C6.67157 30 6 29.3284 6 28.5ZM7.5 33C6.67157 33 6 33.6716 6 34.5C6 35.3284 6.67157 36 7.5 36H16.5C17.3284 36 18 35.3284 18 34.5C18 33.6716 17.3284 33 16.5 33H7.5Z" fill="#70D3CD"/>
</svg>
