<svg width="48" height="48" viewBox="0 0 48 48" fill="none" xmlns="http://www.w3.org/2000/svg">
<path d="M29.1875 21.0004L30.9692 7.65643C31.059 6.83287 30.4629 6.09258 29.6379 6.00296C29.1134 5.94599 28.5973 6.16778 28.2784 6.58729L12.3058 24.5935C11.8041 25.2534 11.9332 26.1943 12.5943 26.6952C12.8556 26.8932 13.1747 27.0004 13.5028 27.0004H18.8125L17.0308 40.3443C16.941 41.1679 17.5371 41.9082 18.3621 41.9978C18.8866 42.0548 19.4027 41.833 19.7216 41.4135L35.6942 23.4072C36.1959 22.7474 36.0668 21.8064 35.4057 21.3056C35.1444 21.1076 34.8253 21.0004 34.4972 21.0004H29.1875Z" fill="#FFA310"/>
</svg>
