<svg width="48" height="48" viewBox="0 0 48 48" fill="none" xmlns="http://www.w3.org/2000/svg">
<path fill-rule="evenodd" clip-rule="evenodd" d="M0 9C0 4.02944 4.02944 0 9 0H39C43.9706 0 48 4.02944 48 9V18H0V9ZM12 9C12 10.6569 10.6569 12 9 12C7.34315 12 6 10.6569 6 9C6 7.34315 7.34315 6 9 6C10.6569 6 12 7.34315 12 9ZM21 9C21 10.6569 19.6569 12 18 12C16.3431 12 15 10.6569 15 9C15 7.34315 16.3431 6 18 6C19.6569 6 21 7.34315 21 9ZM30 9C30 10.6569 28.6569 12 27 12C25.3431 12 24 10.6569 24 9C24 7.34315 25.3431 6 27 6C28.6569 6 30 7.34315 30 9Z" fill="#8A70D3"/>
<path d="M0 24V39C0 43.9706 4.02944 48 9 48H39C43.9706 48 48 43.9706 48 39V24H0Z" fill="#8A70D3"/>
</svg>
