<svg width="32" height="32" viewBox="0 0 32 32" fill="none" xmlns="http://www.w3.org/2000/svg">
<path fill-rule="evenodd" clip-rule="evenodd" d="M32 16C32 24.8366 24.8366 32 16 32C7.16344 32 0 24.8366 0 16C0 7.16344 7.16344 0 16 0C24.8366 0 32 7.16344 32 16ZM14 10C14 8.89543 14.8954 8 16 8C17.1046 8 18 8.89543 18 10V14H22C23.1046 14 24 14.8954 24 16C24 17.1046 23.1046 18 22 18H18V22C18 23.1046 17.1046 24 16 24C14.8954 24 14 23.1046 14 22V18H10C8.89543 18 8 17.1046 8 16C8 14.8954 8.89543 14 10 14H14V10Z" fill="#243143"/>
</svg>
