<svg width="153" height="105" viewBox="0 0 153 105" fill="none" xmlns="http://www.w3.org/2000/svg">
<path d="M17.1443 75.1566C29.9316 72.4429 42.6365 69.0713 55.0938 65.0419L77.8635 57.6409C79.6785 57.0652 80.751 55.4206 80.256 53.9404C79.761 52.4602 77.946 51.8023 76.1311 52.3779L53.3613 59.7789C40.904 63.8084 28.6941 68.4957 16.7318 73.8409C15.9068 74.1698 16.3193 75.3211 17.1443 75.1566Z" fill="white"/>
<path d="M90.8823 72.1666C93.5608 71.3134 95.1436 68.8759 94.4131 66.6821C93.6826 64.4883 91.004 63.5133 88.3255 64.3664L54.7218 75.3354C36.3371 81.3074 18.3178 88.2544 0.663655 96.1764C-0.55387 96.6639 0.0548921 98.4921 1.27242 98.1264C20.1441 94.1045 38.8939 89.1075 57.2786 83.1355L90.8823 72.1666Z" fill="white"/>
<path d="M87.801 89.4635C89.3452 88.9658 90.2577 87.5439 89.8365 86.2642C89.4154 84.9845 87.8712 84.4157 86.327 84.9134L66.9544 91.3119C56.3556 94.7956 45.9673 98.848 35.7897 103.469C35.0878 103.754 35.4387 104.82 36.1407 104.607C47.0202 102.261 57.8296 99.3457 68.4284 95.862L87.801 89.4635Z" fill="white"/>
<path d="M152.64 46.6362C152.924 44.9354 151.979 43.329 150.656 43.2346L143.002 42.8566C140.546 42.6676 138.089 42.4786 135.916 42.0062C135.065 41.8172 134.309 41.5337 133.742 41.2503C133.27 41.0613 132.892 40.6833 132.325 40.1164C131.286 38.888 130.246 37.1872 129.207 35.3919C127.223 31.8958 125.427 28.0217 122.971 24.4311C122.782 24.1476 122.404 24.2421 122.026 24.4311C120.514 23.5807 118.719 24.0532 118.152 25.2815L115.411 32.4627C114.467 34.7305 113.522 37.0927 112.388 38.888C111.915 39.6439 111.443 40.3054 111.065 40.7778C110.781 41.1558 110.214 41.4393 109.553 41.7227C108.041 42.3842 106.151 42.7621 104.167 43.2346C100.199 44.085 96.041 44.5574 91.789 45.7858C91.5055 45.8803 91.411 46.2582 91.5055 46.6362C90.2771 47.8646 90.0882 49.6599 91.1276 50.5103L97.0804 55.3292C98.9702 56.9356 100.86 58.5419 102.277 60.2427C102.844 60.9041 103.317 61.5656 103.695 62.1325C103.978 62.5105 104.073 63.0774 104.167 63.9278C104.262 65.5341 104.167 67.5184 103.884 69.5027C103.411 73.5658 102.655 77.7233 102.466 82.0698C102.466 82.3533 102.844 82.5423 103.222 82.6368C103.978 84.2431 105.679 84.9045 106.813 84.2431L113.238 80.0855C115.317 78.7627 117.49 77.4398 119.474 76.6839C120.325 76.306 121.081 76.117 121.648 75.928C122.12 75.8335 122.687 75.928 123.443 76.0225C125.049 76.4004 126.845 77.1564 128.64 78.0068C132.325 79.7076 136.01 81.6919 140.168 83.2037C140.451 83.2982 140.735 83.0147 140.924 82.7313C142.624 82.4478 143.853 81.1249 143.569 79.8021L141.585 72.3374C141.018 69.9751 140.451 67.5184 140.262 65.3451C140.168 64.4002 140.168 63.6443 140.262 62.9829C140.262 62.5105 140.546 61.9435 140.924 61.2821C141.774 59.8647 143.097 58.3529 144.42 56.9356C147.16 53.9119 150.278 51.0772 152.924 47.5811C153.113 47.2976 152.924 46.9197 152.64 46.6362Z" fill="white"/>
<path d="M70.862 8.98004C70.9708 8.3053 70.6082 7.66805 70.1006 7.63057L67.1638 7.48063C66.2212 7.40566 65.2785 7.33069 64.4446 7.14326C64.1183 7.06829 63.8282 6.95584 63.6107 6.84338C63.4294 6.76841 63.2844 6.61847 63.0668 6.39356C62.668 5.90625 62.2692 5.23152 61.8704 4.5193C61.109 3.13235 60.4201 1.59546 59.4774 0.171026C59.4049 0.058571 59.2599 0.0960561 59.1148 0.171026C58.5347 -0.16634 57.8459 0.0210864 57.6283 0.508393L56.5769 3.35726C56.2143 4.25691 55.8517 5.19404 55.4167 5.90625C55.2354 6.20613 55.0541 6.46853 54.9091 6.65596C54.8003 6.8059 54.5827 6.91835 54.3289 7.03081C53.7488 7.2932 53.0237 7.44314 52.2623 7.63057C50.7395 7.96794 49.1442 8.15536 47.5127 8.64267C47.4039 8.68015 47.3676 8.8301 47.4039 8.98004C46.9326 9.46734 46.8601 10.1796 47.2589 10.5169L49.5431 12.4287C50.2682 13.0659 50.9933 13.7032 51.5372 14.3779C51.7547 14.6403 51.936 14.9027 52.081 15.1276C52.1898 15.2775 52.2261 15.5024 52.2623 15.8398C52.2986 16.4771 52.2623 17.2643 52.1535 18.0514C51.9723 19.6633 51.6822 21.3126 51.6097 23.037C51.6097 23.1494 51.7547 23.2244 51.8997 23.2619C52.1898 23.8991 52.8424 24.1615 53.2775 23.8991L55.743 22.2498C56.5406 21.725 57.3745 21.2002 58.1359 20.9003C58.4622 20.7504 58.7523 20.6754 58.9698 20.6004C59.1511 20.5629 59.3686 20.6004 59.6587 20.6379C60.2751 20.7879 60.9639 21.0877 61.6528 21.4251C63.0668 22.0998 64.4808 22.887 66.0761 23.4868C66.1849 23.5243 66.2937 23.4118 66.3662 23.2994C67.0188 23.1869 67.4902 22.6621 67.3814 22.1373L66.62 19.176C66.4025 18.2389 66.1849 17.2643 66.1124 16.4021C66.0761 16.0272 66.0761 15.7274 66.1124 15.465C66.1124 15.2775 66.2212 15.0526 66.3662 14.7902C66.6925 14.228 67.2001 13.6282 67.7077 13.0659C68.7591 11.8664 69.9556 10.7418 70.9708 9.35489C71.0433 9.24243 70.9708 9.09249 70.862 8.98004Z" fill="white"/>
</svg>
