<svg width="32" height="32" viewBox="0 0 32 32" fill="none" xmlns="http://www.w3.org/2000/svg">
<path fill-rule="evenodd" clip-rule="evenodd" d="M0 16C0 24.8366 7.16344 32 16 32C24.8366 32 32 24.8366 32 16C32 7.16344 24.8366 0 16 0C7.16344 0 0 7.16344 0 16ZM8.58579 14.5858C9.36683 13.8047 10.6332 13.8047 11.4142 14.5858L14 17.1716L20.5858 10.5858C21.3668 9.80474 22.6332 9.80474 23.4142 10.5858C24.1953 11.3668 24.1953 12.6332 23.4142 13.4142L15.4142 21.4142C14.6332 22.1953 13.3668 22.1953 12.5858 21.4142L8.58579 17.4142C7.80474 16.6332 7.80474 15.3668 8.58579 14.5858Z" fill="#243143"/>
</svg>
