<svg width="81" height="40" viewBox="0 0 81 40" fill="none" xmlns="http://www.w3.org/2000/svg">
<path fill-rule="evenodd" clip-rule="evenodd" d="M40 22.8571C46.3118 22.8571 51.4286 17.7404 51.4286 11.4286C51.4286 5.11675 46.3118 0 40 0C33.6882 0 28.5714 5.11675 28.5714 11.4286C28.5714 17.7404 33.6882 22.8571 40 22.8571ZM40 19.1549C35.7329 19.1549 32.2737 15.6957 32.2737 11.4286H47.7264C47.7264 15.6957 44.2672 19.1549 40 19.1549Z" fill="#243143"/>
<path fill-rule="evenodd" clip-rule="evenodd" d="M5.25363 38.4686C4.78959 39.3293 3.97199 39.7843 2.78978 39.7843C1.16563 39.7843 0 38.9729 0 37.3063C0 35.4422 1.43632 34.8118 3.15439 34.6692C4.60176 34.5431 5.16524 34.4335 5.16524 33.9181V33.8907C5.16524 33.326 4.74539 33.008 4.08247 33.008C3.36984 33.008 2.92237 33.337 2.80635 33.8743L0.314886 33.7865C0.530335 32.2515 1.82303 31.1111 4.10457 31.1111C6.26458 31.1111 7.86111 32.1363 7.86111 33.9181V39.6418H5.31992V38.4686H5.25363ZM2.55776 37.1747C2.55776 37.7339 2.99971 38.03 3.62395 38.03C4.48575 38.03 5.18181 37.4708 5.18181 36.6484V35.8479C4.87797 36.0069 4.25925 36.1166 3.75654 36.1879C2.98866 36.303 2.55776 36.6319 2.55776 37.1747Z" fill="#243143"/>
<path d="M12.9914 33.3096C12.1351 33.3096 11.5716 33.8797 11.5661 34.8392V39.6418H8.86469V31.2208H11.4335V32.7668H11.5274C11.9031 31.7416 12.8533 31.1111 14.1073 31.1111C15.8916 31.1111 17.0573 32.3776 17.0517 34.2745V39.6418H14.3503V34.8008C14.3559 33.8688 13.8476 33.3096 12.9914 33.3096Z" fill="#243143"/>
<path d="M30.4762 39.6253H33.1776V34.6418C33.1776 33.8085 33.6692 33.2767 34.3764 33.2767C35.0779 33.2767 35.542 33.7646 35.542 34.5431V39.6253H38.1384V34.5979C38.1384 33.792 38.5859 33.2767 39.3317 33.2767C40.0167 33.2767 40.5028 33.7317 40.5028 34.5705V39.6253H43.2042V33.9565C43.2042 32.1747 42.0994 31.0946 40.4973 31.0946C39.2433 31.0946 38.2544 31.7471 37.9395 32.7503H37.8512C37.6247 31.7416 36.7131 31.0946 35.5365 31.0946C34.3764 31.0946 33.4925 31.7251 33.1389 32.7503H33.045V31.2043H30.4762V39.6253Z" fill="#243143"/>
<path fill-rule="evenodd" clip-rule="evenodd" d="M49.0858 38.4521C48.6217 39.3128 47.8041 39.7679 46.6219 39.7679C44.9978 39.7679 43.8322 38.9565 43.8322 37.2898C43.8322 35.4258 45.2685 34.7953 46.9865 34.6528C48.4339 34.5267 48.9974 34.417 48.9974 33.9017V33.8742C48.9974 33.3096 48.5775 32.9916 47.9146 32.9916C47.202 32.9916 46.7545 33.3205 46.6385 33.8578L44.147 33.7701C44.3625 32.235 45.6552 31.0946 47.9367 31.0946C50.0967 31.0946 51.6933 32.1199 51.6933 33.9017V39.6253H49.1521V38.4521H49.0858ZM46.3899 37.1582C46.3899 37.7174 46.8319 38.0135 47.4561 38.0135C48.3179 38.0135 49.014 37.4543 49.014 36.6319V35.8315C48.7101 35.9905 48.0914 36.1001 47.5887 36.1714C46.8208 36.2865 46.3899 36.6155 46.3899 37.1582Z" fill="#243143"/>
<path d="M52.6968 39.6253H55.3982V35.053C55.3982 34.0497 56.1164 33.3753 57.0832 33.3753C57.4036 33.3753 57.8842 33.4302 58.1438 33.5179V31.1878C57.9173 31.1275 57.6356 31.0892 57.387 31.0892C56.4589 31.0892 55.7187 31.6264 55.4093 32.7394H55.3209V31.2043H52.6968V39.6253Z" fill="#243143"/>
<path d="M61.2977 39.6253H58.5964V31.1878H61.2977V34.2196H61.4193L63.8058 31.2043H66.8663L63.8555 34.8721L66.9878 39.6253H63.8666L61.8447 36.44L61.2977 37.0979V39.6253Z" fill="#243143"/>
<path fill-rule="evenodd" clip-rule="evenodd" d="M70.8019 39.7843C73.0282 39.7843 74.4921 38.7153 74.8015 37.0596L72.3211 36.9883C72.1112 37.5475 71.5587 37.849 70.8516 37.849C69.813 37.849 69.1722 37.1637 69.1722 36.133V36.0617H74.8291V35.3929C74.8291 32.6188 73.1276 31.0946 70.719 31.0946C68.1557 31.0946 66.5095 32.8381 66.5095 35.4477C66.5095 38.1451 68.1336 39.7843 70.8019 39.7843ZM69.1722 34.5047C69.2109 33.6659 69.8793 33.0299 70.7743 33.0299C71.6637 33.0299 72.3045 33.644 72.3156 34.5047H69.1722Z" fill="#243143"/>
<path d="M78.3304 31.2043H79.8606V33.178H78.3304V36.9773C78.3304 37.4762 78.579 37.6517 79.0154 37.6517C79.2198 37.6517 79.4905 37.5968 79.6065 37.5694L80.0153 39.5047C79.7557 39.5815 79.2861 39.7131 78.6342 39.746C76.7283 39.8337 75.6124 38.9784 75.629 37.2734V33.178V31.2043V29.1867H78.3304V31.2043Z" fill="#243143"/>
<path d="M20.002 37.1491L16.7185 31.2149H19.7052L21.3113 34.3695H21.4107L23.0167 31.2149H26.0034L22.72 37.1491L21.4236 39.6418H18.7056L20.002 37.1491Z" fill="#243143"/>
<ellipse cx="26.682" cy="37.4604" rx="2.2031" ry="2.1978" fill="#243143" fill-opacity="0.6"/>
</svg>
