<svg width="20" height="20" viewBox="0 0 20 20" fill="none" xmlns="http://www.w3.org/2000/svg">
<path d="M0.566162 0.567383V19.434H19.4328V0.608503L14.0614 5.98052L14.0582 5.98373L17.5959 0.567383H0.566162Z" fill="#E55A00"/>
<path d="M17.3826 6.14062C17.2152 6.14062 17.0756 6.26764 16.9501 6.40663L14.0075 9.67058C13.8689 9.82355 13.841 9.90691 13.841 9.99119C13.841 10.0747 13.869 10.1578 14.0075 10.3112L16.9501 13.5745C17.0756 13.7135 17.2152 13.8405 17.3826 13.8405C17.6194 13.8405 17.982 13.6718 17.982 13.5044C17.982 13.4209 17.9128 13.3377 17.815 13.2262L15.1235 10.2553C14.9981 10.1163 14.9282 10.0467 14.9282 9.99119C14.9282 9.93487 14.9981 9.86523 15.1235 9.72585L17.815 6.75553C17.9128 6.6445 17.982 6.56015 17.982 6.47666C17.982 6.30889 17.6194 6.14062 17.3826 6.14062ZM5.87908 6.19461C3.68982 6.19461 2.0022 7.40556 2.0022 10.11C2.0022 12.7011 3.48033 13.8559 5.33487 13.8559C6.81317 13.8559 7.16151 13.4474 7.16151 13.0251V10.3073C7.16151 10.1379 7.02272 10.0529 6.688 10.0529C6.35285 10.0529 6.21383 10.1379 6.21383 10.3073V12.5741C6.21383 12.9257 6.0604 13.0669 5.34902 13.0669C3.91309 13.0669 3.01991 11.969 3.01991 10.0959C3.01991 8.13734 4.12211 7.02472 6.005 7.02472H6.54793C6.74366 7.02472 6.8133 6.85639 6.8133 6.5891C6.8133 6.26507 6.63208 6.19461 6.10202 6.19461H5.87908ZM10.8013 6.1979C9.29508 6.1979 8.20752 6.86747 8.20752 8.69405V13.5328C8.20752 13.6997 8.34657 13.7834 8.68169 13.7834C9.01641 13.7834 9.15523 13.6997 9.15523 13.5328V8.77757C9.15523 7.53655 9.64378 7.02093 10.9966 7.02093H11.2473C11.4426 7.02093 11.512 6.85352 11.512 6.58789C11.512 6.26797 11.331 6.1979 10.8013 6.1979ZM12.9351 6.1979C12.6 6.1979 12.4609 6.28136 12.4609 6.44913V13.5328C12.4609 13.6997 12.6 13.7834 12.9351 13.7834C13.269 13.7834 13.4086 13.6997 13.4086 13.5328V6.44913C13.4086 6.28136 13.269 6.1979 12.9351 6.1979ZM10.0213 9.50488C9.73513 9.50488 9.50282 9.737 9.50282 10.024C9.50282 10.3102 9.73513 10.5432 10.0213 10.5432C10.3075 10.5432 10.5405 10.3102 10.5405 10.024C10.5405 9.737 10.3075 9.50488 10.0213 9.50488Z" fill="white"/>
<path d="M17.596 0.567135L14.0583 5.98353L14.0616 5.98024L19.4336 0.607433V0.565918H17.5964L17.596 0.567135Z" fill="white"/>
</svg>
