<svg width="32" height="32" viewBox="0 0 32 32" fill="none" xmlns="http://www.w3.org/2000/svg">
<path fill-rule="evenodd" clip-rule="evenodd" d="M1.02582 5.13891C0 7.1522 0 9.78774 0 15.0588V16.9412C0 22.2123 0 24.8478 1.02582 26.8611C1.92816 28.632 3.36798 30.0718 5.13891 30.9742C7.1522 32 9.78774 32 15.0588 32H16.9412C22.2123 32 24.8478 32 26.8611 30.9742C28.632 30.0718 30.0718 28.632 30.9742 26.8611C32 24.8478 32 22.2123 32 16.9412V15.0588C32 9.78774 32 7.1522 30.9742 5.13891C30.0718 3.36798 28.632 1.92816 26.8611 1.02582C24.8478 0 22.2123 0 16.9412 0H15.0588C9.78774 0 7.1522 0 5.13891 1.02582C3.36798 1.92816 1.92816 3.36798 1.02582 5.13891ZM16 7.39243C18.8053 7.39243 19.1346 7.40076 20.2434 7.45078C21.2688 7.5008 21.8232 7.6717 22.1941 7.81343C22.6498 7.98222 23.0615 8.25149 23.3988 8.60124C23.7485 8.93853 24.0178 9.35027 24.1866 9.80589C24.3283 10.1769 24.4992 10.7313 24.5492 11.7567C24.5993 12.8655 24.6076 13.1948 24.6076 16C24.6076 18.8053 24.5993 19.1346 24.5492 20.2434C24.4992 21.2688 24.3283 21.8232 24.1866 22.1942C24.01 22.6458 23.7417 23.056 23.3988 23.3989C23.0559 23.7418 22.6458 24.01 22.1941 24.1867C21.8232 24.3284 21.2688 24.4993 20.2434 24.5493C19.1346 24.5993 18.8053 24.6077 16 24.6077C13.1947 24.6077 12.8654 24.5993 11.7566 24.5493C10.7312 24.4993 10.1768 24.3284 9.80583 24.1867C9.35021 24.0179 8.93847 23.7486 8.60118 23.3988C8.25143 23.0616 7.98216 22.6498 7.81337 22.1942C7.67164 21.8232 7.50074 21.2688 7.45072 20.2434C7.4007 19.1346 7.39236 18.8053 7.39236 16C7.39236 13.1948 7.4007 12.8655 7.45072 11.7567C7.50074 10.7313 7.67164 10.1769 7.81337 9.80589C7.98216 9.35027 8.25143 8.93853 8.60118 8.60124C8.93847 8.25149 9.35021 7.98222 9.80583 7.81343C10.1768 7.6717 10.7312 7.5008 11.7566 7.45078C12.8654 7.40076 13.1947 7.39243 16 7.39243ZM16 5.5C13.1488 5.5 12.7904 5.51251 11.6691 5.56253C10.5478 5.61255 9.78916 5.79178 9.12223 6.05022C8.42127 6.3137 7.78665 6.72776 7.26315 7.26321C6.7277 7.78671 6.31363 8.42133 6.05016 9.12229C5.79172 9.78922 5.61248 10.552 5.56246 11.6691C5.51244 12.7863 5.49994 13.1489 5.49994 16C5.49994 18.8512 5.51244 19.2097 5.56246 20.3309C5.61248 21.4522 5.79172 22.2109 6.05016 22.8778C6.31363 23.5788 6.7277 24.2134 7.26315 24.7369C7.78665 25.2723 8.42127 25.6864 9.12223 25.9499C9.78916 26.2083 10.552 26.3875 11.6691 26.4376C12.7862 26.4876 13.1488 26.5001 16 26.5001C18.8511 26.5001 19.2096 26.4876 20.3309 26.4376C21.4522 26.3875 22.2108 26.2083 22.8777 25.9499C23.5748 25.6788 24.2079 25.2657 24.7368 24.7368C25.2656 24.208 25.6787 23.5749 25.9498 22.8778C26.2082 22.2109 26.3875 21.4481 26.4375 20.3309C26.4875 19.2138 26.5 18.8512 26.5 16C26.5 13.1489 26.4875 12.7904 26.4375 11.6691C26.3875 10.5479 26.2082 9.78922 25.9498 9.12229C25.6863 8.42133 25.2723 7.78671 24.7368 7.26321C24.2133 6.72776 23.5787 6.3137 22.8777 6.05022C22.2108 5.79178 21.448 5.61255 20.3309 5.56253C19.2138 5.51251 18.8511 5.5 16 5.5ZM21.6063 11.6525C22.3016 11.6525 22.8652 11.0889 22.8652 10.3937C22.8652 9.69842 22.3016 9.13482 21.6063 9.13482C20.9111 9.13482 20.3475 9.69842 20.3475 10.3937C20.3475 11.0889 20.9111 11.6525 21.6063 11.6525ZM15.9999 10.6062C14.9331 10.6062 13.8903 10.9226 13.0033 11.5152C12.1163 12.1079 11.4249 12.9503 11.0167 13.9359C10.6084 14.9215 10.5016 16.006 10.7098 17.0523C10.9179 18.0986 11.4316 19.0597 12.1859 19.8141C12.9403 20.5684 13.9014 21.0821 14.9477 21.2902C15.994 21.4984 17.0785 21.3916 18.0641 20.9833C19.0497 20.5751 19.8921 19.8837 20.4848 18.9967C21.0774 18.1097 21.3938 17.0669 21.3938 16.0001C21.3927 14.5699 20.824 13.1986 19.8127 12.1873C18.8014 11.176 17.4301 10.6073 15.9999 10.6062ZM15.9999 19.5015C15.3074 19.5015 14.6305 19.2961 14.0547 18.9114C13.4789 18.5266 13.0301 17.9798 12.7651 17.34C12.5001 16.7002 12.4307 15.9962 12.5658 15.317C12.7009 14.6378 13.0344 14.0139 13.5241 13.5242C14.0138 13.0345 14.6376 12.701 15.3169 12.5659C15.9961 12.4308 16.7001 12.5002 17.3399 12.7652C17.9797 13.0302 18.5265 13.479 18.9113 14.0548C19.296 14.6306 19.5013 15.3075 19.5013 16.0001C19.5013 16.9287 19.1325 17.8193 18.4758 18.4759C17.8192 19.1326 16.9286 19.5015 15.9999 19.5015Z" fill="#243143"/>
</svg>
