<svg width="32" height="32" viewBox="0 0 32 32" fill="none" xmlns="http://www.w3.org/2000/svg">
<path fill-rule="evenodd" clip-rule="evenodd" d="M1.02588 5.13891C6.10352e-05 7.1522 6.10352e-05 9.78774 6.10352e-05 15.0588V16.9412C6.10352e-05 22.2123 6.10352e-05 24.8478 1.02588 26.8611C1.92822 28.632 3.36804 30.0718 5.13897 30.9742C7.15226 32 9.7878 32 15.0589 32H16.9412C22.2123 32 24.8479 32 26.8611 30.9742C28.6321 30.0718 30.0719 28.632 30.9742 26.8611C32.0001 24.8478 32.0001 22.2123 32.0001 16.9412V15.0588C32.0001 9.78774 32.0001 7.1522 30.9742 5.13891C30.0719 3.36798 28.6321 1.92816 26.8611 1.02582C24.8479 0 22.2123 0 16.9412 0H15.0589C9.7878 0 7.15226 0 5.13897 1.02582C3.36804 1.92816 1.92822 3.36798 1.02588 5.13891ZM16 7.39243C18.8053 7.39243 19.1346 7.40076 20.2434 7.45078C21.2688 7.5008 21.8232 7.6717 22.1942 7.81343C22.6498 7.98222 23.0616 8.25149 23.3988 8.60124C23.7486 8.93853 24.0179 9.35027 24.1867 9.80589C24.3284 10.1769 24.4993 10.7313 24.5493 11.7567C24.5993 12.8655 24.6077 13.1948 24.6077 16C24.6077 18.8053 24.5993 19.1346 24.5493 20.2434C24.4993 21.2688 24.3284 21.8232 24.1867 22.1942C24.01 22.6458 23.7418 23.056 23.3989 23.3989C23.056 23.7418 22.6458 24.01 22.1942 24.1867C21.8232 24.3284 21.2688 24.4993 20.2434 24.5493C19.1346 24.5993 18.8053 24.6077 16 24.6077C13.1948 24.6077 12.8655 24.5993 11.7567 24.5493C10.7313 24.4993 10.1769 24.3284 9.80589 24.1867C9.35027 24.0179 8.93853 23.7486 8.60124 23.3988C8.25149 23.0616 7.98222 22.6498 7.81343 22.1942C7.6717 21.8232 7.5008 21.2688 7.45078 20.2434C7.40076 19.1346 7.39243 18.8053 7.39243 16C7.39243 13.1948 7.40076 12.8655 7.45078 11.7567C7.5008 10.7313 7.6717 10.1769 7.81343 9.80589C7.98222 9.35027 8.25149 8.93853 8.60124 8.60124C8.93853 8.25149 9.35027 7.98222 9.80589 7.81343C10.1769 7.6717 10.7313 7.5008 11.7567 7.45078C12.8655 7.40076 13.1948 7.39243 16 7.39243ZM16 5.5C13.1489 5.5 12.7904 5.51251 11.6691 5.56253C10.5479 5.61255 9.78922 5.79178 9.12229 6.05022C8.42133 6.3137 7.78671 6.72776 7.26321 7.26321C6.72776 7.78671 6.3137 8.42133 6.05022 9.12229C5.79178 9.78922 5.61255 10.552 5.56253 11.6691C5.51251 12.7863 5.5 13.1489 5.5 16C5.5 18.8512 5.51251 19.2097 5.56253 20.3309C5.61255 21.4522 5.79178 22.2109 6.05022 22.8778C6.3137 23.5788 6.72776 24.2134 7.26321 24.7369C7.78671 25.2723 8.42133 25.6864 9.12229 25.9499C9.78922 26.2083 10.552 26.3875 11.6691 26.4376C12.7863 26.4876 13.1489 26.5001 16 26.5001C18.8512 26.5001 19.2097 26.4876 20.3309 26.4376C21.4522 26.3875 22.2109 26.2083 22.8778 25.9499C23.5749 25.6788 24.208 25.2657 24.7368 24.7368C25.2657 24.208 25.6788 23.5749 25.9499 22.8778C26.2083 22.2109 26.3875 21.4481 26.4376 20.3309C26.4876 19.2138 26.5001 18.8512 26.5001 16C26.5001 13.1489 26.4876 12.7904 26.4376 11.6691C26.3875 10.5479 26.2083 9.78922 25.9499 9.12229C25.6864 8.42133 25.2723 7.78671 24.7369 7.26321C24.2134 6.72776 23.5788 6.3137 22.8778 6.05022C22.2109 5.79178 21.4481 5.61255 20.3309 5.56253C19.2138 5.51251 18.8512 5.5 16 5.5ZM21.6064 11.6525C22.3016 11.6525 22.8652 11.0889 22.8652 10.3937C22.8652 9.69842 22.3016 9.13482 21.6064 9.13482C20.9111 9.13482 20.3475 9.69842 20.3475 10.3937C20.3475 11.0889 20.9111 11.6525 21.6064 11.6525ZM16 10.6062C14.9332 10.6062 13.8904 10.9226 13.0034 11.5152C12.1163 12.1079 11.425 12.9503 11.0168 13.9359C10.6085 14.9215 10.5017 16.006 10.7098 17.0523C10.9179 18.0986 11.4317 19.0597 12.186 19.8141C12.9403 20.5684 13.9014 21.0821 14.9477 21.2902C15.994 21.4984 17.0785 21.3916 18.0641 20.9833C19.0497 20.5751 19.8921 19.8837 20.4848 18.9967C21.0775 18.1097 21.3938 17.0669 21.3938 16.0001C21.3927 14.5699 20.8241 13.1986 19.8128 12.1873C18.8015 11.176 17.4302 10.6073 16 10.6062ZM16 19.5015C15.3075 19.5015 14.6305 19.2961 14.0547 18.9114C13.4789 18.5266 13.0301 17.9798 12.7651 17.34C12.5001 16.7002 12.4308 15.9962 12.5659 15.317C12.701 14.6378 13.0345 14.0139 13.5241 13.5242C14.0138 13.0345 14.6377 12.701 15.3169 12.5659C15.9961 12.4308 16.7001 12.5002 17.3399 12.7652C17.9797 13.0302 18.5266 13.479 18.9113 14.0548C19.2961 14.6306 19.5014 15.3075 19.5014 16.0001C19.5014 16.9287 19.1325 17.8193 18.4759 18.4759C17.8192 19.1326 16.9286 19.5015 16 19.5015Z" fill="#F00075"/>
</svg>
