<svg width="130" height="64" viewBox="0 0 130 64" fill="none" xmlns="http://www.w3.org/2000/svg">
<path fill-rule="evenodd" clip-rule="evenodd" d="M64.0001 36.5714C74.099 36.5714 82.2858 28.3846 82.2858 18.2857C82.2858 8.18679 74.099 0 64.0001 0C53.9011 0 45.7144 8.18679 45.7144 18.2857C45.7144 28.3846 53.9011 36.5714 64.0001 36.5714ZM64.0001 30.6479C57.1727 30.6479 51.6379 25.1131 51.6379 18.2857H76.3623C76.3623 25.1131 70.8275 30.6479 64.0001 30.6479Z" fill="#243143"/>
<path fill-rule="evenodd" clip-rule="evenodd" d="M8.40581 61.5497C7.66334 62.9269 6.35518 63.6549 4.46365 63.6549C1.86501 63.6549 0 62.3567 0 59.69C0 56.7076 2.29812 55.6988 5.04702 55.4707C7.36281 55.269 8.26438 55.0935 8.26438 54.269V54.2251C8.26438 53.3216 7.59263 52.8129 6.53196 52.8129C5.39174 52.8129 4.67578 53.3392 4.49017 54.1988L0.503818 54.0585C0.848536 51.6023 2.91684 49.7778 6.56731 49.7778C10.0233 49.7778 12.5778 51.4181 12.5778 54.269V63.4269H8.51187V61.5497H8.40581ZM4.09242 59.4795C4.09242 60.3742 4.79953 60.8479 5.79833 60.8479C7.1772 60.8479 8.2909 59.9532 8.2909 58.6374V57.3567C7.80476 57.6111 6.8148 57.7865 6.01046 57.9006C4.78185 58.0848 4.09242 58.6111 4.09242 59.4795Z" fill="#243143"/>
<path d="M20.7862 53.2953C19.4161 53.2953 18.5146 54.2076 18.5057 55.7427V63.4269H14.1835V49.9532H18.2936V52.4269H18.4439C19.0449 50.7865 20.5652 49.7778 22.5716 49.7778C25.4266 49.7778 27.2916 51.8041 27.2828 54.8392V63.4269H22.9606V55.6813C22.9694 54.19 22.1562 53.2953 20.7862 53.2953Z" fill="#243143"/>
<path d="M48.7619 63.4005H53.0841V55.4269C53.0841 54.0935 53.8708 53.2426 55.0022 53.2426C56.1247 53.2426 56.8672 54.0233 56.8672 55.269V63.4005H61.0215V55.3567C61.0215 54.0672 61.7374 53.2426 62.9307 53.2426C64.0267 53.2426 64.8045 53.9707 64.8045 55.3128V63.4005H69.1267V54.3304C69.1267 51.4795 67.359 49.7514 64.7957 49.7514C62.7893 49.7514 61.2071 50.7953 60.7033 52.4005H60.5618C60.1995 50.7865 58.741 49.7514 56.8583 49.7514C55.0022 49.7514 53.5879 50.7602 53.0223 52.4005H52.872V49.9269H48.7619V63.4005Z" fill="#243143"/>
<path fill-rule="evenodd" clip-rule="evenodd" d="M78.5372 61.5233C77.7948 62.9005 76.4866 63.6286 74.5951 63.6286C71.9965 63.6286 70.1314 62.3304 70.1314 59.6637C70.1314 56.6812 72.4296 55.6725 75.1785 55.4444C77.4943 55.2426 78.3958 55.0672 78.3958 54.2426V54.1988C78.3958 53.2953 77.7241 52.7865 76.6634 52.7865C75.5232 52.7865 74.8072 53.3128 74.6216 54.1725L70.6353 54.0321C70.98 51.576 73.0483 49.7514 76.6987 49.7514C80.1548 49.7514 82.7092 51.3918 82.7092 54.2426V63.4005H78.6433V61.5233H78.5372ZM74.2239 59.4532C74.2239 60.3479 74.931 60.8216 75.9298 60.8216C77.3086 60.8216 78.4223 59.9268 78.4223 58.6111V57.3304C77.9362 57.5847 76.9462 57.7602 76.1419 57.8742C74.9133 58.0584 74.2239 58.5847 74.2239 59.4532Z" fill="#243143"/>
<path d="M84.3149 63.4005H88.6372V56.0847C88.6372 54.4795 89.7862 53.4005 91.333 53.4005C91.8457 53.4005 92.6147 53.4883 93.0301 53.6286V49.9005C92.6677 49.8041 92.2169 49.7426 91.8192 49.7426C90.3343 49.7426 89.1498 50.6023 88.6549 52.383H88.5134V49.9269H84.3149V63.4005Z" fill="#243143"/>
<path d="M98.0764 63.4005H93.7542V49.9005H98.0764V54.7514H98.2709L102.089 49.9269H106.986L102.169 55.7953L107.18 63.4005H102.187L98.9514 58.304L98.0764 59.3567V63.4005Z" fill="#243143"/>
<path fill-rule="evenodd" clip-rule="evenodd" d="M113.283 63.6549C116.845 63.6549 119.187 61.9444 119.682 59.2953L115.714 59.1812C115.378 60.076 114.494 60.5584 113.363 60.5584C111.701 60.5584 110.676 59.4619 110.676 57.8128V57.6988H119.727V56.6286C119.727 52.19 117.004 49.7514 113.15 49.7514C109.049 49.7514 106.415 52.5409 106.415 56.7163C106.415 61.0321 109.014 63.6549 113.283 63.6549ZM110.676 55.2076C110.737 53.8655 111.807 52.8479 113.239 52.8479C114.662 52.8479 115.687 53.8304 115.705 55.2076H110.676Z" fill="#243143"/>
<path d="M125.329 49.9269H127.777V53.0848H125.329V59.1637C125.329 59.9619 125.726 60.2426 126.425 60.2426C126.752 60.2426 127.185 60.1549 127.37 60.1111L128.025 63.2075C127.609 63.3304 126.858 63.5409 125.815 63.5935C122.765 63.7339 120.98 62.3654 121.006 59.6374V53.0848V49.9269V46.6988H125.329V49.9269Z" fill="#243143"/>
<path d="M32.0032 59.4386L26.7496 49.9438H31.5283L34.098 54.9912H34.2571L36.8268 49.9438H41.6055L36.3519 59.4386L34.2777 63.4269H29.929L32.0032 59.4386Z" fill="#243143"/>
<ellipse cx="42.691" cy="59.9366" rx="3.52496" ry="3.51648" fill="#243143" fill-opacity="0.4"/>
</svg>
