<svg width="113" height="56" viewBox="0 0 113 56" fill="none" xmlns="http://www.w3.org/2000/svg">
<path fill-rule="evenodd" clip-rule="evenodd" d="M56 32C64.8366 32 72 24.8366 72 16C72 7.16344 64.8366 0 56 0C47.1634 0 40 7.16344 40 16C40 24.8366 47.1634 32 56 32ZM56 26.8169C50.026 26.8169 45.1831 21.974 45.1831 16H66.8169C66.8169 21.974 61.9741 26.8169 56 26.8169Z" fill="white"/>
<path fill-rule="evenodd" clip-rule="evenodd" d="M7.35508 53.8561C6.70542 55.0611 5.56078 55.6982 3.9057 55.6982C1.63188 55.6982 0 54.5622 0 52.2289C0 49.6192 2.01085 48.7366 4.41614 48.537C6.44246 48.3605 7.23134 48.207 7.23134 47.4855V47.4471C7.23134 46.6565 6.64355 46.2113 5.71546 46.2113C4.71777 46.2113 4.09131 46.6719 3.9289 47.4241L0.440841 47.3013C0.742469 45.1521 2.55224 43.5556 5.7464 43.5556C8.77041 43.5556 11.0056 44.991 11.0056 47.4855V55.4986H7.44789V53.8561H7.35508ZM3.58086 52.0447C3.58086 52.8276 4.19959 53.242 5.07354 53.242C6.28005 53.242 7.25454 52.4591 7.25454 51.3078V50.1872C6.82917 50.4098 5.96295 50.5633 5.25915 50.6631C4.18412 50.8243 3.58086 51.2848 3.58086 52.0447Z" fill="white"/>
<path d="M18.1879 46.6335C16.9891 46.6335 16.2003 47.4317 16.1925 48.7749V55.4986H12.4106V43.7092H16.0069V45.8736H16.1384C16.6643 44.4383 17.9946 43.5556 19.7502 43.5556C22.2483 43.5556 23.8802 45.3287 23.8724 47.9844V55.4986H20.0905V48.7212C20.0982 47.4164 19.3867 46.6335 18.1879 46.6335Z" fill="white"/>
<path d="M42.6667 55.4756H46.4486V48.4986C46.4486 47.3319 47.1369 46.5874 48.1269 46.5874C49.1091 46.5874 49.7588 47.2705 49.7588 48.3604V55.4756H53.3938V48.4372C53.3938 47.3089 54.0203 46.5874 55.0644 46.5874C56.0234 46.5874 56.704 47.2245 56.704 48.3988V55.4756H60.4859V47.5392C60.4859 45.0447 58.9391 43.5326 56.6962 43.5326C54.9406 43.5326 53.5562 44.446 53.1154 45.8506H52.9916C52.6745 44.4383 51.3984 43.5326 49.7511 43.5326C48.1269 43.5326 46.8895 44.4153 46.3945 45.8506H46.263V43.6861H42.6667V55.4756Z" fill="white"/>
<path fill-rule="evenodd" clip-rule="evenodd" d="M68.7201 53.833C68.0704 55.0381 66.9258 55.6751 65.2707 55.6751C62.9969 55.6751 61.365 54.5392 61.365 52.2058C61.365 49.5962 63.3759 48.7135 65.7812 48.5139C67.8075 48.3374 68.5964 48.1839 68.5964 47.4624V47.424C68.5964 46.6335 68.0086 46.1883 67.0805 46.1883C66.0828 46.1883 65.4563 46.6488 65.2939 47.401L61.8059 47.2782C62.1075 45.1291 63.9173 43.5326 67.1114 43.5326C70.1354 43.5326 72.3706 44.9679 72.3706 47.4624V55.4756H68.8129V53.833H68.7201ZM64.9459 52.0216C64.9459 52.8045 65.5646 53.219 66.4386 53.219C67.6451 53.219 68.6196 52.4361 68.6196 51.2848V50.1642C68.1942 50.3868 67.328 50.5403 66.6242 50.64C65.5491 50.8012 64.9459 51.2618 64.9459 52.0216Z" fill="white"/>
<path d="M73.7756 55.4756H77.5575V49.0743C77.5575 47.6697 78.563 46.7256 79.9164 46.7256C80.365 46.7256 81.0379 46.8023 81.4014 46.9251V43.6631C81.0843 43.5786 80.6898 43.5249 80.3418 43.5249C79.0425 43.5249 78.0061 44.2771 77.573 45.8352H77.4493V43.6861H73.7756V55.4756Z" fill="white"/>
<path d="M85.8169 55.4756H82.0349V43.6631H85.8169V47.9076H85.987L89.3281 43.6861H93.6128L89.3977 48.821L93.7829 55.4756H89.4132L86.5825 51.0161L85.8169 51.9372V55.4756Z" fill="white"/>
<path fill-rule="evenodd" clip-rule="evenodd" d="M99.1227 55.6982C102.239 55.6982 104.289 54.2014 104.722 51.8835L101.25 51.7837C100.956 52.5666 100.182 52.9887 99.1923 52.9887C97.7383 52.9887 96.8411 52.0293 96.8411 50.5863V50.4865H104.761V49.5501C104.761 45.6664 102.379 43.5326 99.0066 43.5326C95.418 43.5326 93.1133 45.9734 93.1133 49.6269C93.1133 53.4032 95.3871 55.6982 99.1227 55.6982ZM96.8411 48.3067C96.8952 47.1324 97.8311 46.242 99.084 46.242C100.329 46.242 101.226 47.1017 101.242 48.3067H96.8411Z" fill="white"/>
<path d="M109.663 43.6861H111.805V46.4493H109.663V51.7683C109.663 52.4668 110.011 52.7124 110.622 52.7124C110.908 52.7124 111.287 52.6357 111.449 52.5973L112.021 55.3067C111.658 55.4142 111.001 55.5984 110.088 55.6444C107.42 55.7672 105.857 54.5699 105.881 52.1828V46.4493V43.6861V40.8615H109.663V43.6861Z" fill="white"/>
<path d="M28.0028 52.0088L23.4059 43.701H27.5873L29.8358 48.1174H29.975L32.2234 43.701H36.4048L31.8079 52.0088L29.993 55.4986H26.1879L28.0028 52.0088Z" fill="white"/>
<ellipse cx="37.3548" cy="52.4444" rx="3.08434" ry="3.07692" fill="white" fill-opacity="0.4"/>
</svg>
