<svg width="119" height="32" viewBox="0 0 119 32" fill="none" xmlns="http://www.w3.org/2000/svg">
<path fill-rule="evenodd" clip-rule="evenodd" d="M16 32C24.8366 32 32 24.8366 32 16C32 7.16344 24.8366 0 16 0C7.16344 0 0 7.16344 0 16C0 24.8366 7.16344 32 16 32ZM16 26.8169C10.026 26.8169 5.18308 21.974 5.18308 16H26.8169C26.8169 21.974 21.974 26.8169 16 26.8169Z" fill="#243143"/>
<path fill-rule="evenodd" clip-rule="evenodd" d="M48.2362 11.588C47.5087 12.9437 46.2269 13.6603 44.3736 13.6603C41.8274 13.6603 40 12.3824 40 9.75739C40 6.82154 42.2517 5.82853 44.9452 5.60402C47.2142 5.40542 48.0976 5.23272 48.0976 4.42105V4.37787C48.0976 3.48848 47.4394 2.98766 46.4001 2.98766C45.2829 2.98766 44.5814 3.50575 44.3995 4.35197L40.4937 4.21381C40.8314 1.79605 42.858 0 46.4348 0C49.821 0 52.3239 1.61472 52.3239 4.42105V13.4358H48.3401V11.588H48.2362ZM44.0098 9.55015C44.0098 10.4309 44.7027 10.8972 45.6813 10.8972C47.0323 10.8972 48.1236 10.0164 48.1236 8.72121V7.46052C47.6472 7.71093 46.6773 7.88363 45.8892 7.99588C44.6853 8.17721 44.0098 8.6953 44.0098 9.55015Z" fill="#243143"/>
<path d="M60.3667 3.46258C59.0243 3.46258 58.1409 4.3606 58.1323 5.8717V13.4358H53.8973V0.172697H57.9244V2.60773H58.0716C58.6606 0.993009 60.1502 0 62.1161 0C64.9135 0 66.7408 1.99465 66.7322 4.98231V13.4358H62.4972V5.81126C62.5058 4.34334 61.7091 3.46258 60.3667 3.46258Z" fill="#243143"/>
<path d="M40.6236 31.6727H44.8586V23.8236C44.8586 22.5111 45.6293 21.6735 46.7379 21.6735C47.8378 21.6735 48.5653 22.442 48.5653 23.6681V31.6727H52.6357V23.7545C52.6357 22.4852 53.3372 21.6735 54.5064 21.6735C55.5803 21.6735 56.3424 22.3902 56.3424 23.7113V31.6727H60.5774V22.7442C60.5774 19.9379 58.8453 18.2368 56.3338 18.2368C54.3678 18.2368 52.8176 19.2644 52.3239 20.8446H52.1854C51.8303 19.2557 50.4013 18.2368 48.5566 18.2368C46.7379 18.2368 45.3522 19.2298 44.7979 20.8446H44.6507V18.4095H40.6236V31.6727Z" fill="#243143"/>
<path fill-rule="evenodd" clip-rule="evenodd" d="M69.798 29.8248C69.0705 31.1805 67.7887 31.8972 65.9354 31.8972C63.3892 31.8972 61.5618 30.6192 61.5618 27.9942C61.5618 25.0584 63.8136 24.0654 66.507 23.8408C68.776 23.6422 69.6594 23.4696 69.6594 22.6579V22.6147C69.6594 21.7253 69.0012 21.2245 67.962 21.2245C66.8447 21.2245 66.1432 21.7426 65.9614 22.5888L62.0555 22.4506C62.3932 20.0329 64.4198 18.2368 67.9966 18.2368C71.3829 18.2368 73.8858 19.8515 73.8858 22.6579V31.6727H69.9019V29.8248H69.798ZM65.5717 27.787C65.5717 28.6677 66.2645 29.134 67.2431 29.134C68.5942 29.134 69.6854 28.2533 69.6854 26.958V25.6973C69.2091 25.9478 68.2391 26.1205 67.451 26.2327C66.2472 26.414 65.5717 26.9321 65.5717 27.787Z" fill="#243143"/>
<path d="M75.4591 31.6727H79.6941V24.4712C79.6941 22.891 80.82 21.8289 82.3355 21.8289C82.8379 21.8289 83.5913 21.9153 83.9984 22.0534V18.3836C83.6433 18.2886 83.2016 18.2282 82.8119 18.2282C81.3569 18.2282 80.1964 19.0744 79.7114 20.8273H79.5728V18.4095H75.4591V31.6727Z" fill="#243143"/>
<path d="M88.9428 31.6727H84.7078V18.3836H88.9428V23.1587H89.1333L92.8747 18.4095H97.6726L92.9526 24.1862L97.8631 31.6727H92.97L89.8002 26.6558L88.9428 27.692V31.6727Z" fill="#243143"/>
<path fill-rule="evenodd" clip-rule="evenodd" d="M103.843 31.9231C107.333 31.9231 109.628 30.2393 110.113 27.6316L106.224 27.5193C105.895 28.4001 105.029 28.875 103.92 28.875C102.292 28.875 101.288 27.7956 101.288 26.1723V26.06H110.156V25.0066C110.156 20.6373 107.489 18.2368 103.713 18.2368C99.6941 18.2368 97.1133 20.9827 97.1133 25.0929C97.1133 29.3413 99.6595 31.9231 103.843 31.9231ZM101.288 23.6077C101.348 22.2866 102.396 21.2849 103.799 21.2849C105.194 21.2849 106.198 22.252 106.215 23.6077H101.288Z" fill="#243143"/>
<path d="M115.645 18.4095H118.044V21.5181H115.645V27.502C115.645 28.2878 116.035 28.5641 116.719 28.5641C117.039 28.5641 117.464 28.4778 117.646 28.4346L118.286 31.4827C117.879 31.6036 117.143 31.8108 116.121 31.8626C113.133 32.0008 111.384 30.6538 111.41 27.9683V21.5181V18.4095V15.2319H115.645V18.4095Z" fill="#243143"/>
<path d="M71.3573 9.50984L66.2098 0.163469H70.892L73.4098 5.13197H73.5657L76.0835 0.163469H80.7658L75.6183 9.50984L73.5859 13.4358H69.325L71.3573 9.50984Z" fill="#243143"/>
<ellipse cx="81.8295" cy="10.0001" rx="3.45382" ry="3.46154" fill="#243143" fill-opacity="0.4"/>
</svg>
