<svg width="48" height="48" viewBox="0 0 48 48" fill="none" xmlns="http://www.w3.org/2000/svg">
<path d="M6 34.8341C6.65042 34.9432 7.31858 35 8 35C11.0734 35 13.877 33.8446 16 31.9444C18.123 33.8446 20.9266 35 24 35C27.0734 35 29.877 33.8446 32 31.9444C34.123 33.8446 36.9266 35 40 35C40.6814 35 41.3496 34.9432 42 34.8341V44C42 46.2091 40.2091 48 38 48H10C7.79086 48 6 46.2091 6 44V34.8341Z" fill="#8A70D3"/>
<path d="M30 3C27.7909 3 26 3 26 6H12.6154C8.59793 6 4.96273 8.38187 3.35868 12.0652L0.887259 18.7404C0.302033 20.0842 0 21.5342 0 23C0 27.4183 3.58172 31 8 31C12.4183 31 16 27.4183 16 23C16 27.4183 19.5817 31 24 31C28.4183 31 32 27.4183 32 23C32 27.4183 35.5817 31 40 31C44.4183 31 48 27.4183 48 23C48 21.5342 47.698 20.0842 47.1127 18.7404L44.6413 12.0653C43.3954 9.20426 40.9241 7.12848 38 6.34418V6C38 3 36.2091 3 34 3H30Z" fill="#8A70D3"/>
</svg>
