<svg width="800" height="800" viewBox="0 0 800 800" fill="none" xmlns="http://www.w3.org/2000/svg">
<path d="M414.371 132C414.148 140.445 413.408 148.889 412.223 157.334C419.037 153.852 426.519 151.63 434.148 150.963C429.852 155.778 425.778 160.963 422.148 166.297C429.778 164 437.63 162.593 445.556 162.149C446.074 165.334 444.371 168.445 442.741 171.26C433.037 188.149 406.445 200.223 394.741 177.852C384.889 159.037 386.519 128.519 414.371 132Z" fill="#86F7FD"/>
<path d="M560.37 554.37C582 555.555 603.704 554.518 625.111 551.333C624.296 586.444 623.259 622.222 611.408 655.333C597.704 655.852 583.926 656.37 570.222 656.963C551.556 657.704 554.519 652.741 555.407 635.629C555.852 628.666 559.333 554.37 560.37 554.37Z" fill="#86F7FD"/>
<path d="M479.259 489.407C475.259 494.148 471.259 500.37 473.556 506.148C474.741 509.037 477.259 511.111 480 512.444C487.556 516.222 496.741 515.259 504.444 511.852C512.148 508.444 518.667 502.889 524.815 497.185C536.667 486.37 548 475.037 558.815 463.185C563.259 458.37 568.296 452.592 568.074 445.852C530.518 439.555 502.222 462.296 479.259 489.407Z" fill="#F68E07"/>
<path d="M607.26 496.666C605.704 502.296 604.075 508.37 605.926 513.925C607.556 518.814 611.482 522.518 615.63 525.481C620.741 529.185 626.889 532.296 633.112 531.185C636.593 530.592 639.63 528.814 642.667 526.963C650.741 522.074 659.037 516.74 664.074 508.74C673.26 494.148 669.408 475.037 664 458.666C662.741 454.888 661.186 450.74 657.704 448.74C655.26 447.333 652.297 447.259 649.408 447.333C640.223 447.555 625.63 447.407 619.482 455.185C612 464.666 610.445 485.259 607.26 496.666Z" fill="#F68E07"/>
<path d="M136.74 491.63C136.074 495.334 135.407 499.185 136.518 502.741C138.518 509.26 145.407 512.593 150.592 516.963C167.629 531.185 167.333 556.963 165.703 579.111C180.37 580.074 195.111 580.222 209.851 579.63C216.963 579.334 224.814 578.519 229.851 573.482C233.555 569.778 234.963 564.445 236.296 559.334C237.926 552.963 239.555 546.593 241.185 540.148C241.926 537.26 242.666 534.222 242.074 531.334C241.259 527.408 238.148 524.519 235.926 521.26C227.926 509.63 231.629 491.63 243.555 484.074C234.888 475.111 227.851 460.741 235.333 450.815C238.518 446.519 243.703 444.222 248.148 441.185C259.111 433.704 265.777 421.111 268.814 408.148C271.851 395.185 271.629 381.778 271.407 368.519C271.333 364.593 271.185 360.445 269.185 357.037C266.37 352.445 260.814 350.519 255.629 349.111C230.74 342.371 167.926 326.297 158.963 362.297C148.666 404.297 144.296 449.037 136.74 491.63Z" fill="#86F7FD"/>
<path d="M234.741 240C241.333 232.371 247.185 222.371 257.111 220.815C263.333 219.852 269.852 222.519 275.852 220.815C273.037 215.408 268.222 211.037 262.667 208.593C259.926 207.408 256.37 205.63 257.037 202.741C257.333 201.482 258.37 200.593 259.185 199.556C261.037 197.26 261.556 194.371 260.667 191.704C250.741 190.074 248.37 202.963 241.556 207.408C234.593 211.926 225.333 210.889 217.407 211.63C204.889 212.815 196.889 215.334 188.741 225.334C178.222 238.297 161.407 259.63 188.519 260.148C205.778 260.445 223.333 253.111 234.741 240Z" fill="#86F7FD"/>
<path d="M602.592 229.111C602.666 232.667 603.407 236.371 605.185 239.482C608.222 244.667 613.851 247.778 619.629 249.556C630.592 252.963 643.407 252.149 652.37 245.037C661.333 237.926 664.888 223.778 658.222 214.445C656.074 211.408 653.037 209.037 649.777 207.111C630.666 196 601.851 203.408 602.592 229.111Z" fill="#86F7FD"/>
<path d="M581.481 93.0366C579.407 93.7774 576.815 95.7774 577.926 97.7033C590.889 97.407 603.185 104.37 616.148 104.074C621.629 103.926 626.963 102.518 632.296 101.111C646.963 97.1848 661.555 93.3329 676.222 89.407C672.444 99.7033 668.666 109.926 664.889 120.222C678.814 113.259 690.518 101.926 697.926 88.2218C698.518 87.1107 699.111 85.8514 698.963 84.5922C698.666 82.8144 696.963 81.7033 695.407 80.9625C686.222 76.7403 675.481 78.7403 665.555 80.8144C650.296 83.9996 632.37 90.7403 616.74 89.1848C602.889 87.7774 595.481 87.8514 581.481 93.0366Z" fill="#86F7FD"/>
<path d="M247.777 106.148C247.777 111.703 249.407 117.185 251.777 122.296C254.888 128.963 259.333 135.185 265.407 139.259C273.629 144.741 284.592 145.852 293.777 142.074C302.888 138.296 309.926 129.778 311.851 120.074C314.963 104.518 305.111 78.2961 287.629 75.2591C269.259 72.0739 247.851 86.9628 247.777 106.148Z" fill="#F68E07"/>
<path d="M522.296 182C511.481 197.112 503.778 214.371 499.778 232.519C499.555 233.408 499.407 234.371 499.629 235.26C500.148 237.26 502.518 238.223 504.518 237.926C506.518 237.63 508.222 236.297 509.852 235.111C518.963 228.149 528 221.186 537.111 214.297C548.444 205.63 560.444 196.074 564.518 182.371C567.556 172.149 564.296 157.037 551.333 157.778C540.074 158.519 528.222 173.704 522.296 182Z" fill="#F68E07"/>
<path d="M665.852 374.667C650.815 382.963 635.407 393.926 630.667 410.445C629.926 413.111 629.407 415.926 630.074 418.593C631.259 423.704 636.222 427.333 641.407 428.296C646.593 429.333 651.926 428.296 656.963 426.963C674.148 422.593 690.593 415.482 705.333 405.704C715.482 398.963 737.926 384.148 739.259 370.667C742.667 335.852 675.037 369.556 665.852 374.667Z" fill="#F68E07"/>
<path d="M167.084 78.9367C163.443 80.4402 160.81 82.9724 159.338 86.6124C156.859 92.389 156.24 98.4029 157.402 104.654C157.556 105.604 157.866 106.395 158.254 107.186C159.183 108.927 159.493 110.668 159.338 112.488C152.522 108.848 145.318 106.87 137.65 106.553C136.798 106.553 135.946 106.712 135.172 107.028C130.524 108.611 127.813 111.934 127.116 116.92C126.884 118.502 127.349 119.927 128.588 121.193C132.926 125.624 138.193 127.919 144.312 128.235C141.058 132.508 138.038 136.94 135.327 141.608C134.32 143.27 134.63 144.774 136.256 145.961C139.432 148.335 142.375 150.946 145.009 153.715C151.05 160.125 157.014 166.614 162.823 173.182C164.373 174.923 166.232 175.635 168.4 175.556C171.266 175.397 174.055 174.923 176.611 173.973C180.406 172.628 184.124 171.124 187.687 169.383C193.883 166.456 200.312 164.477 207.051 163.29C207.98 163.211 208.91 162.974 209.684 162.578C212.473 161.47 213.867 159.255 213.867 156.089C214.022 155.298 214.254 154.586 214.487 153.874C216.888 146.752 218.824 139.393 220.451 131.796C220.915 129.581 221.458 127.444 222.155 125.307C222.774 123.329 222.387 121.509 221.148 119.927C220.915 119.61 220.683 119.373 220.451 119.135C215.648 115.337 211.543 110.826 208.135 105.683C206.818 103.626 205.192 101.806 203.178 100.223C201.164 98.482 199.228 96.7412 197.446 94.9211C196.362 93.8133 195.123 92.8637 193.806 92.2307C192.799 91.6768 191.792 91.5976 190.785 91.9142C187.377 93.2594 183.891 94.209 180.329 94.7629C179.941 90.8063 178.702 87.1663 176.456 84.0011C176.301 83.7637 176.068 83.5263 175.914 83.368C173.9 82.1019 171.886 80.7567 169.872 79.3324C168.943 78.6993 168.09 78.6202 167.084 78.9367ZM174.752 114.704C174.597 114.783 174.364 114.783 174.21 114.862C173.048 115.495 172.351 115.653 172.196 115.337C173.048 113.2 174.132 111.301 175.526 109.56C175.914 109.086 176.301 108.532 176.688 107.978C177.927 105.92 178.857 103.626 179.322 101.252C180.406 101.172 181.49 101.093 182.575 100.935C185.208 100.698 187.764 100.065 190.398 99.2733C191.172 99.1151 191.869 99.2734 192.644 99.8273C199.228 104.496 204.805 110.273 209.452 117.078C209.994 117.869 210.691 118.581 211.466 119.214C213.867 121.193 215.029 123.567 214.951 126.336C214.874 126.653 214.874 126.969 214.796 127.286C212.473 137.256 209.374 147.148 205.424 156.881C204.572 157.514 203.565 157.909 202.403 158.068C200.699 158.305 199.073 158.701 197.369 159.334C191.095 161.549 184.821 163.844 178.624 166.139C177.23 166.693 175.836 167.326 174.442 167.88C170.569 169.858 167.316 169.225 164.605 166.218C158.796 159.65 153.064 153.082 147.332 146.435C145.551 144.378 143.46 142.875 140.981 141.925L149.501 127.523L160.19 124.279C158.176 127.207 156.859 130.451 156.162 133.854C156.085 134.249 156.007 134.645 156.007 135.041C155.93 135.832 155.775 136.702 155.543 137.494C153.529 138.206 151.592 138.839 149.656 139.314C149.114 139.472 148.572 139.63 148.107 139.868C146.79 140.342 146.17 141.054 146.403 142.083L154.226 140.105C154.691 141.292 155.543 142.321 156.704 143.191C163.366 147.781 169.562 153.082 175.294 159.096C175.371 159.255 175.526 159.334 175.759 159.492C176.998 160.204 178.16 160.283 179.399 159.571C173.977 154.665 168.943 149.68 164.373 144.457C163.908 143.982 163.443 143.428 163.056 142.954C162.126 141.688 161.274 140.58 160.5 139.472C161.197 139.472 161.817 139.314 162.436 139.076C165.147 138.285 167.858 137.414 170.569 136.544C172.815 135.911 174.752 136.544 176.301 138.443C178.005 140.421 179.864 142.162 182.033 143.587C186.448 146.594 190.63 149.759 194.735 153.162C196.439 154.586 198.143 155.852 199.925 157.197C200.235 157.355 200.545 157.514 201.009 157.593C202.171 157.751 203.101 157.435 203.72 156.564C203.72 154.823 203.101 153.162 201.939 151.579C199.925 148.968 197.679 146.673 195.2 144.536C192.102 141.925 189.004 139.393 185.828 136.861C185.441 136.544 185.053 136.228 184.666 135.99C183.427 135.12 182.265 134.091 181.258 132.983L187.609 119.847C192.644 125.703 198.376 130.926 204.882 135.357C205.347 135.674 205.812 136.148 206.276 136.544C206.818 137.098 207.438 137.573 208.135 137.968L209.839 137.652C209.917 137.256 209.917 136.861 209.762 136.465C209.607 135.594 209.297 134.803 208.755 134.091C207.748 132.667 206.664 131.321 205.657 130.134C205.192 129.581 204.727 129.106 204.262 128.71C202.249 126.89 200.157 125.149 197.988 123.408C197.601 123.092 197.291 122.854 196.982 122.538C194.813 120.164 192.721 117.79 190.475 115.337C191.637 112.884 192.644 110.431 193.419 107.819C193.496 107.582 193.573 107.266 193.651 106.949C193.728 105.208 193.573 103.467 193.264 101.806L186.757 112.093C184.898 111.064 183.039 111.222 181.181 112.567C179.167 113.517 177.075 114.308 174.752 114.704ZM174.055 119.847C175.062 119.373 176.223 119.056 177.463 118.898C179.786 118.581 181.723 117.711 183.194 116.207L175.836 129.422L164.063 134.17L161.042 136.148L167.548 121.747C169.795 121.588 171.963 120.955 174.055 119.847ZM165.922 114.466C163.753 109.402 162.436 104.179 162.049 98.7194C161.662 93.5759 163.443 89.3029 167.238 85.9794L172.97 92.0724C174.442 94.842 174.752 97.6116 173.822 100.302C172.196 105.525 169.562 110.273 165.922 114.466ZM131.531 117.553C131.609 116.207 131.996 115.1 132.693 114.15C133.623 112.884 134.784 112.33 136.179 112.409C143.924 113.359 151.05 115.97 157.556 120.243L148.417 123.171C146.248 123.725 144.157 123.725 141.988 123.171C139.432 122.617 137.031 121.747 134.784 120.718C133.235 120.085 132.151 119.056 131.531 117.553Z" fill="#2F3C4D"/>
<path d="M707.852 68.5183C706.593 68.6664 705.333 68.8145 704.148 68.9627C699.778 69.5553 695.408 70.1479 691.111 70.7405C682.222 72.222 673.259 74.1479 664.148 76.4442C656.593 78.3701 649.037 80.4442 641.556 82.6664C637.185 83.8516 632.667 84.7405 628.148 85.1108C627.037 85.259 625.926 85.1108 624.889 84.8145C623.63 84.7405 622.445 84.4442 621.259 84.0738C618.296 82.6664 615.778 80.7405 613.778 78.1479C610.963 77.9257 608.148 78.296 605.333 79.3331C603.556 79.9997 601.704 80.4442 599.926 80.6664C593.185 81.9257 586.519 83.4071 579.778 85.1849C578.074 85.7034 576.371 86.222 574.667 86.8886C571.63 87.8516 568.963 89.4812 566.593 91.7034C566.593 91.9257 566.667 92.1479 566.741 92.3701C566.815 92.8145 567.111 93.0368 567.482 93.1108C572.667 96.0738 577.926 98.7405 583.333 101.111C589.037 103.407 594.889 105.555 600.667 107.555C606.593 109.703 612.741 110.592 619.037 110.296C620.296 110.148 621.63 109.926 622.963 109.703C627.037 108.74 631.111 107.629 635.185 106.222C642.296 103.852 649.482 102.37 656.815 101.852C654.593 106.666 652.371 111.555 650.296 116.518C649.852 117.629 649.556 118.74 649.408 119.926C649.333 121.259 649.852 122.148 650.963 122.666C653.333 123.481 655.778 124.444 658.222 125.333C660.667 125.852 663.111 126.148 665.556 126.222C666.296 126.296 666.963 126 667.482 125.407C670.222 122.296 672.963 119.259 675.63 116.148C676.815 114.74 678.148 113.555 679.556 112.592C682.593 110.37 685.778 108.222 688.963 106.222C690.37 105.259 691.704 104.37 693.111 103.407C693.852 102.963 694.593 102.444 695.185 101.852C695.852 101.333 696.445 100.74 697.037 100.148C697.704 99.5553 698.296 98.9627 698.815 98.3701C700 97.1849 701.185 95.9257 702.222 94.6664C707.333 88.5923 710.222 81.7034 711.037 73.8516C711.185 72.6664 711.037 71.5553 710.815 70.5182C710.519 69.1108 709.482 68.4442 707.852 68.5183ZM663.778 99.4071C664.074 98.3701 664 97.3331 663.63 96.4442C662.593 96.0738 661.482 95.9257 660.445 95.9997C656.148 96.296 651.926 96.8886 647.704 97.8516C641.556 99.259 635.408 100.815 629.259 102.592C623.778 104.222 618.296 104.74 612.815 104.37C611.926 104.296 611.111 104.222 610.296 104.296C608.593 103.926 606.963 103.629 605.333 103.333C595.704 100.444 586.445 96.6664 577.63 91.9997C578.593 91.6294 579.556 91.259 580.445 90.8886C583.704 89.7775 587.037 88.9627 590.296 88.296C596.074 87.259 601.778 85.9257 607.482 84.3701C608.074 84.1479 608.741 83.9257 609.408 83.8516C610.889 83.7775 612.074 84.3701 613.037 85.5553C613.63 86.222 614.296 86.8145 614.889 87.4071C616.963 89.259 619.333 90.5182 622 91.1849C623.408 91.4812 624.815 91.5553 626.222 91.259C635.482 89.9257 644.593 87.9997 653.556 85.4812C658.741 84.0738 663.926 82.5923 669.111 81.1108C681.111 77.8516 693.259 75.9997 705.482 75.7034C705.259 76.8145 704.963 77.9257 704.593 79.1108C702.296 86.8145 698 92.8886 691.704 97.259C688 99.7775 684.371 102.296 680.667 104.815C674.371 108.963 668.963 114.296 664.593 120.74L655.556 117.778C657.037 114.963 658.519 112.148 660 109.333C661.704 106.074 662.963 102.74 663.778 99.4071Z" fill="#2F3C4D"/>
<path d="M530.074 288.667L525.112 305.26C519.037 325.26 514.667 340.963 511.926 352.445C511.482 354.445 511.556 355.852 512.149 356.667C512.815 357.408 514 358 515.852 358.371L576.741 369.926C578.593 370.297 579.926 370.297 580.815 370C582.149 369.63 583.112 368.667 583.63 367.186C584.074 366.148 584.445 364.741 584.593 362.815C585.26 356.371 586.889 348.445 589.63 339.111C592.963 328.741 595.334 320.963 596.741 315.778C597.26 313.556 598.815 306.297 601.408 294C603.334 285.111 605.186 277.926 607.111 272.445C608.371 268.963 608.297 266.593 606.889 265.334C606.149 264.593 605.111 264.222 603.704 264.074C603.334 264.074 602.074 264.074 600 264.148C597.926 264.148 594.815 263.852 590.741 263.185L547.852 255.852C545.63 255.408 544 255.482 542.963 256.074C542.223 256.445 541.778 257.037 541.63 257.926C541.408 258.815 541.63 259.482 542.371 259.926C541.037 260.148 539.852 261.334 538.815 263.63C536.223 269.185 533.334 277.556 530.074 288.667ZM518.741 352.074C522.074 336.593 525.778 321.63 529.926 307.111L543.334 261.037C563.556 264.667 582.519 267.926 600.149 270.741C597.408 281.185 595.186 290.741 593.556 299.185C591.63 308.297 590.223 314.593 589.186 318C588.371 321.185 587.408 324.223 586.297 327.334L584.371 332.371C583.704 334.371 582.889 337.334 582.074 341.26L577.037 363.26L518.741 352.074ZM548.889 346.815C548.445 346.148 547.556 345.704 546.223 345.408C544.149 345.111 542.741 345.482 542.074 346.445C541.778 346.815 541.556 347.408 541.334 348.297C541.037 349.334 541.037 350.148 541.334 350.741C541.63 351.408 542.149 352 543.037 352.593C543.778 352.963 544.297 353.185 544.519 353.26C545.63 353.63 546.667 353.334 547.778 352.445C548.593 351.778 549.186 350.889 549.408 349.778C549.704 348.519 549.482 347.482 548.889 346.815ZM534.149 336C532.667 335.556 531.704 335.334 531.26 335.185C530.963 335.111 530.667 335.111 530.371 335.111C532.741 327.704 535.704 317.037 539.186 303.111C542.889 288.297 545.852 277.408 548 270.445C549.63 271.482 552.445 272.148 556.445 272.519C561.112 273.037 566.519 273.778 572.519 274.741C574.445 275.111 579.778 276.074 588.445 277.63C590.297 278 591.63 278 592.519 277.63C593.186 277.408 593.704 277.037 593.926 276.371C594.297 275.704 594.297 275.185 594 274.593C593.63 274.074 592.815 273.704 591.63 273.482C582.667 271.334 573.408 269.704 563.778 268.519C559.852 268.074 557.186 267.778 555.926 267.482C552.963 267.037 550.371 266.371 548.223 265.482C546.741 264.963 545.704 264.815 544.963 265.185C544.519 265.556 544.149 266.148 543.926 267.185L530.223 320.074C528.593 326.445 527.408 331.26 526.741 334.519C526.519 335.408 526.445 336 526.593 336.445C526.667 336.815 526.889 337.037 527.037 337.26C527.112 337.852 527.704 338.371 528.667 338.889C531.112 340.074 535.186 341.26 540.741 342.297L561.778 346.741C562.963 347.111 565.852 347.63 570.297 348.519C572.371 348.889 574 348.963 575.112 348.593C575.778 348.371 576.223 348 576.593 347.482C577.556 346.815 578.371 345.704 578.889 344.148C579.26 343.111 579.63 341.556 580 339.482C580.445 337.408 580.889 335.926 581.186 334.963L582.519 331.704C583.186 330.148 583.704 328.223 584.223 326C586.149 317.778 589.186 303.185 593.26 282.297C593.556 281.111 593.408 280.222 592.963 279.852C592.593 279.482 592.149 279.408 591.556 279.482C591.037 279.556 590.593 279.778 590.223 280.148C589.852 280.519 589.482 281.408 589.037 282.741L581.704 314.148C580.223 320.371 578.963 325.111 578 328.223C576.815 331.334 576.074 333.408 575.778 334.445C575.482 335.482 575.186 336.963 574.741 339.037C574.371 340.815 573.852 342.297 573.26 343.408C573.186 343.482 573.112 343.63 573.112 343.704C572.963 343.704 572.815 343.704 572.667 343.704C570.667 343.63 568.445 343.334 565.852 342.741C562.889 342 560.593 341.408 559.186 340.963C557.482 340.593 555.037 340.074 551.704 339.408L540.741 337.408C537.852 336.963 535.63 336.519 534.149 336Z" fill="#2F3C4D"/>
<path d="M654.301 234.152C654.215 235.225 653.874 236.545 653.19 237.948C652.421 239.846 651.396 241.166 650.114 241.909C649.602 242.239 648.747 242.569 647.551 243.064C647.039 243.394 646.355 243.889 645.415 244.632C644.988 244.797 644.219 245.044 642.938 245.292C640.118 245.952 638.068 247.52 636.701 249.83C638.068 250.656 640.204 250.821 643.194 250.325C645.159 250.078 646.611 249.748 647.722 249.253L652.592 246.53C653.19 246.117 654.044 245.374 655.07 244.384C656.095 243.311 656.864 242.486 657.206 241.744C657.547 241.001 657.975 239.928 658.402 238.443C658.829 236.545 659.085 235.225 659.085 234.482C659.171 233.162 658.914 231.594 658.231 229.613C657.462 226.973 656.608 224.992 655.839 223.589C655.582 223.094 655.326 222.764 655.07 222.599C654.642 222.269 654.215 222.269 653.874 222.434C653.446 222.682 653.276 223.177 653.276 223.92C653.276 225.487 653.361 226.89 653.617 228.128L654.044 230.026C654.215 231.759 654.386 233.162 654.301 234.152ZM661.307 187.776C660.879 187.776 660.367 187.942 659.854 188.272C659.171 188.932 659 189.674 659.342 190.5C659.683 191.407 660.367 191.902 661.307 191.985C662.332 192.15 663.015 191.737 663.357 190.747C663.784 189.757 663.528 188.932 662.759 188.354C662.674 188.354 662.588 188.354 662.588 188.272C662.246 187.942 661.819 187.776 661.307 187.776ZM675.489 199.824C676.343 198.916 676.771 198.256 676.6 197.679C676.6 197.101 676.173 196.441 675.318 195.616L672.413 192.893C671.73 192.232 671.132 191.82 670.705 191.655C670.021 191.325 669.167 191.325 668.142 191.572C667.202 191.902 665.92 192.81 664.468 194.295L660.367 198.834C659.683 198.421 659 198.009 658.316 197.679C657.291 197.184 656.351 197.019 655.668 197.019C655.241 197.101 654.728 197.266 654.215 197.514C653.703 197.761 653.019 198.256 652.079 199.082L648.918 202.217C648.747 202.382 648.577 202.547 648.491 202.63C648.064 202.382 647.551 202.135 647.039 201.887C641.656 198.834 637.384 198.174 634.052 199.824L643.707 206.013C648.32 208.901 651.738 211.459 653.959 213.522C659.256 218.638 662.161 224.58 662.759 231.346C662.93 233.162 662.844 234.977 662.674 236.792C662.246 242.651 660.452 247.107 657.376 250.325C657.035 250.738 655.924 251.646 654.044 253.214C651.31 255.277 649.175 256.679 647.551 257.34C645.501 258.247 643.023 258.825 639.947 259.155C634.138 259.65 629.268 258.99 625.338 257.257C623.287 256.267 621.151 254.864 619.015 253.049C617.648 251.811 615.769 250.078 613.462 247.685C610.728 244.797 608.763 242.569 607.567 241.001C605.516 238.36 604.149 235.802 603.466 233.327C602.184 228.706 602.611 224.002 604.747 219.133C606.542 215.255 609.446 211.459 613.462 207.828C618.759 203.125 624.142 200.237 629.695 199.164C624.74 198.421 620.041 199.164 615.769 201.392C613.376 202.547 610.472 204.858 606.883 208.241C604.576 210.469 602.953 212.202 601.928 213.605C600.39 215.503 599.279 217.648 598.51 219.959C597.314 223.589 597.058 227.385 597.656 231.346C598.254 235.307 599.536 238.938 601.672 242.321C603.124 244.549 605.516 247.437 608.848 250.986C612.608 255.029 615.598 257.835 617.905 259.402C622.006 262.208 626.448 263.776 631.233 264.106C633.54 264.189 636.615 263.941 640.545 263.363C644.39 262.786 647.209 262.126 649.004 261.465C650.712 260.723 653.019 259.32 656.095 257.174C658.316 255.607 659.854 254.369 660.794 253.461C663.015 251.233 664.895 248.263 666.347 244.632C667.458 242.074 668.142 239.681 668.569 237.288C669.081 233.822 668.91 230.273 667.971 226.643C667.202 223.755 666.091 221.031 664.553 218.391C664.81 218.226 664.98 218.061 665.237 217.813L670.021 212.78C670.876 211.707 671.388 210.882 671.388 210.222C671.388 209.809 671.217 209.231 670.876 208.489C670.448 207.911 669.85 207.086 669.081 206.178L675.489 199.824ZM669.167 196.028C670.021 195.863 670.961 196.523 672.072 197.761L666.262 203.538L663.699 201.227C663.613 201.227 663.613 201.144 663.528 201.062C664.98 199.907 666.262 198.669 667.458 197.266C668.227 196.523 668.825 196.111 669.167 196.028ZM655.497 202.465L656.351 202.63C658.06 203.125 659.683 204.198 661.307 205.766L665.664 209.809L661.648 213.935C659.085 210.634 655.839 207.663 651.994 205.023C652.079 204.94 652.165 204.858 652.25 204.693C652.592 204.363 652.934 204.115 653.105 203.95L654.215 202.877C654.642 202.63 655.07 202.465 655.497 202.465ZM696.763 210.387C696.165 210.222 694.798 209.974 692.662 209.726L683.008 208.489C682.324 208.489 681.726 208.406 681.299 208.159C681.128 208.076 680.701 207.746 679.846 207.168L676.942 204.858C676.173 204.28 675.489 203.868 674.977 203.703C674.037 203.455 673.439 203.62 672.926 204.115C672.499 204.693 672.499 205.353 672.926 206.096C673.268 206.673 673.78 207.168 674.464 207.663L678.907 211.212C679.932 212.037 680.701 212.532 681.299 212.697C681.726 212.862 682.837 212.862 684.375 212.862C685.827 212.78 687.45 212.945 689.33 213.192C690.868 213.357 692.149 213.605 693.089 213.852C695.652 214.512 698.984 216.163 703.171 218.803C704.452 219.629 705.563 220.371 706.332 221.196C706.93 221.939 707.699 223.342 708.553 225.487C710.006 229.283 710.347 232.171 709.664 234.152C708.81 236.38 707.101 238.03 704.538 238.938C702.573 239.681 700.095 239.928 697.19 239.681C696.336 239.681 695.481 239.516 694.627 239.35C691.637 238.773 689.415 237.7 687.877 236.05C686.938 235.142 685.998 233.739 685.058 231.841C684.375 230.356 683.947 229.201 683.691 228.458C683.606 228.211 683.435 227.22 683.093 225.652C682.751 223.094 682.666 220.454 682.922 217.813C683.008 216.74 683.008 215.915 682.922 215.503C682.666 214.595 682.153 214.017 681.384 213.852C680.444 213.605 679.505 214.265 678.565 215.75C677.967 216.658 677.54 217.401 677.369 218.061C677.198 218.638 677.112 219.629 677.198 220.949C677.198 223.507 677.454 225.57 677.881 227.22C678.138 228.541 678.992 230.604 680.274 233.327C680.957 234.895 681.726 236.215 682.495 237.288C683.691 239.02 685.229 240.506 687.109 241.744C688.476 242.569 690.184 243.229 692.064 243.889L695.396 244.797C697.532 245.209 699.753 245.374 702.231 245.374C704.452 245.209 706.246 244.879 707.613 244.302C708.809 243.724 710.176 242.816 711.543 241.579C714.448 239.103 716.072 236.545 716.413 234.152C716.755 232.254 716.413 229.861 715.388 227.055L714.107 223.589C713.509 221.939 712.911 220.784 712.483 220.041C711.458 218.556 710.091 217.153 708.212 215.915C706.93 215.008 705.136 214.017 702.914 212.945C700.009 211.542 697.959 210.717 696.763 210.387ZM642.254 186.539C641.742 186.621 641.314 186.786 640.887 187.116C640.545 187.446 640.289 187.942 640.204 188.519C640.204 189.097 640.289 189.592 640.545 190.087C640.802 190.5 641.229 190.912 641.827 191.077C642.34 191.242 642.852 191.325 643.365 191.16C643.877 190.995 644.305 190.747 644.646 190.252C644.903 189.757 645.074 189.262 644.988 188.684C644.903 188.107 644.646 187.611 644.219 187.199L643.707 186.869C643.365 186.704 642.852 186.539 642.254 186.539ZM650.456 188.932C649.858 189.427 649.602 190.087 649.602 190.912C649.687 191.737 650.114 192.315 650.798 192.728C651.14 192.975 651.567 193.14 651.994 193.14C653.019 193.223 653.788 192.81 654.215 191.902C654.386 191.572 654.386 191.16 654.301 190.665C654.215 190.087 653.959 189.592 653.532 189.179L653.361 189.097C653.019 188.767 652.507 188.519 651.994 188.437C651.31 188.519 650.798 188.602 650.456 188.932ZM646.868 176.141C646.611 175.811 646.184 175.646 645.757 175.564C644.732 175.564 644.048 176.059 643.792 177.049C643.621 177.627 643.621 178.204 644.048 178.782C644.476 179.525 645.159 179.855 646.099 179.772C646.868 179.772 647.466 179.36 647.808 178.534C648.064 177.709 647.893 176.967 647.295 176.389C647.209 176.306 647.039 176.306 646.868 176.141ZM653.019 181.505C652.507 181.093 651.994 180.927 651.738 180.845C650.712 180.68 649.943 181.01 649.431 181.835C649.004 182.66 649.004 183.486 649.602 184.311C649.858 184.723 650.285 185.136 650.883 185.301C651.396 185.466 651.909 185.548 652.507 185.383C653.019 185.218 653.361 184.888 653.703 184.476C654.044 183.981 654.215 183.486 654.13 182.99C654.044 182.578 653.788 182.083 653.361 181.423C653.275 181.505 653.19 181.505 653.019 181.505ZM660.367 180.515C660.025 180.35 659.769 180.267 659.342 180.185C658.573 180.102 658.06 180.35 657.547 180.927C657.035 181.505 656.949 182.165 657.206 182.825C657.291 183.32 657.547 183.733 657.889 184.063C658.402 184.558 659 184.806 659.683 184.806C660.623 184.806 661.307 184.393 661.648 183.568C661.99 182.825 661.905 182 661.307 181.175C661.05 180.927 660.709 180.68 660.367 180.515ZM654.899 172.346C654.643 172.428 654.301 172.676 653.874 173.088C653.532 173.418 653.361 173.748 653.361 174.078C653.19 174.904 653.532 175.646 654.386 176.389C654.813 176.802 655.241 177.049 655.668 177.214C656.437 177.627 657.291 177.544 658.145 176.967C658.914 176.306 659.085 175.564 658.744 174.656C658.487 174.078 657.975 173.583 657.206 173.088C656.266 172.511 655.497 172.263 654.899 172.346Z" fill="#2F3C4D"/>
<path d="M486.475 90.8342C485.389 91.6238 484.459 92.4852 483.606 93.4902C479.885 97.2228 477.094 101.458 475.311 106.196C474.38 108.349 473.76 110.646 473.527 112.943C473.372 114.163 473.527 115.312 473.838 116.46C476.163 123.064 481.048 126.51 488.49 126.869C491.669 126.941 494.693 126.366 497.639 125.002C501.825 123.208 505.624 120.983 509.191 118.111C515.238 113.302 519.192 107.344 521.207 100.166C521.518 99.0173 521.828 97.9406 522.138 96.7921C523.688 91.6238 522.835 87.1734 519.579 83.3689C517.951 80.4976 515.548 79.5645 512.447 80.6412C512.059 80.713 511.749 80.8566 511.361 81.0719C511.516 81.2155 511.594 81.359 511.749 81.5744C511.981 81.8615 512.214 82.0768 512.524 82.2922C513.609 82.8664 514.617 83.5843 515.625 84.3739C517.408 85.7377 518.494 87.6041 518.726 89.9729C518.881 91.2649 518.727 92.4852 518.106 93.6337C515.78 98.2278 513.067 102.606 509.888 106.842C507.097 110.574 503.686 113.661 499.577 116.03C495.39 119.116 490.816 120.265 485.777 119.403C483.916 119.116 482.288 118.255 480.97 116.891C480.117 116.101 479.575 115.168 479.342 114.092C478.334 110.646 478.489 107.272 479.807 103.827C481.745 98.802 484.924 94.7105 489.498 91.4803C495.778 87.2451 502.213 83.5125 508.958 80.2823C508.338 80.2823 507.717 80.3541 507.097 80.6412C499.577 82.8665 492.754 86.312 486.475 90.8342ZM481.048 54.8715L489.266 54.728C489.266 55.0869 489.266 55.4458 489.111 55.7329C488.645 57.3839 487.715 58.9631 486.32 60.6141C484.614 62.2651 484.381 63.916 485.544 65.567C487.328 68.0076 489.111 70.4482 490.739 72.9605C491.281 73.7501 492.134 74.1808 493.22 74.1808C496.166 74.1091 498.957 73.1041 501.67 71.3096C505.624 68.7972 509.733 68.1512 513.997 69.2279C516.866 69.9457 519.734 70.8789 522.448 72.0992C525.394 73.463 528.03 75.114 530.278 77.1957C533.689 80.2823 535.55 84.3021 535.705 89.1832C536.093 96.8639 535.24 104.616 533.069 112.441C532.294 115.168 532.216 117.681 532.759 119.978C528.573 124.356 524.153 128.591 519.579 132.683C517.874 134.119 516.013 135.339 513.92 136.2C509.345 137.923 504.771 138.713 500.197 138.497C489.886 137.923 480.505 135.267 472.132 130.458C469.961 129.166 468.255 127.371 467.015 125.074C465.542 122.562 464.612 119.834 464.147 116.891C462.984 109.641 464.534 102.606 468.643 95.7154C469.341 94.5669 470.194 93.4902 471.202 92.557C472.985 90.7625 474.458 88.8243 475.621 86.8145C475.931 86.3838 476.086 85.8813 476.086 85.4506C476.086 82.5075 475.156 79.7798 473.45 77.2675C472.365 75.76 470.814 75.1858 468.721 75.4729C467.17 75.76 465.852 75.9754 464.612 76.1189C464.069 76.1189 463.681 76.0472 463.449 75.9036C462.906 75.5447 462.596 75.114 462.518 74.6115C462.208 72.0992 463.294 69.9457 465.93 68.2229C469.729 65.7824 472.597 62.7675 474.535 59.0349C473.372 59.3938 472.209 59.7527 471.124 60.1834C465.93 62.3368 461.743 65.7106 458.642 70.2328C456.704 72.8888 456.006 75.6165 456.549 78.5595C456.781 79.8516 457.479 80.8565 458.642 81.5744C461.976 83.4407 465.697 83.4407 469.884 81.5744L470.504 85.3788C469.031 86.5273 467.713 87.8912 466.55 89.5422C465.387 91.0496 464.147 92.557 462.906 94.0644C459.805 98.2995 458.022 102.894 457.712 107.703C457.246 114.594 458.177 121.126 460.425 127.156C460.968 128.448 461.666 129.596 462.596 130.601C467.248 135.698 472.985 139.431 479.962 141.728C481.901 142.374 483.994 142.876 486.087 143.235C490.506 144.096 494.925 144.599 499.267 144.742C501.05 144.814 502.678 145.03 504.151 145.317C506.632 145.891 509.113 146.034 511.749 145.676C513.765 145.03 515.47 143.953 516.866 142.517C523.611 136.487 530.356 130.53 537.101 124.572C538.419 123.495 539.271 122.275 539.814 120.839C540.047 120.337 540.047 119.834 539.969 119.332C539.427 115.814 539.659 112.082 540.589 108.205C542.295 100.955 542.915 93.9209 542.45 87.0298C541.985 80.067 538.961 74.6115 533.534 70.7353C527.565 66.4284 520.742 63.7725 512.912 62.7675C511.051 62.5522 509.268 62.8393 507.485 63.6289C502.6 65.8541 497.716 67.7923 492.832 69.2997L488.801 63.9878C491.747 61.5472 493.607 58.676 494.538 55.374C494.925 54.0101 494.77 52.7898 494.15 51.7131C492.677 49.2008 490.196 48.2676 486.707 49.129C483.219 49.9186 481.28 51.8567 481.048 54.8715ZM468.178 29.3172C464.069 28.8147 459.96 28.4558 455.696 28.4558C453.448 28.3122 451.897 29.2454 450.889 31.1117L452.207 34.629C451.742 38.3617 450.502 42.0226 448.563 45.6834C447.4 47.9087 446.625 50.2775 446.315 52.7181C446.082 54.5126 446.315 56.02 446.935 57.3839C448.021 59.6091 449.416 61.7626 451.044 63.7007C453.37 66.572 456.549 67.3616 460.658 65.9259L461.743 64.6339L461.2 63.1982H456.006C454.688 62.4804 453.758 61.619 453.06 60.6141C452.052 59.1067 451.432 57.3839 451.199 55.5176C450.812 52.8616 451.354 50.1339 452.75 47.4062C454.843 43.6018 456.316 39.582 457.091 35.4187C460.27 35.9211 463.526 36.4236 466.783 36.8543C469.418 37.2132 471.512 38.2899 473.14 40.0845C474.768 41.9508 475.388 44.1043 474.923 46.6166C474.613 48.5547 474.923 50.2775 475.853 51.7849C477.249 52.0002 478.567 51.5696 479.885 50.5646C481.435 48.9854 482.211 47.1909 482.366 45.181C482.676 39.9409 480.815 35.7058 476.861 32.332C476.396 31.9013 475.853 31.5424 475.311 31.2553C473.14 30.3221 470.736 29.6761 468.178 29.3172Z" fill="#2F3C4D"/>
<path d="M180.522 246.197C180.654 245.857 180.654 245.517 180.654 245.177C180.522 244.837 180.391 244.497 180.259 244.293C180.061 243.884 179.798 243.612 179.534 243.476C179.139 243.272 178.546 243.272 177.822 243.612L177.756 243.476C177.295 243.884 177.031 244.225 176.834 244.701C176.636 245.245 176.636 245.789 176.834 246.197C177.031 246.673 177.427 247.014 178.085 247.286C178.81 247.49 179.468 247.422 179.995 247.014C180.193 246.809 180.391 246.537 180.522 246.197ZM215.431 243.068L218.79 244.497C218.724 245.585 218.197 246.333 217.275 246.809C213.982 248.51 211.215 250.619 208.976 253.068C208.647 253.408 208.581 253.748 208.712 254.156C210.161 255.517 211.94 255.448 213.982 254.156C215.562 253.272 217.143 252.251 218.658 251.231C222.676 248.646 223.532 245.313 221.424 241.3C221.095 240.687 220.634 240.279 219.975 240.075L216.089 239.123C212.203 239.871 209.108 241.776 206.802 244.905C206.802 244.973 206.802 245.041 206.868 245.177C207.527 245.721 208.251 245.789 209.042 245.449C211.084 244.633 213.257 243.816 215.431 243.068ZM193.695 240.755C194.354 241.3 194.881 241.912 195.342 242.728C196.989 245.789 198.108 249.054 198.635 252.455C198.833 253.544 198.767 254.632 198.503 255.721C197.976 257.421 197.186 258.986 196.132 260.414C198.438 261.435 200.084 260.754 201.204 258.374C201.27 258.169 201.336 257.965 201.401 257.761C201.665 257.081 201.862 256.265 202.06 255.517C202.916 252.728 202.587 250.075 201.138 247.558C199.425 244.565 197.713 241.64 195.935 238.647C195.21 237.422 194.222 236.606 192.839 236.198C190.797 235.586 188.558 235.245 186.055 235.177C185.857 235.177 185.726 235.245 185.594 235.313L185.857 236.81C188.821 237.558 191.456 238.919 193.695 240.755ZM184.342 206.403C183.486 208.784 182.63 211.233 181.905 213.682C180.127 219.26 178.151 224.634 175.846 229.804C175.517 230.484 175.121 231.096 174.594 231.64C170.511 235.79 167.81 240.755 166.427 246.605C165.9 248.85 165.242 251.095 164.451 253.272C163.727 255.244 163.397 257.285 163.463 259.326C163.529 260.55 164.122 261.367 165.242 261.775C176.307 265.788 187.636 267.625 199.162 267.285C203.773 267.149 208.186 266.196 212.401 264.496C220.766 261.231 228.472 256.809 235.454 251.231C241.645 246.401 245.794 240.211 247.836 232.729C248.758 229.463 250.207 226.402 252.117 223.613C253.171 222.117 254.62 221.573 256.464 222.117C259.297 222.933 262.063 223.545 264.895 224.022C271.021 225.11 275.763 223.341 279.188 218.852C279.451 218.512 279.517 218.035 279.254 217.627C278.002 215.315 276.092 213.546 273.523 212.39C270.362 210.893 267.069 209.601 263.71 208.512C263.71 204.703 264.698 201.03 266.673 197.492C266.937 196.948 267.069 196.404 267.003 195.86C266.476 189.874 263.249 186.813 257.321 186.541C255.74 186.472 254.225 186.881 252.776 187.697C246.387 191.438 242.567 196.948 241.316 204.159C241.118 205.247 241.184 206.335 241.513 207.356C243.357 203.274 245.465 199.261 247.836 195.452C248.758 194.023 249.944 192.731 251.327 191.71C254.027 189.602 256.991 188.785 260.219 189.261C263.248 191.778 263.907 194.703 262.326 198.037C261.799 199.193 261.207 200.281 260.482 201.302C257.65 205.315 257.979 208.988 261.338 212.39C262.063 213.138 262.919 213.546 263.907 213.75C268.32 214.566 272.074 216.539 275.236 219.736C271.943 223.273 267.925 223.749 263.183 221.165C259.297 219.056 255.279 218.376 251.195 219.328C249.812 219.6 248.758 220.28 248.034 221.505C245.597 225.45 243.818 229.668 242.699 234.157C242.435 235.109 242.04 236.13 241.579 237.014C235.585 244.905 228.208 251.503 219.58 256.673C211.149 261.843 201.928 264.156 191.851 263.543C188.821 263.339 185.791 263.135 182.762 262.931C180.522 262.795 178.415 262.251 176.439 261.367C173.541 260.142 170.643 259.258 167.547 258.782L168.206 256.537C169.786 257.557 171.499 257.829 173.343 257.421C173.87 257.353 174.397 257.353 174.858 257.353C176.966 257.557 179.073 257.489 181.115 257.013C182.432 256.741 183.75 256.673 185.133 256.809C187.504 257.013 189.348 256.333 190.731 254.7C189.809 252.728 188.163 252.251 185.791 253.408C185.199 253.68 184.54 253.816 183.816 253.68C181.708 253.408 179.666 253.612 177.69 254.156C175.846 254.7 174.068 254.7 172.157 254.292C171.828 254.224 171.565 254.224 171.169 254.224C170.577 254.292 170.05 254.156 169.523 253.816C170.774 249.054 172.355 244.293 174.331 239.531C175.319 237.082 176.966 235.109 179.205 233.681C180.983 232.388 182.037 230.688 182.301 228.443C183.025 222.593 184.342 216.947 186.384 211.437C187.241 209.124 188.426 206.948 190.007 205.111C191.192 203.682 192.576 203.478 194.288 204.431C196.462 205.655 197.384 207.56 197.12 210.281C196.791 213.614 198.108 215.315 201.006 215.451C201.928 215.519 202.785 215.315 203.575 214.838C210.425 210.349 217.802 207.288 225.771 205.723C227.813 205.315 229.855 205.315 231.897 205.791C234.005 206.267 234.861 205.519 234.334 203.478C234.005 202.05 233.017 201.302 231.37 201.234C222.083 200.962 213.521 203.41 205.683 208.512C204.365 209.396 203.048 210.281 201.665 211.029C200.479 206.539 198.174 202.866 194.815 199.941C194.156 199.397 193.432 199.193 192.576 199.329C188.69 199.873 185.857 202.254 184.342 206.403Z" fill="#2F3C4D"/>
<path d="M748.445 371.259C748.519 369.407 748.741 367.555 748.963 365.704C749.778 359.852 748.297 354.815 744.445 350.666C737.111 342.815 728.148 340.074 717.482 342.37C717.111 342.444 716.741 342.592 716.371 342.741C702.963 346.963 689.778 351.778 676.741 357.111C663.63 362.518 652.074 370.222 642.074 380.222C640 382.37 638.148 384.666 636.519 387.185C628.815 399.333 625.852 412.592 627.63 426.963C627.852 428.444 628.519 429.704 629.63 430.741C634.519 435.185 640.371 437.926 647.185 438.815C651.334 439.333 655.482 439.037 659.482 438C666.074 436.37 672.148 433.629 677.778 429.704C694.371 418.296 711.037 407.111 727.778 396.074C731.26 393.778 734.741 391.407 738.148 389.037C744.741 384.592 748.074 378.666 748.445 371.259ZM732.519 349.037C737.037 350.889 740.148 354 741.926 358.296C743.037 361.037 743.704 363.852 743.778 366.815C744 373.333 741.556 378.666 736.445 382.741C726.815 390.518 716.741 397.629 706.297 404.222C694.297 411.852 682.148 419.259 669.852 426.444C667.778 427.629 665.704 428.666 663.556 429.407C654.667 432.667 645.926 432.222 637.185 428.296C636.222 427.852 635.63 427.185 635.26 426.222C633.926 422.741 633.408 419.111 633.63 415.333C634.074 408.592 635.778 402.148 638.815 396.074C642.963 387.704 648.741 380.667 656 374.815C665.037 367.629 675.037 361.926 686.074 357.778C691.037 355.185 696.297 353.481 701.778 352.741C704.889 352.222 707.778 351.259 710.519 349.926C717.852 346.296 725.186 346.074 732.519 349.037ZM644.148 392.518C643.111 393.407 642.963 394.148 643.704 394.815C650.741 394.222 657.556 395.111 664 397.481C664.593 397.704 664.963 398.074 665.111 398.592C666.297 401.852 668.222 403.333 671.037 403.111C672 400.518 671.334 398.222 669.037 396.074C664.148 391.407 658.074 389.481 650.815 390.296C648.371 390.222 646.074 390.963 644.148 392.518ZM673.26 379.481C675.111 379.629 676.741 380.148 678.297 381.037C683.037 383.778 687.334 386.815 691.111 390C692.667 387.555 692.371 385.111 690.297 382.667C683.704 375.037 675.482 372.222 665.63 374.074C665.334 374.222 665.111 374.37 664.815 374.518C663.778 375.037 663.111 375.778 662.889 376.815C662.741 377.555 662.815 378.148 663.185 378.741C663.408 378.963 663.63 379.037 663.852 379.037C667.037 379.037 670.148 379.111 673.26 379.481ZM688.593 362.296L686.223 364.148C686.593 365.926 687.852 366.741 689.926 366.666C692 366.444 693.926 366.889 695.778 367.852C701.704 371.185 706.667 375.481 710.667 380.741C711.482 379.852 711.926 378.741 712 377.481C712.297 373.333 710.148 370.518 705.704 369.111C705.037 368.889 704.519 368.518 704 368.074C699.556 363.704 694.445 361.704 688.593 362.296ZM724 361.407C726.667 363.407 729.482 364.815 732.371 365.778C732.963 364.592 732.889 363.407 732.223 362.296C728.593 356.518 723.408 354 716.593 354.667L713.111 355.629L713.26 358.148C713.778 358.666 714.445 359.037 715.111 359.111C718.445 358.815 721.408 359.555 724 361.407Z" fill="#2F3C4D"/>
<path d="M314.814 87.9265L314.74 90.8153C328 94.5931 332 104.075 326.814 119.334C327.333 119.038 327.777 118.741 328.222 118.297C336.888 110.964 338.37 102.445 332.814 92.8154C332 91.7042 331.111 90.6672 330.074 89.8524C325.481 86.0746 320.37 85.4079 314.814 87.9265ZM298.74 54.6672C298 55.7783 297.481 56.8894 297.111 58.0746C294.74 65.3339 292 72.519 288.888 79.5561C287.481 82.6672 288.518 84.8153 291.926 86.0005L294.444 82.3709C307.111 74.6672 320.444 73.7042 334.444 79.482C345.481 83.9265 349.703 91.5561 347.185 102.297C344.74 151.704 305.407 168.223 269.703 151.704L260.296 142.297C255.481 137.186 252.074 131.63 250 125.63C240.888 99.1117 250.592 82.7413 278.963 76.7413C263.777 71.7783 251.185 77.1857 241.333 92.8894C237.185 99.482 236.222 106.223 238.444 113.112C253.777 161.038 284.592 174.371 330.888 153.26C343.703 141.778 350.888 127.334 352.37 109.852C355.185 77.482 337.555 63.5561 299.555 67.9264L313.185 43.4079L305.555 46.3709C289.407 32.0746 272.148 30.2968 253.851 41.0376C252.814 41.6301 252.37 42.0746 252.518 42.445C259.777 65.0376 275.259 69.1857 298.74 54.6672ZM295.555 48.8894C295.111 49.2598 294.592 49.5561 294.074 49.7783C281.407 55.6301 269.926 55.0376 259.555 47.8524C259.703 47.5561 259.851 47.4079 260.074 47.2598C272.37 39.0375 284.222 39.5561 295.555 48.8894Z" fill="#2F3C4D"/>
<path d="M521.036 207.862C520.785 208.741 520.911 209.62 521.288 210.5C521.665 211.128 522.293 211.882 523.047 212.636C523.549 213.138 524.052 213.389 524.429 213.641C525.936 214.52 527.569 214.897 529.328 214.646C530.71 214.394 531.966 213.892 533.097 212.887C530.333 211.631 528.323 210.877 527.067 210.249C525.685 209.62 524.68 208.992 524.052 208.364C523.423 207.736 523.172 207.359 523.047 207.233C522.67 206.857 522.293 206.731 521.916 206.857C521.413 206.982 521.162 207.359 521.036 207.862ZM535.484 194.419C535.987 195.173 536.866 195.927 537.997 196.806C539.002 197.686 540.509 198.188 542.394 198.314C544.153 198.439 545.66 197.937 546.916 196.68C543.901 194.922 541.766 193.665 540.635 192.912C539.379 192.032 538.625 191.278 538.248 190.65C537.871 190.022 537.62 189.645 537.494 189.52C537.117 189.017 536.74 188.766 536.112 188.766C535.61 188.766 535.107 189.017 534.73 189.52C534.228 190.273 534.102 191.027 534.228 191.907C534.605 192.786 534.982 193.665 535.484 194.419ZM516.262 187.635C517.016 186.504 517.896 185.374 518.649 184.243C520.911 180.851 523.675 178.338 526.815 176.454L534.856 179.595C534.982 179.595 535.233 179.469 535.358 179.469C536.238 178.967 536.74 178.213 536.615 177.208C536.615 177.082 536.489 176.956 536.489 176.831C535.61 174.569 533.725 173.188 530.836 172.936C534.982 170.172 539.253 167.534 543.524 165.273C544.529 164.645 545.66 164.268 546.665 164.142C552.695 163.388 557.218 164.393 560.359 167.409C563.5 170.298 564.505 175.198 563.625 182.107C563.123 185.876 561.615 189.896 558.977 193.917C558.977 194.042 558.977 194.168 558.851 194.168C558.726 194.294 558.6 194.419 558.475 194.545C556.464 197.56 553.952 200.575 550.811 203.716C543.148 211.254 535.358 217.158 527.569 221.43C519.78 225.576 514.001 229.47 510.107 232.988C506.212 236.505 502.443 240.023 498.8 243.541C504.076 240.526 509.353 237.51 514.755 234.621C521.916 230.726 529.202 226.958 536.363 223.314C548.675 217.158 558.349 208.364 565.384 196.932C571.54 187.133 571.791 176.58 566.264 165.524L589.254 168.414C586.741 164.268 584.229 161.504 581.716 160.373C578.45 158.866 573.676 158.991 567.269 160.624C568.399 160.248 569.027 160.122 569.404 159.996C575.435 157.609 581.465 155.222 587.495 152.835C588.752 152.333 589.254 151.453 589.254 150.197C589.128 147.685 587.747 146.805 585.108 147.308C579.957 148.187 573.676 151.077 566.389 155.851C569.907 152.458 572.043 150.072 573.048 148.69C574.053 147.308 574.178 145.046 573.55 141.654C572.796 138.262 568.274 136.126 559.856 135.247C562.872 141.026 564.254 145.046 564.002 147.559C563.751 150.071 563.248 151.956 562.62 153.464C561.867 154.971 560.359 156.604 557.972 158.363C556.088 157.609 553.826 157.232 551.188 157.484C548.55 157.609 545.409 158.363 541.891 159.494C538.248 160.624 533.474 163.64 527.569 168.665C525.057 170.675 522.795 172.936 520.66 175.323C513.624 183.112 507.594 191.53 502.82 200.826C501.941 202.711 501.061 204.595 500.307 206.48C496.036 217.786 492.769 229.345 490.383 241.154L488.498 248.817L490.131 249.194C494.528 240.777 497.543 231.731 499.177 221.932C499.554 219.294 500.307 217.033 501.438 215.399L508.222 218.038L509.478 214.897L502.82 210.751L510.986 196.304C511.489 196.681 512.117 197.183 512.745 197.686C512.87 197.811 512.996 197.937 513.247 198.062C514.755 199.193 516.514 199.319 518.398 198.691L518.901 197.057L513.122 192.66C514.252 190.776 515.257 189.143 516.262 187.635Z" fill="#2F3C4D"/>
<path d="M292.963 236.296C307.482 249.852 319.26 241.926 324.519 224C329.556 225.333 334.667 226.741 339.704 228.074C342.889 228.963 350.074 229.556 352.445 231.852C354.223 233.63 355.186 243.259 353.852 245.482C351.037 250.148 347.63 245.556 342.963 247.852C336 251.185 346.593 259.704 349.63 264.667C355.63 274.519 360.593 284.963 364.223 295.778C345.926 303.556 326.371 309.852 307.111 314.815C304.371 302.889 303.704 291.407 302.593 279.185C302.371 276.667 304.371 266.222 300 266.815C295.26 267.407 294.371 275.778 289.037 276.148C285.408 276.37 272.963 263.482 272.741 271.704C272.593 279.556 293.185 286.667 296.815 278.37C297.334 285.704 298.148 293.037 299.185 300.296C299.852 304.667 299.852 316.519 303.111 319.778C308.741 325.259 333.408 313.926 340.223 311.333C346.593 308.963 352.741 305.926 359.111 303.556C365.704 301.037 372 298.37 370.297 294.296C364.815 281.111 356.593 265.037 348.741 253.333C357.556 252.593 358.963 254.667 359.334 245.185C359.556 238.741 363.26 232.296 356.963 228.37C350.297 224.222 337.778 222.519 330 220.741C328 220.296 323.334 218.519 321.185 220.222C318.593 222.37 320.074 225.704 319.408 228.519C318.074 234.296 313.704 238.667 306.889 238.37C300.593 238.074 298.889 231.111 293.482 231.037C284.815 230.889 275.852 257.556 274.148 264.445C278.297 266 290 240.296 292.963 236.296Z" fill="#2F3C4D"/>
<path d="M422.37 214.852C422.148 213.222 421.407 212.037 420 211.37C404.444 202.407 389.481 200.259 375.111 204.926C380.074 199.963 385.111 195.222 390.148 190.703C395.185 186.111 397.259 181.889 396.444 177.889C395.555 173.814 392.518 165.889 387.259 154.259C382.074 142.555 392.444 135.74 418.518 133.814L412.74 147.592C411.481 152.629 413.259 153.814 418.222 151.148C423.185 148.555 427.852 146.111 432.148 143.814C429.333 148.111 427.111 151.518 425.555 154.111C423.926 156.703 423.629 158.629 424.666 159.814C425.629 161 432.074 159.148 444.148 154.259C441.555 174.407 434.963 184.777 424.296 185.444C413.555 186.037 404.889 184.926 398.148 182.111C408.074 190.185 418.74 193.148 430.148 191C443.629 188.407 449.481 174.777 447.778 150.185C443.037 151.148 437.333 152.629 430.518 154.481C435.111 147.444 437.333 143.074 437.185 141.148C437.111 139.296 435.111 139.074 431.333 140.629L418.222 145.889L423.926 129C419.333 128.555 409.037 130.259 392.963 134.111C376.889 137.963 376.592 152.629 392 178.185L371.555 201.444C373.259 196.481 372.889 190.259 370.296 182.851C368.444 178.481 366.148 174.333 363.481 170.481C360.889 166.629 358 163.814 354.815 162.111C354.518 161.963 354.148 161.814 353.778 161.814C345.407 175.963 346.074 192.037 355.778 210.111C358.074 214.407 361.111 217.37 364.889 219.074C386.815 228.926 406 227.518 422.37 214.852ZM415.852 213.592C415.926 214.259 411.852 216.333 403.703 219.963C395.555 223.518 384 222.185 369.111 215.889C381.037 206.407 396.666 205.666 415.852 213.592ZM354.518 169.37C354.815 167.074 357.703 170.111 363.037 178.555C368.37 187 368.37 197.963 362.889 211.518L360.148 206.555C351.629 193.148 349.703 180.777 354.518 169.37Z" fill="#2F3C4D"/>
<path d="M48.5928 659.407C52.9632 646.963 56.8891 634.444 60.6669 621.778C62.2965 616.37 63.2595 608.815 70.2965 608.963C75.778 609.037 80.815 612.741 85.2595 615.555C107.556 629.703 129.852 643.778 152.148 657.926C164.889 666 177.63 674 190.297 682C189.852 680.296 189.408 678.592 188.963 676.963C183.852 687.703 178.889 698.518 173.63 709.259C175.037 708.666 176.445 708.148 177.852 707.555C156.593 700.666 135.704 692.666 115.482 683.037C105.482 678.222 95.6299 673.185 85.9262 667.703C76.5928 662.444 67.5558 655.629 57.5558 651.629C54.9632 650.592 53.1854 654.37 54.9632 656.148C58.8891 660.148 63.7039 663.037 68.4447 666.074C73.1113 669.037 77.8521 671.926 82.6669 674.666C92.4447 680.296 102.519 685.629 112.741 690.444C133.111 700.148 154.222 708.444 175.852 714.815C177.334 715.259 179.408 714.592 180.074 713.111C185.037 702.296 190.222 691.555 195.334 680.815C196.222 678.963 195.852 676.889 194 675.778C169.408 660.222 144.741 644.741 120.148 629.259C113.852 625.333 107.63 621.407 101.334 617.407C95.4076 613.703 89.5558 609.481 83.3336 606.222C78.8891 603.926 73.3336 601.629 68.2225 602.666C63.1113 603.703 59.5558 607.778 57.8521 612.444C55.1854 619.555 53.7039 627.333 51.8521 634.741C49.778 642.815 48.0743 650.889 46.3706 659.037C46.0743 660.296 48.0743 660.815 48.5928 659.407Z" fill="#2F3C4D"/>
<path d="M256.444 515.333C252.815 528 251.703 540.518 250.37 553.629C249.703 559.926 249.037 566.222 247.703 572.444C247.037 575.481 246.222 576.592 243.111 577.407C239.926 578.222 236.592 578.74 233.333 579.333C207.111 583.703 180.222 582 154.074 578.074C149.852 577.481 148.074 583.852 152.296 584.518C180.666 588.74 209.555 590.444 237.852 585.333C243.185 584.37 249.555 583.926 252.592 578.74C254.074 576.222 254.37 573.259 254.815 570.444C255.407 567.111 255.852 563.778 256.222 560.444C257.037 553.555 257.259 546.666 258.074 539.778C258.963 532.148 260.666 524.592 262.741 517.259C264.074 512.963 257.629 511.185 256.444 515.333Z" fill="#2F3C4D"/>
<path d="M139.037 492.963C142.074 468.963 142.667 444.814 145.852 420.814C147.408 408.889 149.556 397.111 151.185 385.185C152.741 374.074 154.371 362.889 156.889 351.926C157.852 347.703 158.445 342.518 162.593 340.148C166.667 337.852 172.148 337.852 176.667 337.407C188.593 336.296 200.593 336.444 212.519 337.259C224.889 338.148 237.111 339.703 249.408 341.555C255.111 342.37 260.148 344.222 265.482 346.296C270.222 348.148 273.556 349.481 275.185 354.592C277.037 360.296 276 366.444 275.408 372.222C274.815 378.889 274 385.555 273.111 392.222C271.334 405.926 269.334 419.555 267.852 433.333C267.408 437.629 274.074 437.555 274.519 433.333C275.926 420.074 277.852 406.889 279.556 393.629C280.371 387.185 281.185 380.814 281.778 374.37C282.371 368.518 283.259 362.518 282.371 356.666C281.704 352.444 280.148 348.148 277.185 345.037C273.63 341.333 268 340.074 263.334 338.296C251.408 333.703 237.778 332.963 225.111 331.629C212.222 330.222 199.334 329.481 186.371 330C179.926 330.222 173.482 330.74 167.111 331.703C163.259 332.296 159.408 333.481 156.445 336.148C152.667 339.555 151.556 344.592 150.445 349.333C149.037 355.407 147.852 361.629 146.815 367.777C144.889 379.852 143.482 392.074 141.556 404.148C139.259 418.74 137.408 433.333 136.222 448.074C135.037 462.963 134.074 477.926 132.222 492.74C131.778 497.185 138.445 497.111 139.037 492.963Z" fill="#2F3C4D"/>
<path d="M179.556 338.222C175.482 342.667 180.667 347.407 184.963 348.592C194 351.111 204.074 351.407 213.334 352.593C223.037 353.852 232.741 355.037 242.445 356.222C245.926 356.667 248.815 356.889 251.26 354.074C253.778 351.185 256.741 347.555 258 343.926C258.519 342.518 256.593 340.889 255.26 341.852C253.186 343.407 251.852 345.481 250.371 347.555C249.111 349.333 248.074 351.555 245.704 351.926C244.519 352.148 242.963 351.63 241.704 351.407C234.667 350.518 227.63 349.704 220.593 348.889C213.778 348.074 207.037 347.259 200.223 346.444C196.815 346.074 193.408 345.704 190 345.333C187.185 345.037 177.334 344.741 180.889 339.259C181.556 338.444 180.223 337.481 179.556 338.222Z" fill="#2F3C4D"/>
<path d="M89.0369 606.666C89.8517 589.259 86.148 572.296 81.7776 555.555C77.5554 539.259 72.2961 522.222 75.0369 505.259C77.7036 488.815 89.0369 475.926 95.9258 461.185C96.9628 459.037 98.5184 457.481 99.4813 455.259C100.148 453.778 100.741 452.296 101.407 450.815C103.111 446.741 104.592 442.666 105.852 438.444C106.963 434.592 107.555 430.741 108.296 426.815C108.741 424.148 109.704 422 109.926 419.185C110.518 410.963 109.926 396.222 119.481 392.741C135.704 386.815 134.444 418.592 133.555 427.037C132.667 435.926 130.37 444.741 127.704 453.259C125.555 460.148 122.444 466.963 121.926 474.222C121.111 485.481 126.889 495.407 133.481 504.074C141.629 514.741 151.629 524.815 153.778 538.666C155.259 548.148 150.963 557.704 146.592 565.852C142.296 573.926 136.815 581.185 130.444 587.704C127.407 590.741 132.148 595.481 135.185 592.444C146.592 580.963 157.259 565.259 160.222 549.037C162.889 534.296 155.481 521.185 146.741 510C139.704 501.037 130.518 491.703 128.815 479.926C127.778 472.518 130.741 465.852 132.963 459.037C135.852 450.222 138.37 441.259 139.704 432C141.037 422.889 141.185 413.778 139.629 404.741C138.518 398.148 136.37 391.111 130.37 387.333C125.259 384.148 118.444 385.037 113.629 388.37C109.259 391.407 106.889 396.222 105.555 401.185C104.148 406.666 103.852 412.37 103.481 417.926C103.259 420.889 102.222 423.333 101.852 426.296C101.259 430.666 100.148 434.963 98.8147 439.111C93.3332 456.148 82.5184 470.444 74.5184 486.296C65.4073 504.222 67.0369 524.518 71.9258 543.407C77.2591 564.148 83.6295 584.889 82.5924 606.518C82.148 610.963 88.8147 610.963 89.0369 606.666Z" fill="#2F3C4D"/>
<path d="M285.038 427.037C275.112 428.592 265.26 434.518 257.038 440C249.186 445.185 239.186 451.629 235.334 460.518C231.704 468.889 236.371 477.037 244.445 480.296C254.223 484.222 264.149 479.777 273.778 477.703C272.815 475.481 271.852 473.185 270.963 470.963C265.26 475.333 259.556 479.629 253.926 484C249.482 487.481 245.112 491.037 241.63 495.555C235.778 503.037 231.63 517.852 243.26 522.518C248.149 524.444 253.63 522.963 258.223 520.889C264.297 518.222 269.852 514.444 275.186 510.592C283.556 504.592 294.001 497.259 296.445 486.518C298.741 476.37 291.038 464.444 280 466.296C276.963 466.814 277.852 471.407 280.667 471.481C285.334 471.555 288.889 474.814 290.741 478.963C293.038 484.148 291.482 490.074 288.075 494.37C280.815 503.555 268.815 508.666 258.593 513.777C255.112 515.481 247.112 519.481 244.075 515.037C241.186 510.814 244.445 504.074 247.037 500.592C250.223 496.222 254.667 492.74 258.889 489.481C264.149 485.407 269.408 481.407 274.667 477.407C277.926 474.963 276.149 469.703 271.852 470.666C264.371 472.222 256 476.296 248.297 473.777C245.482 472.888 242.371 471.037 241.63 468C240.667 464.074 243.704 460.37 246.223 457.777C251.852 452 258.297 446.888 265.038 442.444C271.926 437.851 279.408 434.37 286.149 429.629C287.408 428.592 286.593 426.814 285.038 427.037Z" fill="#2F3C4D"/>
<path d="M280.741 468.074C288.667 463.482 297.038 457.111 300.075 448.074C302.149 442 302.001 428.222 293.186 427.556C291.26 427.407 290.149 429.407 290.519 431.111C291.112 433.926 293.704 436 294.519 438.963C295.408 442.074 295.186 445.407 294.223 448.519C291.852 456.074 285.038 461.185 279.63 466.519C278.741 467.333 279.778 468.667 280.741 468.074Z" fill="#2F3C4D"/>
<path d="M165.778 659.11C164.741 657.036 168 653.925 169.186 652.518C171.334 649.925 173.482 647.333 175.556 644.666C179.482 639.777 183.556 634.962 187.778 630.222C191.926 625.481 196.223 620.814 200.593 616.296C202.815 613.999 204.963 611.777 207.26 609.555C209.63 607.185 212.593 604.74 213.926 601.703C214.889 599.555 213.26 595.999 210.371 597.11C206.889 598.444 204.223 601.333 201.556 603.925C198.815 606.666 196.149 609.407 193.556 612.148C188 618.073 182.593 624.147 177.482 630.444C174.445 634.222 152.519 657.703 164.667 660.592C165.482 660.814 166.149 659.925 165.778 659.11Z" fill="#2F3C4D"/>
<path d="M107.556 424.889C107.927 427.778 110.149 429.704 112.964 430.296C116.89 431.111 120.075 428.222 122.075 425.111C124.741 420.889 125.853 415.259 126.593 410.37C127.26 405.555 128.149 399.037 125.778 394.592C124.816 392.815 121.853 393.185 121.408 395.185C120.741 397.926 121.408 400.889 121.334 403.704C121.334 407.185 120.964 410.667 120.223 414.074C119.63 416.889 118.816 419.852 117.556 422.518C116.445 424.741 111.482 429.259 109.704 424.667C109.26 423.63 107.408 423.63 107.556 424.889Z" fill="#2F3C4D"/>
<path d="M245.482 473.555C253.778 477.037 262.593 471.333 266.371 463.851C268.445 459.851 269.556 454.296 267.408 450.074C265.482 446.296 259.704 442.444 255.63 445.259C253.482 446.74 254 449.555 256.297 450.518C257.704 451.111 259.185 450.963 260.445 451.703C262 452.666 263.185 454.888 263.408 456.666C263.778 459.481 262.889 462.74 261.482 465.111C258.297 470.444 251.778 473.851 245.63 472.444C245.037 472.37 244.889 473.259 245.482 473.555Z" fill="#2F3C4D"/>
<path d="M244.518 500.148C247.185 497.703 250.296 495.555 253.259 493.555C256.518 491.333 261.481 488.148 263.407 493.407C265.778 499.851 262.222 507.185 260.518 513.259C260.074 514.815 262 515.777 263.111 514.74C269.259 509.185 272.148 495.259 266.074 488.592C258.444 480.222 247.926 493.703 243.556 499.111C242.963 499.851 243.778 500.814 244.518 500.148Z" fill="#2F3C4D"/>
<path d="M276.741 511.407C280.444 509.777 288.963 506.666 290.741 512.666C291.852 516.518 284.592 522.518 282 524.74C278.222 528.073 274 530.74 269.555 532.888C265.407 534.888 260.518 535.925 257.185 539.185C256.074 540.296 256.741 541.999 258.074 542.518C264.666 544.888 273.037 540.222 278.518 536.888C284.889 532.962 290.444 527.851 294.889 521.851C299.259 515.999 299.629 508.592 292.592 504.518C286.444 500.888 278.666 504.147 275.481 510.073C274.889 511.036 275.852 511.851 276.741 511.407Z" fill="#2F3C4D"/>
<path d="M281.926 368.963C285.111 369.333 287.852 367.185 290.519 365.777C293.63 364.148 296.815 362.666 300.148 361.407C301.63 360.815 301.926 360.296 303.037 361.555C303.704 362.37 304.074 363.407 304.296 364.444C304.889 366.889 304.593 369.555 303.926 371.926C300.296 385.259 289.037 394.222 281.63 405.185C280.296 407.185 282.963 409.852 284.963 408.518C292.148 403.629 298.222 397.185 303.259 390.148C307.778 383.703 312.148 375.629 312.074 367.481C312.074 362.074 308.815 352.444 301.704 353.185C297.63 353.555 292.815 356.666 289.408 358.74C286.074 360.666 281.333 362.963 280.519 367.037C280.148 368.074 280.889 368.889 281.926 368.963Z" fill="#2F3C4D"/>
<path d="M257.408 541.482C263.556 540.593 272.889 538.889 273.852 531.259C274.445 526.445 270.074 518.667 264.519 522.296C263.556 522.889 263.852 524.593 265.111 524.593C269.704 524.445 272.445 529.926 270.074 533.778C267.482 538.148 261.63 539.482 257.037 540.445C256.371 540.593 256.667 541.556 257.408 541.482Z" fill="#2F3C4D"/>
<path d="M164.592 675.777C160.889 676.666 157.926 680.296 158.889 684.222C160 688.592 165.185 689.851 168.815 687.851C172.592 685.777 173.777 681.036 170.889 677.703C168.222 674.74 162.37 673.629 160.074 677.555C158.963 679.555 161.185 681.481 163.037 680.518C164.444 679.851 166.222 679.555 167.333 680.814C168.444 681.999 167.629 683.407 166.296 683.999C164.815 684.666 163.333 684.222 162.815 682.592C162.148 680.444 162.963 677.629 164.815 676.444C165.333 676.296 165.111 675.629 164.592 675.777Z" fill="#2F3C4D"/>
<path d="M338 345.704C371.926 317.926 415.185 298.296 459.704 300.518C472.815 301.185 485.037 304.667 497.704 307.555C500.297 308.148 502.074 304.518 499.556 303.111C489.334 297.481 477.111 295.333 465.63 294.222C453.852 293.037 442 293.629 430.371 295.407C407.482 298.889 385.704 307.778 366.222 320.148C355.334 327.037 345.778 335.333 336.371 344.148C335.259 345.111 336.889 346.666 338 345.704Z" fill="#2F3C4D"/>
<path d="M391.111 290.444C403.703 281.926 418.666 276.37 433.481 273.259C440.815 271.703 448.296 270.889 455.778 270.518C463.629 270.148 471.333 270.666 479.185 270.741C482.296 270.741 482.889 266.222 479.926 265.333C464.815 260.963 447.333 262.815 432.222 266.444C416.296 270.222 402.148 277.259 388.666 286.37C386.148 288 388.518 292.148 391.111 290.444Z" fill="#2F3C4D"/>
<path d="M372.815 118.222C381.852 110.445 392.519 104.667 403.926 101.259C409.407 99.6298 414.963 98.3706 420.667 97.778C426.667 97.1113 432.741 97.6298 438.741 96.9632C441.852 96.6669 442.889 92.2224 439.481 91.2595C433.481 89.5558 426.815 90.0743 420.667 90.741C414.148 91.4817 407.778 92.8891 401.556 95.1113C389.482 99.3335 378.593 106 369.185 114.593C366.741 116.889 370.37 120.371 372.815 118.222Z" fill="#2F3C4D"/>
<path d="M588.297 121.777C606.963 125.926 625.408 132.37 642.445 140.963C650.889 145.185 659.111 149.926 667.037 155.185C674.889 160.37 682.371 166 690 171.555C691.482 172.666 693.037 170.37 691.926 169.111C678.815 155.259 661.63 144.444 644.519 136.296C626.889 127.926 608.445 122 589.111 118.889C587.26 118.592 586.371 121.333 588.297 121.777Z" fill="#2F3C4D"/>
<path d="M617.629 282.741C625.704 291.704 633.333 301.334 639.704 311.63C642.741 316.519 645.555 321.482 648.074 326.667C650.741 332.149 652.815 337.926 655.555 343.408C656.889 346.074 660.741 344.149 660.222 341.482C657.852 329.704 651.185 318 644.518 308.149C637.481 297.778 629.333 288.741 619.555 280.963C618.148 279.926 616.518 281.482 617.629 282.741Z" fill="#2F3C4D"/>
<path d="M645.555 282.444C652.444 290.074 658.963 298.148 664.296 306.963C669.481 315.555 673.185 324.74 677.481 333.778C678.296 335.481 680.666 334.222 680.37 332.592C678.444 322.444 673.481 312.74 667.852 304.222C662.074 295.407 655.259 287.555 647.111 280.963C646 280.148 644.592 281.481 645.555 282.444Z" fill="#2F3C4D"/>
<path d="M217.777 320.074C219.111 317.037 220.963 314.37 222.592 311.555C224.222 308.666 225.851 305.852 227.629 303.037C230.963 297.777 234.222 292.592 237.926 287.555C245.555 277.111 254.148 267.037 263.037 257.703C264.666 256 262.296 253.852 260.518 255.185C255.259 259.259 250.148 263.481 245.629 268.444C241.259 273.259 237.259 278.296 233.555 283.629C229.777 289.037 226.222 294.666 223.333 300.592C221.851 303.555 220.518 306.592 219.185 309.629C217.851 312.74 217.185 316 215.851 319.111C215.407 320.222 217.259 321.333 217.777 320.074Z" fill="#2F3C4D"/>
<path d="M343.111 99.7037C355.333 91.7037 368.444 84.5925 382.222 79.7036C396.074 74.8147 410.444 72.6666 424.815 70.3703C427.185 69.9999 426.222 66.8147 424.296 66.5184C409.111 64.5925 393.333 67.8518 379.037 73.037C364.666 78.2962 351.629 85.9259 340.666 96.6666C339.259 98.2222 341.259 100.963 343.111 99.7037Z" fill="#2F3C4D"/>
<path d="M468.741 496.148C464.592 506.37 460.37 516.444 457.63 527.185C454.815 538.074 453.259 549.185 451.704 560.296C447.778 587.926 444.815 615.704 441.778 643.481C440 659.333 438.444 675.185 437.037 691.037C436.815 693.111 438.889 694.667 440.741 694.741C504.444 697.852 568.37 698.889 632.148 699.704C648.148 699.926 664.148 700.074 680.222 700.148C688.074 700.222 696 700.222 703.852 700.222C711.185 700.222 719.037 701.111 726.296 700C733.555 698.963 734.592 692.963 734.741 686.741C734.889 678.889 734.963 671.037 735.111 663.185C735.333 647.259 735.63 631.259 735.852 615.333C736.148 597.704 736.296 580 736.518 562.37C736.741 544.222 736.444 526 737.407 507.926C737.481 506.518 736.296 504.815 734.815 504.593C719.037 501.852 703.037 500.815 687.111 499.555C671.037 498.296 654.889 497.111 638.815 496.074C606.37 493.926 573.852 492.296 541.333 491.185C522.963 490.518 504.667 490.074 486.296 489.704C480.667 489.63 480.667 498.37 486.296 498.444C550.889 499.555 615.407 502.592 679.852 507.63C697.852 509.037 715.926 511.111 733.926 511.481C732.741 510.296 731.63 509.185 730.444 508C730.741 523.407 729.926 538.963 729.63 554.37C729.259 569.555 728.889 584.815 728.592 600C728.222 615.481 727.926 630.889 727.63 646.37C727.481 653.704 727.333 661.111 727.185 668.444C727.111 672.37 727.037 676.296 726.963 680.222C726.963 681.926 726.889 683.63 726.889 685.407C726.889 686.963 727.259 689.63 726.667 691.111C725.778 693.407 720 692.37 717.926 692.37C714 692.37 710.074 692.37 706.074 692.296C698.444 692.296 690.815 692.222 683.185 692.148C667.926 692 652.667 691.926 637.333 691.704C606.518 691.333 575.704 690.815 544.963 690.148C510.222 689.333 475.481 688.222 440.815 687.407C442.074 688.667 443.259 689.852 444.518 691.111C446.296 663.481 448.592 636 451.555 608.518C454.296 583.037 456.667 557.185 461.407 531.926C463.63 520 467.185 508.296 471.259 496.889C471.778 495.259 469.333 494.667 468.741 496.148Z" fill="#2F3C4D"/>
<path d="M474.445 491.407C487.482 481.704 500.148 471.481 512.815 461.259C518.667 456.518 525.26 449.778 533.186 449.259C541.186 448.741 549.111 449.111 557.111 449.407C590.297 450.741 623.408 452.444 656.519 455.333C665.778 456.148 674.963 457.037 684.223 457.926C694.074 458.963 704.074 459.629 713.852 461.259C713.037 460.444 712.223 459.629 711.408 458.815C715.778 472.667 722.741 487.111 731.26 498.889C734 502.667 740 499.407 737.63 495.185C734.074 488.741 730.223 482.592 726.889 476C723.63 469.481 720.815 462.741 717.778 456.148C717.26 455.037 715.926 454.518 714.741 454.444C697.482 453.259 680.297 450.666 663.037 449.111C645.778 447.555 628.519 446.222 611.186 445.185C593.926 444.074 576.593 443.185 559.26 442.741C551.482 442.518 543.186 441.629 535.482 442.889C528.445 444 521.852 448.148 516.371 452.592C501.63 464.592 487.26 477.259 473.26 490.148C472.667 490.667 473.63 492 474.445 491.407Z" fill="#2F3C4D"/>
<path d="M530.148 493.63C536.963 485.852 543.926 478.222 550.815 470.444C554.074 466.741 557.407 463.111 560.667 459.407C563.926 455.704 568 451.926 570.37 447.63C571.111 446.296 569.556 444.37 568.148 445.407C564.37 448.222 561.333 452.37 558.296 455.926C554.889 459.852 551.556 463.778 548.222 467.704C541.481 475.556 534.889 483.556 528.074 491.407C526.667 492.963 528.889 495.185 530.148 493.63Z" fill="#2F3C4D"/>
<path d="M593.408 496.222C599.037 490.222 603.185 483.036 606.963 475.777C610.741 468.37 614.074 460.962 615.259 452.666C615.556 450.518 612.667 448.74 611.408 451.036C607.704 457.999 604.963 465.407 601.408 472.518C597.852 479.703 593.556 486.37 589.852 493.481C588.815 495.629 591.63 498.148 593.408 496.222Z" fill="#2F3C4D"/>
<path d="M659.482 449.259C659.852 457.63 662.149 466 664.297 474C665.408 478.148 666.593 482.222 667.852 486.297C669.112 490.222 669.778 494.074 673.112 496.667C673.926 497.334 675.408 497.259 675.704 496C676.593 492.074 675.112 489.111 673.852 485.408C672.371 481.185 670.963 476.889 669.556 472.593C666.963 464.667 664.963 456.371 661.63 448.667C661.111 447.63 659.408 448.222 659.482 449.259Z" fill="#2F3C4D"/>
<path d="M479.186 492.593C472.963 497.333 471.186 505.852 475.186 512.741C478.963 519.111 486.149 522.296 493.26 522.889C512.667 524.444 524 507.63 533.556 493.481C531.778 492.444 530.075 491.407 528.297 490.37C524 497.852 525.704 507.852 530.445 514.741C535.852 522.593 544.297 526.815 553.63 527.704C574.519 529.555 591.334 513.926 599.852 496.37C598.149 495.407 596.519 494.444 594.815 493.407C592.963 497.111 591.704 500.593 592.149 504.741C592.593 508.815 594.149 512.815 596.371 516.222C601.112 523.333 608.371 528.222 616.519 530.667C631.704 535.259 648.889 530.963 661.334 521.481C667.852 516.518 674.741 509.037 676.075 500.667C676.445 498.148 673.186 496.296 671.704 498.815C667.408 506 663.556 512.593 656.445 517.481C649.704 522.148 641.556 524.963 633.334 525.407C625.186 525.852 616.445 524.222 609.63 519.481C603.112 514.963 595.408 504.593 599.926 496.296C601.704 493.037 596.889 490.222 594.889 493.333C586.519 506.518 574.371 519.259 557.778 519.926C542.371 520.518 529.778 508.296 533.926 492.667C534.815 489.333 530.149 487.333 528.371 490.296C521.63 501.407 512.223 515.259 498.075 516.518C492.593 517.037 486.519 515.926 482.371 512.074C477.334 507.407 476.667 499.259 480.371 493.704C480.815 493.111 479.926 492.074 479.186 492.593Z" fill="#2F3C4D"/>
<path d="M670.815 501.259C664.593 518.963 681.408 534.148 697.926 535.407C705.704 536 714 534 720.371 529.407C727.704 524.222 734.889 514.815 737.037 506C737.556 503.704 734.667 501.704 732.889 503.63C727.63 509.407 725.037 517.037 718.963 522.37C713.852 526.889 707.111 529.037 700.445 529.111C694.074 529.185 687.482 527.259 682.667 522.963C676.667 517.63 674.074 509.407 673.334 501.63C673.185 500.148 671.334 499.852 670.815 501.259Z" fill="#2F3C4D"/>
<path d="M508.963 692.667C512.963 683.333 514.148 672.37 516.148 662.444C514.815 663.185 513.482 663.926 512.222 664.666C560.371 671.481 609.259 668.37 657.63 671.704C656.519 670.592 655.482 669.555 654.371 668.444C654.445 673.407 654.074 678.37 654.593 683.333C654.963 687.481 660.815 687.555 661.111 683.333C661.408 678.37 660.889 673.407 660.889 668.444C660.889 666.592 659.408 665.333 657.63 665.185C609.482 661.333 561.111 663.481 513.111 658.296C511.852 658.148 510.222 659.407 510 660.666C509.111 665.926 508.222 671.259 507.408 676.518C506.667 681.481 505.556 686.592 505.778 691.63C505.704 693.333 508.222 694.37 508.963 692.667Z" fill="#2F3C4D"/>
<path d="M481.704 556.963C477.778 557.185 475.852 560.667 475.259 564.222C474.148 570.963 474.222 578.074 473.778 584.889C473.333 592.148 473.111 599.407 472.815 606.593C472.667 610.222 472.518 613.852 472.37 617.481C472.222 620.815 471.481 624.889 472.148 628.074C472.592 630.296 474 631.407 476.222 631.926C479.704 632.667 483.481 632.815 486.963 633.185C494.222 634.074 501.555 635.333 508.815 635.778C515.704 636.148 515.926 630.296 516.592 624.963C517.407 617.63 518.296 610.37 519.111 603.037C521.037 586 522.592 568.889 524.741 551.926C524.889 550.666 523.407 549.259 522.222 549.407C515.926 550.148 509.481 550.37 503.111 551.259C496.741 552.074 490.222 552.815 483.926 554.296C479.704 555.259 480.518 562.444 484.963 562C491.333 561.407 497.629 560.074 503.926 558.889C510.37 557.629 516.592 555.778 522.889 554.444C521.852 553.629 520.741 552.815 519.704 552C517.629 570.815 514.963 589.481 512.666 608.222C512.074 612.815 511.555 617.481 510.963 622.074C510.741 624.074 510.889 626.889 510.148 628.741C509.629 629.926 509.704 629.704 508.444 629.704C507.259 629.704 506.074 629.407 504.889 629.259C500.37 628.741 495.852 628.222 491.333 627.704C488.963 627.407 486.592 627.185 484.222 626.889C482.222 626.667 478.741 626.963 476.963 625.852C477.407 626.444 477.852 627.037 478.37 627.63C477.481 625.407 478.37 621.333 478.444 618.963C478.518 616.074 478.592 613.185 478.667 610.296C478.815 604.296 478.963 598.222 479.037 592.222C479.185 586.444 479.111 580.667 479.111 574.815C479.111 571.407 477.333 560.444 482.074 559.555C483.407 559.185 483.111 556.889 481.704 556.963Z" fill="#2F3C4D"/>
<path d="M660.74 564.889C657.777 589.926 656.963 615.185 655.481 640.37C655.407 641.704 656.518 643.259 657.851 643.482C669.925 645.63 682 647.778 694.148 649.704C698.222 650.37 704.37 652.519 707.481 648.593C710.296 645.037 709.037 638.148 708.963 633.926C708.666 609.185 706.37 584.222 707.926 559.482C708 558.444 707.037 557.111 706 556.889C693.185 554.667 679.555 553.926 666.74 556.667C662.666 557.556 663.629 563.778 667.703 563.852C680.222 563.926 692.814 562.667 705.333 562.148C704.444 561.259 703.555 560.37 702.666 559.482C704.074 581.037 702.222 602.741 701.925 624.296C701.851 629.704 701.777 635.111 701.777 640.519C701.777 641.482 702.148 643.037 701.777 643.926C701.703 644.593 701.777 644.519 701.925 643.704C701.481 643.63 700.963 643.556 700.518 643.482C697.926 642.519 694.444 642.519 691.777 642.148C681.111 640.519 670.37 638.889 659.629 637.259C660.444 638.296 661.185 639.333 662 640.37C663.111 615.259 664.814 590.074 664.296 564.889C664.296 562.593 661.037 562.741 660.74 564.889Z" fill="#2F3C4D"/>
<path d="M547.482 648.074C549.704 629.481 551.408 610.889 553.111 592.296C554 582.963 554.815 573.704 555.704 564.37C556.074 560.148 556.222 555.852 556.889 551.63C557.111 550.148 557.408 548.444 558.815 548.074C560.667 547.63 564 548.593 565.926 548.593C574.889 548.889 583.926 548.741 592.889 548.741C597.482 548.741 602.148 548.741 606.741 548.741C608.667 548.741 610.593 548.741 612.593 548.741C614.445 548.741 619.037 549.555 620.593 548.741C620.815 548.741 621.111 548.741 621.334 548.741C620.297 546.37 619.852 546 620.074 547.63C619.852 548.074 620 550.222 620 550.593C620 552.815 619.926 555.037 619.852 557.185C619.778 561.852 619.63 566.518 619.482 571.185C619.185 580.518 618.741 589.778 618.297 599.111C617.26 620.148 615.704 641.185 613.482 662.074C612.963 666.889 620.445 666.815 621.037 662.074C623.482 641.629 625.63 621.111 627.26 600.518C628.074 590.222 628.741 580 629.26 569.704C629.556 564.592 629.778 559.407 629.926 554.296C630.074 550.296 631.111 545.185 628.593 541.704C625.704 537.704 620.519 538.518 616.223 538.518C611.111 538.518 606 538.518 600.889 538.518C590.667 538.518 580.445 538.518 570.296 538.667C566.148 538.741 560.371 538.074 556.815 540.667C553.852 542.815 552.296 546 551.778 549.481C550.371 558.963 550.37 568.815 549.704 578.296C548.148 601.555 546.445 624.741 545.556 648C545.556 649.333 547.333 649.259 547.482 648.074Z" fill="#2F3C4D"/>
<path d="M220.148 641.259C222.37 647.703 223.778 654.296 226.296 660.592C228.592 666.222 231.259 671.703 234.592 676.815C240.666 686.074 248.518 693.778 257.555 700.296C277.555 714.666 302.074 721.111 326.518 721.926C341.555 722.444 357.555 721.037 372 716.592C375.037 715.629 374.666 710.37 371.185 710.74C358.518 712 346.148 713.703 333.407 713.852C320.741 714 308.074 712.74 295.852 709.481C275.481 704.074 256.592 693.037 242.963 676.815C238.889 671.926 235.629 666.518 232.592 660.889C229.111 654.37 225.703 647.407 223.259 640.444C222.666 638.444 219.481 639.259 220.148 641.259Z" fill="#2F3C4D"/>
<path d="M370.297 648.149C370 654.075 369.778 659.852 370 665.778C370.223 671.186 370 677.408 371.926 682.519C372.667 684.519 375.704 684.815 376.297 682.519C377.704 676.963 376.815 670.667 376.371 665.037C375.926 659.186 375.037 653.408 374.074 647.63C373.704 645.408 370.371 646.075 370.297 648.149Z" fill="#2F3C4D"/>
<path d="M357.777 666.593C363.111 666.297 368.37 665.63 373.703 665.63C378.666 665.556 383.852 666.371 388.74 665.482C390.074 665.26 390.296 663.111 389.111 662.593C384.37 660.297 378.814 660.371 373.703 660.667C368.148 660.963 362.592 661.852 357.481 663.926C356.074 664.445 356.074 666.667 357.777 666.593Z" fill="#2F3C4D"/>
<path d="M363.926 678.074C367.63 674.74 370.444 670.074 373.333 666.074C376.37 661.777 380 657.259 382.074 652.37C382.815 650.518 380.741 648.444 379.111 650.074C375.407 653.851 372.667 658.814 369.852 663.259C367.111 667.629 363.852 672.148 362.074 677.037C361.704 678.074 363.185 678.74 363.926 678.074Z" fill="#2F3C4D"/>
<path d="M358.444 656.223C362.593 661.26 369.111 665.334 374.667 668.667C380.518 672.149 386.963 674.963 393.63 676.297C394.741 676.519 395.63 674.889 394.444 674.297C388.444 671.334 382.37 668.593 376.593 665.26C370.741 661.852 365.926 657.334 360.444 653.556C358.815 652.371 357.333 654.815 358.444 656.223Z" fill="#2F3C4D"/>
<path d="M108.296 263.26C109.407 270.149 110.37 277.186 111.185 284.149C111.926 290.371 111.852 296.815 113.333 302.889C113.63 304.223 115.407 303.778 115.555 302.593C116.37 296.149 115.037 289.334 114.148 282.963C113.185 276.149 111.778 269.408 110.074 262.741C109.852 261.556 108.148 262.075 108.296 263.26Z" fill="#2F3C4D"/>
<path d="M92.1482 274.148C98.4445 276.962 104.815 279.333 110.963 282.37C116.741 285.259 122.296 289.407 128.593 291.185C130.074 291.629 130.963 289.777 130.074 288.666C125.704 283.555 118.741 280.74 112.741 278.073C106.519 275.259 100.074 272.666 93.4075 271.259C91.7038 270.888 90.4445 273.333 92.1482 274.148Z" fill="#2F3C4D"/>
<path d="M95.4071 299.852C102.889 294.445 108.444 285.852 113.926 278.519C116.889 274.519 119.926 270.445 122.592 266.223C124.963 262.371 128 258 128.74 253.482C128.963 252.149 127.481 250.445 126.148 251.482C122.666 254.149 120.296 258.223 117.777 261.778C114.963 265.63 112.518 269.778 109.852 273.704C107.185 277.704 104.444 281.556 101.703 285.482C98.8145 289.482 95.6293 293.482 93.6293 298C93.0367 299.111 94.2219 300.741 95.4071 299.852Z" fill="#2F3C4D"/>
<path d="M464.149 335.037C463.408 344.444 462.741 353.852 462.297 363.259C462.074 367.852 461.778 372.444 461.63 377.037C461.482 380.889 460.889 386 463.112 389.407C463.778 390.444 465.037 390.37 465.778 389.407C468.223 386.148 467.926 380.963 468 377.037C468.149 372.444 468.148 367.852 468.223 363.259C468.371 353.852 468.371 344.444 468.223 335.037C468.223 332.37 464.371 332.444 464.149 335.037Z" fill="#2F3C4D"/>
<path d="M442.296 352.37C444.666 355.259 448.518 356.963 451.704 358.815C455.259 360.889 458.963 362.889 462.518 364.889C469.185 368.592 476.444 373.852 483.926 375.555C485.778 376 487.333 373.703 485.852 372.222C480.222 366.666 471.629 363.259 464.741 359.555C461.111 357.629 457.481 355.555 453.778 353.703C450.518 352 447.111 349.852 443.407 349.407C441.852 349.333 441.481 351.407 442.296 352.37Z" fill="#2F3C4D"/>
<path d="M448.222 383.852C451.407 380.963 454 377.111 456.741 373.778C459.407 370.519 462.148 367.333 464.963 364.222C470.444 358.148 477.407 352.593 482 345.778C482.963 344.296 481.037 342.593 479.63 343.407C472.444 347.556 466.518 355.111 461.185 361.407C458.444 364.593 455.778 367.852 453.185 371.185C450.593 374.519 447.556 378.148 445.852 382.074C445.259 383.556 446.889 385.037 448.222 383.852Z" fill="#2F3C4D"/>
<path d="M437.777 374.593C455.037 368.889 472.444 363.63 489.629 357.778C491.333 357.185 490.592 354.889 488.888 355.185C471.037 358.371 453.185 364.593 436.74 372.222C435.481 372.889 436.37 375.037 437.777 374.593Z" fill="#2F3C4D"/>
<path d="M201.111 705.407C224.074 731.778 256.963 748.296 290.741 756.074C328.963 764.815 368.445 762.889 406.741 755.777C430.297 751.407 453.852 744.963 476.074 736C478.148 735.185 477.408 732.074 475.111 732.592C455.037 737.037 435.26 742.296 415.111 746.592C394.963 750.889 374.519 753.852 353.926 754.592C318.667 755.926 282.815 750.518 250.445 736C232.815 728.074 216.593 717.185 202.593 703.926C201.63 702.815 200.148 704.296 201.111 705.407Z" fill="#2F3C4D"/>
<path d="M529.555 409.926C538.444 406.296 545.259 398.444 550.518 390.592C549.259 390.074 548.074 389.555 546.815 389.037C544.296 396.074 541.703 414.592 554.814 411.926C554.074 410.222 553.333 408.444 552.592 406.74C544.592 410.666 537.852 418.37 536.296 427.333C538.222 427.629 540.222 427.852 542.148 428.148C542.666 423.259 543.037 418 540.666 413.481C538.815 410 535.555 406.815 531.407 407.259C529.629 407.481 528.592 409.852 530.444 410.889C533.111 412.37 535.333 414 536.296 417.037C537.333 420.296 536.814 424 536.37 427.407C535.852 431.111 540.963 432.815 542.148 428.963C544.444 421.481 548.518 415.481 555.555 411.703C558.444 410.148 556.444 405.778 553.333 406.518C547.629 407.852 550.37 392.666 550.74 390.148C551.111 387.555 547.852 386.666 546.815 389.037C543.259 397.778 536.518 403.481 529.185 408.889C528.666 409.259 528.889 410.222 529.555 409.926Z" fill="#2F3C4D"/>
<path d="M97.1847 200C107.851 197.777 115.629 185.851 118.888 176.37C119.851 173.703 115.555 172.518 114.592 175.185C111.407 184.592 114.222 195.111 121.555 201.703C121.703 200.444 121.851 199.259 122 198C111.481 202.592 107.703 213.703 105.555 224.148C106.888 224.296 108.222 224.518 109.555 224.666C109.703 218.963 110.296 213.407 109.333 207.777C108.518 203.259 106.592 197.333 102.444 194.963C101.037 194.148 99.481 195.777 100.222 197.185C101.259 198.963 102.666 200.444 103.629 202.37C104.74 204.666 105.407 207.185 105.703 209.703C106.37 214.444 106.222 219.555 105.555 224.222C105.185 226.74 108.666 227.851 109.481 225.333C112.37 216.814 115.481 206.148 124.37 202.148C125.703 201.555 125.925 199.407 124.814 198.444C118.518 192.888 116.222 184.444 118.74 176.444C117.333 176.074 115.925 175.629 114.444 175.259C112.888 180.296 110.444 185.037 106.962 189.111C103.777 192.814 99.7773 195.481 96.2958 198.888C95.9255 199.333 96.5181 200.148 97.1847 200Z" fill="#2F3C4D"/>
<path d="M576.148 41.3338C585.333 38.7412 590 31.482 592.37 22.6672C593.111 19.9264 588.963 17.9264 587.63 20.6672C585.704 24.5931 585.704 29.1116 587.185 33.1857C587.852 35.1116 588.889 36.8894 590.296 38.3709C591.704 39.9264 594.222 40.2227 595.407 41.7042C595.556 40.5931 595.704 39.482 595.852 38.2968C586.593 42.2227 580 52.9635 580.593 62.8894C581.852 62.7412 583.185 62.519 584.444 62.3709C583.556 58.2968 582.296 54.3709 580.741 50.5931C579.407 47.4079 578.074 43.6301 575.556 41.1116C574.222 39.7783 572 41.1116 572.445 42.8894C573.333 46.2968 575.482 49.3338 576.815 52.5931C578.296 56.1487 579.482 59.7783 580.519 63.4079C581.037 65.2598 583.852 65.3338 584.37 63.4079C585.407 59.1116 586.889 54.8894 589.185 51.1116C591.556 47.2598 594.889 44.445 598.296 41.6301C599.852 40.3709 598.444 38.0005 596.741 37.9264C595.259 37.8524 592.593 32.445 592.074 31.1857C590.963 28.2227 591.259 25.482 592.148 22.519C590.444 22.2968 588.741 22.0746 587.037 21.8524C587.556 29.482 581.852 36.6672 575.63 40.2968C575.259 40.7412 575.556 41.482 576.148 41.3338Z" fill="#2F3C4D"/>
<path d="M67.1855 657.111C67.8522 655.408 68.593 653.704 69.2596 652.074C74.0004 640.445 78.7411 628.815 85.2596 618.074" stroke="#3C3C3B" stroke-width="2" stroke-miterlimit="10" stroke-dasharray="12 12"/>
<path d="M85.5557 672.815C92.0742 657.111 100.222 642.074 109.852 628.074" stroke="#3C3C3B" stroke-width="2" stroke-miterlimit="10" stroke-dasharray="12 12"/>
<path d="M110.37 682.963C115.778 669.63 122.296 656.741 129.926 644.519" stroke="#3C3C3B" stroke-width="2" stroke-miterlimit="10" stroke-dasharray="12 12"/>
<path d="M132.519 695.852C135.556 694.592 137.111 691.185 138.444 688.148C143.852 675.777 150.444 663.851 158.074 652.74" stroke="#3C3C3B" stroke-width="2" stroke-miterlimit="10" stroke-dasharray="12 12"/>
<path d="M156.37 704.815C162.963 692.889 169.555 680.963 176.148 669.111" stroke="#3C3C3B" stroke-width="2" stroke-miterlimit="10" stroke-dasharray="12 12"/>
<path d="M57.7041 635.407C94.5189 657.852 132.297 678.592 171.037 697.481" stroke="#3C3C3B" stroke-width="2" stroke-miterlimit="10" stroke-dasharray="12 12"/>
<path d="M62.2227 615.481C104.519 636.889 146.815 658.222 189.112 679.63" stroke="#3C3C3B" stroke-width="2" stroke-miterlimit="10" stroke-dasharray="12 12"/>
<path fill-rule="evenodd" clip-rule="evenodd" d="M585.259 596.222C593.777 596.222 600.666 589.333 600.666 580.815C600.666 572.296 593.777 565.407 585.259 565.407C576.74 565.407 569.852 572.296 569.852 580.815C569.852 589.333 576.74 596.222 585.259 596.222ZM585.259 591.259C579.481 591.259 574.815 586.593 574.815 580.815H595.703C595.629 586.593 590.963 591.259 585.259 591.259Z" fill="#2F3C4D"/>
<path fill-rule="evenodd" clip-rule="evenodd" d="M198.074 474C216.667 475.926 233.334 462.37 235.259 443.778C237.185 425.185 223.63 408.518 205.037 406.592C186.445 404.667 169.778 418.222 167.852 436.815C165.926 455.407 179.408 472.074 198.074 474ZM199.185 463.037C186.593 461.704 177.482 450.444 178.741 437.926L224.297 442.667C223.037 455.185 211.778 464.37 199.185 463.037Z" fill="#2F3C4D"/>
</svg>
