<svg width="284" height="248" viewBox="0 0 284 248" fill="none" xmlns="http://www.w3.org/2000/svg">
<path d="M27.2277 49.0666C32.6585 40.4797 41.2365 34.3623 51.1229 32.0256C53.6059 31.4913 56.1264 31.1495 58.662 31.0032L67.8624 30.7475L86.263 30.1511L160.547 27.5524C161.26 27.6174 161.979 27.5331 162.658 27.3046C163.337 27.0762 163.961 26.7088 164.49 26.2257C165.019 25.7427 165.441 25.1547 165.73 24.4992C166.02 23.8437 166.169 23.1352 166.169 22.4188C166.169 21.7024 166.02 20.9938 165.73 20.3383C165.441 19.6828 165.019 19.0948 164.49 18.6118C163.961 18.1288 163.337 17.7613 162.658 17.5329C161.979 17.3045 161.26 17.2201 160.547 17.2852H159.652L85.3685 14.729L66.7975 14.2178C63.603 14.2178 60.8343 13.9622 57.299 14.0048C53.6379 14.0358 49.9876 14.4066 46.395 15.1125C35.3988 17.3599 25.3179 22.8237 17.4312 30.8106C9.5445 38.7974 4.20747 48.9474 2.0972 59.9728C1.40509 63.612 1.02039 67.3031 0.947164 71.0068V80.2942L0.521222 117.443C0.137876 142.323 -0.160283 166.479 0.0952807 192.04C0.382838 199.686 2.17486 207.2 5.36879 214.152C8.56272 221.104 13.0959 227.357 18.7089 232.555C29.971 242.871 44.8026 248.401 60.0676 247.977L134.394 246.912L171.536 246.103C178.471 246.252 185.393 245.449 192.109 243.717C199.084 241.711 205.597 238.352 211.276 233.833C222.627 224.851 229.962 211.74 231.679 197.366C232.107 190.883 232.107 184.379 231.679 177.896L230.955 159.322C231.021 158.591 230.934 157.855 230.699 157.159C230.465 156.464 230.088 155.825 229.593 155.284C229.098 154.742 228.496 154.31 227.825 154.014C227.154 153.718 226.428 153.565 225.694 153.565C224.961 153.565 224.235 153.718 223.564 154.014C222.893 154.31 222.291 154.742 221.796 155.284C221.301 155.825 220.924 156.464 220.69 157.159C220.455 157.855 220.368 158.591 220.434 159.322V160.174L219.71 178.748C219.73 184.593 219.317 190.431 218.475 196.215C216.367 206.641 210.248 215.821 201.437 221.777C197.182 224.694 192.39 226.735 187.339 227.784C181.893 228.686 176.356 228.915 170.855 228.465L133.713 227.613L59.3861 226.548C49.7055 226.575 40.3961 222.825 33.4364 216.095C26.4768 209.364 22.4157 200.185 22.1164 190.507L21.6905 116.464L21.2219 79.3143V70.0696C21.2071 67.6143 21.4066 65.1625 21.8182 62.742C22.7222 57.8771 24.5592 53.2332 27.2277 49.0666Z" fill="#243143"/>
<path d="M280.937 38.8L245.206 3.15622C244.21 2.15565 243.027 1.36188 241.726 0.820316C240.424 0.278748 239.028 0 237.619 0C236.21 0 234.814 0.278748 233.513 0.820316C232.211 1.36188 231.028 2.15565 230.032 3.15622C200.447 33.1855 171.216 63.4983 142.337 94.0947L111.862 65.3414L111.481 65.0437C110.193 63.8619 108.493 63.2353 106.749 63.299C105.005 63.3626 103.356 64.1114 102.156 65.384L71.4695 98.7734C70.5267 99.7562 70 101.067 70 102.431C70 103.796 70.5267 105.107 71.4695 106.089C70.5307 107.091 70.008 108.415 70.008 109.79C70.008 111.165 70.5307 112.488 71.4695 113.49L71.9781 114.086L136.573 183.417C137.317 184.207 138.21 184.842 139.199 185.285C140.189 185.727 141.256 185.97 142.339 185.997C143.422 186.025 144.5 185.838 145.511 185.446C146.522 185.054 147.445 184.466 148.229 183.715L148.61 183.374C193.284 140.84 237.379 97.7526 280.894 54.1124C282.879 52.0637 283.992 49.3217 284 46.4648C284.008 43.6079 282.91 40.8597 280.937 38.8Z" fill="#243143"/>
</svg>
