<svg width="280" height="279" viewBox="0 0 280 279" fill="none" xmlns="http://www.w3.org/2000/svg">
<path d="M140.532 29.6617C140.476 27.0197 139.383 24.5069 137.489 22.6706C135.596 20.8343 133.056 19.8233 130.424 19.8578C117.798 19.8688 105.232 21.5824 93.0606 24.9524C81.0138 28.5903 69.5299 33.8927 58.9389 40.7072C37.5754 54.5912 20.7766 74.5032 10.6532 97.9412C0.529846 121.379 -2.46639 147.298 2.04098 172.44C6.50653 197.476 18.2202 220.637 35.7197 239.032C53.2192 257.427 75.7292 270.241 100.439 275.873C112.626 278.683 125.168 279.607 137.632 278.613C150.137 277.897 162.448 275.18 174.1 270.565C197.226 261.664 217.214 246.098 231.552 225.826C238.76 215.906 244.373 204.913 248.186 193.246C250.139 187.481 251.693 181.588 252.835 175.608L253.987 166.574C253.987 164.99 254.414 163.749 254.499 161.865C254.584 159.981 254.499 157.926 254.499 155.914C254.03 150.006 251.599 147.737 249.892 149.878C247.775 152.512 245.971 155.386 244.518 158.44V159.125C244.262 160.11 244.262 160.795 244.049 162.079L243.324 166.36C242.727 169.058 242.471 171.84 241.661 174.495C240.314 179.82 238.589 185.042 236.5 190.121C235.647 192.133 234.538 194.017 233.642 195.986C224.363 180.12 211.795 166.439 196.791 155.871L239.144 153.945C243.082 153.795 246.878 152.435 250.02 150.049C251.982 148.08 250.362 146.367 246.267 146.11H245.115C210.695 144.569 174.867 142.985 138.826 142.172L140.703 30.2183L140.532 29.6617ZM31.0444 106.509C38.8708 88.6418 51.2675 73.1708 66.9761 61.6666C82.6846 50.1625 101.146 43.0347 120.486 41.0069L122.277 149.792C93.8384 169.371 69.0378 193.801 49.001 221.973C35.5372 206.345 26.7157 187.237 23.5411 166.824C20.3665 146.41 22.9663 125.512 31.0444 106.509ZM104.321 256.694C87.2518 252.18 71.5313 243.57 58.5124 231.606C67.7464 224.991 76.5903 217.843 84.9994 210.2C97.9424 229.963 114.657 246.958 134.177 260.204C124.11 260.459 114.057 259.277 104.321 256.694ZM167.318 254.639C162.006 256.488 156.558 257.919 151.025 258.92C137.138 235.598 118.185 215.724 95.5771 200.781C104.334 191.888 112.525 182.45 120.102 172.525C139.278 200.289 163.363 224.289 191.161 243.336C183.697 248.057 175.691 251.852 167.318 254.639ZM227.031 207.546C224.759 211.284 222.251 214.873 219.524 218.291C214.004 225.089 207.705 231.211 200.757 236.529C181.17 207.365 156.212 182.226 127.225 162.464C128.249 161.009 129.358 159.639 130.381 158.183C145.608 157.884 160.963 157.284 176.403 156.685C188.223 178.061 205.836 195.637 227.202 207.374L227.031 207.546Z" fill="#243143"/>
<path d="M172.906 7.78516V8.04203C169.034 39.1861 167.111 70.5431 167.148 101.929C167.148 103.399 167.439 104.855 168.005 106.212C168.57 107.569 169.399 108.799 170.443 109.83C171.487 110.862 172.725 111.676 174.085 112.223C175.445 112.77 176.9 113.04 178.365 113.017C209.737 113.02 241.078 111.032 272.2 107.066C273.138 107.066 273.949 104.711 273.949 101.929C276.721 101.929 279.067 101.329 279.195 100.516C281.031 86.9642 279.716 73.1697 275.353 60.2133C270.99 47.257 263.697 35.4907 254.046 25.8366C244.395 16.1824 232.647 8.90258 219.725 4.56751C206.802 0.232453 193.054 -1.04008 179.559 0.849622C178.749 0.849622 175 3.5 175 3.5C175 3.5 173.076 6.75767 172.906 7.78516Z" fill="#243143"/>
</svg>
