<svg width="682" height="682" viewBox="0 0 682 682" fill="none" xmlns="http://www.w3.org/2000/svg">
<g clip-path="url(#clip0)">
<path d="M136.826 102.135C134.048 103.551 132.129 105.715 131.197 108.68C129.605 113.395 129.494 118.18 130.805 123.04C130.987 123.78 131.281 124.384 131.636 124.985C132.479 126.3 132.834 127.654 132.826 129.1C127.218 126.657 121.408 125.549 115.337 125.782C114.665 125.836 114.002 126.014 113.411 126.313C109.843 127.854 107.913 130.648 107.676 134.626C107.593 135.889 108.049 136.984 109.107 137.905C112.809 141.129 117.11 142.609 121.959 142.473C119.66 146.05 117.555 149.738 115.71 153.593C115.02 154.967 115.359 156.134 116.717 156.969C119.373 158.642 121.86 160.518 124.113 162.538C129.284 167.216 134.399 171.961 139.397 176.778C140.729 178.055 142.241 178.5 143.948 178.301C146.199 177.995 148.37 177.445 150.327 176.535C153.238 175.234 156.077 173.814 158.779 172.216C163.485 169.515 168.434 167.549 173.677 166.188C174.406 166.067 175.124 165.822 175.711 165.461C177.842 164.411 178.802 162.574 178.603 160.077C178.676 159.442 178.814 158.866 178.953 158.289C180.399 152.518 181.464 146.588 182.27 140.491C182.497 138.713 182.79 136.993 183.206 135.263C183.57 133.662 183.15 132.251 182.072 131.08C181.869 130.844 181.671 130.672 181.473 130.499C177.444 127.804 173.92 124.503 170.907 120.658C169.738 119.117 168.34 117.783 166.651 116.661C164.952 115.414 163.314 114.162 161.794 112.838C160.868 112.032 159.831 111.361 158.752 110.944C157.922 110.57 157.123 110.571 156.348 110.884C153.743 112.161 151.052 113.129 148.275 113.791C147.72 110.693 146.513 107.898 144.541 105.542C144.404 105.364 144.206 105.191 144.074 105.076C142.405 104.204 140.731 103.269 139.052 102.272C138.278 101.831 137.601 101.822 136.826 102.135ZM145.129 129.879C145.012 129.951 144.829 129.965 144.711 130.038C143.834 130.61 143.294 130.779 143.152 130.539C143.69 128.799 144.426 127.232 145.417 125.771C145.693 125.372 145.963 124.91 146.234 124.449C147.083 122.747 147.672 120.877 147.889 118.975C148.74 118.844 149.591 118.713 150.436 118.52C152.5 118.167 154.477 117.507 156.505 116.716C157.107 116.543 157.667 116.624 158.313 117.012C163.803 120.282 168.567 124.49 172.663 129.568C173.141 130.158 173.736 130.676 174.387 131.127C176.406 132.537 177.473 134.337 177.586 136.528C177.545 136.783 177.565 137.032 177.523 137.287C176.317 145.302 174.495 153.303 171.99 161.232C171.358 161.786 170.588 162.161 169.681 162.359C168.351 162.654 167.092 163.069 165.787 163.675C160.976 165.819 156.169 168.025 151.423 170.226C150.358 170.751 149.298 171.338 148.232 171.863C145.3 173.668 142.693 173.373 140.365 171.171C135.367 166.353 130.43 161.531 125.488 156.646C123.953 155.135 122.208 154.08 120.192 153.486L126.009 141.585L134.24 138.351C132.835 140.789 132.001 143.432 131.665 146.161C131.628 146.478 131.592 146.795 131.617 147.108C131.606 147.737 131.538 148.434 131.405 149.073C129.86 149.762 128.372 150.383 126.874 150.88C126.456 151.039 126.038 151.198 125.686 151.414C124.677 151.872 124.233 152.473 124.481 153.27L130.53 151.216C130.971 152.124 131.709 152.882 132.68 153.496C138.226 156.699 143.45 160.492 148.352 164.878C148.423 164.998 148.55 165.05 148.743 165.161C149.766 165.645 150.688 165.634 151.621 164.994C147.034 161.463 142.747 157.846 138.811 154.012C138.415 153.667 138.013 153.259 137.678 152.909C136.864 151.968 136.122 151.147 135.441 150.322C135.991 150.278 136.47 150.114 136.945 149.888C139.034 149.093 141.119 148.235 143.203 147.377C144.936 146.737 146.504 147.114 147.846 148.515C149.316 149.969 150.892 151.226 152.693 152.214C156.367 154.309 159.867 156.543 163.321 158.97C164.755 159.987 166.18 160.879 167.67 161.828C167.925 161.934 168.179 162.039 168.551 162.072C169.478 162.124 170.191 161.816 170.625 161.09C170.516 159.716 169.922 158.444 168.906 157.268C167.152 155.334 165.235 153.664 163.144 152.134C160.535 150.268 157.931 148.465 155.265 146.667C154.94 146.441 154.614 146.216 154.293 146.053C153.261 145.444 152.279 144.705 151.415 143.894L155.6 133.128C159.942 137.433 164.794 141.193 170.207 144.281C170.594 144.501 170.991 144.847 171.382 145.13C171.845 145.533 172.364 145.868 172.939 146.137L174.264 145.78C174.3 145.463 174.275 145.15 174.128 144.848C173.951 144.171 173.657 143.566 173.184 143.038C172.3 141.977 171.359 140.984 170.49 140.11C170.088 139.703 169.692 139.357 169.3 139.074C167.596 137.765 165.836 136.522 164.015 135.285C163.689 135.06 163.43 134.892 163.166 134.662C161.305 132.925 159.505 131.183 157.578 129.388C158.34 127.379 158.98 125.38 159.427 123.271C159.474 123.078 159.515 122.824 159.556 122.569C159.507 121.19 159.276 119.826 158.926 118.534L154.439 127.062C152.908 126.367 151.451 126.609 150.068 127.788C148.539 128.664 146.938 129.42 145.129 129.879ZM144.903 133.982C145.668 133.544 146.565 133.221 147.533 133.018C149.347 132.622 150.82 131.813 151.887 130.534L146.912 141.426L137.919 145.914L135.66 147.665L139.888 135.89C141.651 135.624 143.322 134.988 144.903 133.982ZM138.146 130.247C136.116 126.387 134.748 122.348 134.099 118.064C133.469 114.029 134.606 110.545 137.392 107.683L142.299 112.131C143.635 114.224 144.053 116.39 143.489 118.572C142.534 122.796 140.755 126.708 138.146 130.247ZM111.2 134.847C111.177 133.781 111.413 132.882 111.903 132.089C112.557 131.031 113.439 130.521 114.544 130.496C120.717 130.758 126.505 132.37 131.908 135.332L124.88 138.218C123.203 138.792 121.553 138.924 119.806 138.623C117.754 138.347 115.804 137.811 113.967 137.141C112.705 136.738 111.784 135.995 111.2 134.847Z" fill="#2F3C4D"/>
<path d="M562.929 59.874C561.945 60.0702 560.96 60.2664 560.034 60.4579C556.622 61.2007 553.211 61.9434 549.858 62.6815C542.936 64.4102 535.984 66.4943 528.938 68.88C523.097 70.8755 517.265 72.9879 511.501 75.2126C508.126 76.423 504.616 77.4089 501.074 77.9856C500.206 78.1725 499.32 78.1255 498.483 77.957C497.485 77.9778 496.531 77.8186 495.572 77.6009C493.145 76.6767 491.036 75.3154 489.295 73.3953C487.059 73.3971 484.861 73.8666 482.705 74.8622C481.344 75.5002 479.911 75.9675 478.522 76.2548C473.282 77.6729 468.114 79.2617 462.906 81.0889C461.594 81.6054 460.282 82.1218 458.98 82.7552C456.644 83.7063 454.642 85.1602 452.911 87.0632C452.925 87.2385 452.997 87.4092 453.07 87.5799C453.156 87.926 453.404 88.0827 453.701 88.1179C457.98 90.1298 462.298 91.9032 466.714 93.4334C471.36 94.8865 476.114 96.2134 480.799 97.428C485.611 98.7503 490.519 99.0647 495.469 98.4346C496.453 98.2384 497.492 97.9791 498.53 97.7198C501.684 96.7034 504.83 95.5701 507.956 94.2029C513.419 91.8847 518.996 90.2632 524.75 89.3924C523.3 93.332 521.854 97.33 520.529 101.377C520.249 102.282 520.085 103.178 520.042 104.122C520.068 105.179 520.533 105.848 521.443 106.187C523.365 106.681 525.354 107.287 527.339 107.835C529.301 108.09 531.249 108.17 533.182 108.075C533.772 108.086 534.279 107.811 534.651 107.31C536.618 104.683 538.59 102.113 540.498 99.4902C541.345 98.305 542.323 97.2857 543.373 96.4372C545.63 94.4923 548.008 92.5965 550.396 90.8177C551.446 89.9691 552.442 89.1837 553.492 88.3352C554.049 87.9378 554.601 87.482 555.031 86.977C555.525 86.5259 555.955 86.0209 556.385 85.5159C556.874 85.0063 557.305 84.5014 557.676 84.0011C558.537 82.9912 559.393 81.9228 560.132 80.8637C563.783 75.7485 565.63 70.1302 565.778 63.8824C565.821 62.9378 565.634 62.0702 565.393 61.2658C565.071 60.1738 564.21 59.713 562.929 59.874ZM530.092 87.025C530.26 86.188 530.136 85.3742 529.788 84.696C528.946 84.469 528.06 84.4221 527.246 84.5458C523.875 85.0501 520.58 85.7835 517.308 86.8093C512.545 88.307 507.791 89.9216 503.051 91.7116C498.828 93.3427 494.535 94.0969 490.186 94.1497C489.479 94.1472 488.832 94.14 488.193 94.2498C486.826 94.0647 485.521 93.9335 484.216 93.8022C476.435 92.1286 468.89 89.7301 461.64 86.6022C462.376 86.2493 463.113 85.8964 463.791 85.5482C466.293 84.4662 468.873 83.6133 471.403 82.882C475.897 81.6999 480.314 80.2886 484.718 78.702C485.171 78.4893 485.683 78.272 486.205 78.1716C487.369 78.0199 488.342 78.4129 489.177 79.2876C489.686 79.7764 490.25 80.2021 490.754 80.6325C492.508 81.9633 494.458 82.8079 496.604 83.1661C497.734 83.3114 498.849 83.2812 499.941 82.9588C507.164 81.3237 514.233 79.2303 521.148 76.6786C525.151 75.2415 529.15 73.7459 533.149 72.2504C542.414 68.9229 551.884 66.6968 561.511 65.6936C561.405 66.5844 561.241 67.4799 561.024 68.4385C559.696 74.6626 556.688 79.7265 551.995 83.5719C549.23 85.7925 546.524 88.0086 543.76 90.2292C539.052 93.8992 535.121 98.4485 532.077 103.809L524.759 102.04C525.751 99.7253 526.743 97.4107 527.735 95.0961C528.874 92.4167 529.658 89.7069 530.092 87.025Z" fill="#2F3C4D"/>
<path d="M436.49 244.799L433.618 258.206C430.084 274.372 427.623 287.04 426.183 296.273C425.958 297.88 426.105 298.986 426.624 299.591C427.197 300.134 428.17 300.527 429.654 300.703L478.434 305.989C479.918 306.165 480.97 306.081 481.653 305.791C482.682 305.415 483.382 304.594 483.698 303.393C483.983 302.546 484.187 301.412 484.182 299.883C484.303 294.755 485.09 288.398 486.665 280.86C488.643 272.466 490.024 266.179 490.808 261.998C491.078 260.212 491.848 254.385 493.12 244.518C494.081 237.382 495.09 231.595 496.265 227.148C497.039 224.321 496.832 222.455 495.642 221.55C495.01 221.012 494.169 220.785 493.049 220.757C492.756 220.78 491.763 220.859 490.13 221.048C488.494 221.179 486.02 221.141 482.763 220.871L448.454 217.784C446.673 217.573 445.391 217.734 444.61 218.267C444.049 218.606 443.736 219.102 443.675 219.812C443.555 220.528 443.773 221.04 444.385 221.344C443.347 221.603 442.486 222.613 441.812 224.491C440.116 229.038 438.363 235.826 436.49 244.799ZM431.538 295.552C433.194 283.125 435.175 271.083 437.535 259.365L445.215 222.16C461.402 223.752 476.572 225.13 490.662 226.242C489.157 234.657 488.005 242.338 487.25 249.104C486.304 256.416 485.59 261.473 484.986 264.227C484.543 266.792 483.974 269.25 483.293 271.775L482.091 275.871C481.69 277.492 481.234 279.881 480.838 283.031L478.248 300.709L431.538 295.552ZM454.999 289.504C454.606 289.006 453.877 288.711 452.806 288.561C451.15 288.458 450.063 288.839 449.598 289.641C449.387 289.952 449.249 290.433 449.13 291.149C448.961 291.986 449.012 292.629 449.283 293.078C449.559 293.585 450.006 294.02 450.744 294.432C451.352 294.678 451.776 294.82 451.956 294.865C452.856 295.087 453.656 294.788 454.476 294.017C455.077 293.439 455.489 292.7 455.595 291.81C455.749 290.797 455.509 289.993 454.999 289.504ZM442.685 281.897C441.488 281.64 440.714 281.525 440.354 281.436C440.116 281.396 439.882 281.415 439.648 281.433C441.052 275.438 442.719 266.834 444.59 255.625C446.58 243.7 448.233 234.921 449.49 229.291C450.841 230.006 453.105 230.355 456.285 230.396C460 230.511 464.314 230.755 469.11 231.138C470.653 231.309 474.922 231.733 481.86 232.415C483.345 232.591 484.397 232.507 485.075 232.159C485.587 231.941 485.973 231.616 486.106 231.076C486.357 230.527 486.324 230.118 486.053 229.669C485.728 229.283 485.062 229.042 484.112 228.941C476.904 227.81 469.494 227.107 461.82 226.778C458.694 226.674 456.571 226.608 455.558 226.453C453.192 226.289 451.104 225.926 449.353 225.36C448.151 225.044 447.323 224.992 446.762 225.331C446.435 225.652 446.18 226.143 446.07 226.975L438.584 269.576C437.699 274.706 437.067 278.58 436.746 281.194C436.627 281.91 436.606 282.382 436.751 282.723C436.832 283.011 437.022 283.172 437.153 283.338C437.248 283.801 437.749 284.173 438.541 284.522C440.545 285.303 443.835 285.982 448.284 286.451L465.166 288.634C466.124 288.852 468.437 289.079 472 289.501C473.66 289.663 474.951 289.618 475.805 289.256C476.317 289.039 476.644 288.719 476.904 288.286C477.622 287.699 478.195 286.771 478.506 285.511C478.733 284.669 478.927 283.418 479.089 281.758C479.309 280.093 479.567 278.896 479.74 278.118L480.587 275.462C481.015 274.192 481.303 272.64 481.573 270.853C482.575 264.243 484.053 252.536 485.953 235.795C486.113 234.841 485.94 234.149 485.566 233.884C485.25 233.615 484.895 233.585 484.432 233.681C484.027 233.772 483.69 233.975 483.421 234.291C483.152 234.606 482.916 235.331 482.649 236.411L478.839 261.659C478.062 266.662 477.366 270.483 476.802 272.999C476.063 275.528 475.609 277.212 475.44 278.049C475.272 278.886 475.131 280.074 474.911 281.739C474.73 283.165 474.414 284.367 474.017 285.281C473.963 285.344 473.914 285.465 473.918 285.524C473.802 285.533 473.685 285.543 473.568 285.552C471.985 285.619 470.212 285.525 468.129 285.221C465.744 284.823 463.895 284.5 462.756 284.238C461.388 284.053 459.426 283.797 456.754 283.481L447.976 282.593C445.669 282.424 443.887 282.213 442.685 281.897Z" fill="#2F3C4D"/>
<path d="M531.095 193.959C531.095 194.81 530.908 195.874 530.457 197.024C529.97 198.57 529.244 199.677 528.279 200.343C527.895 200.636 527.242 200.95 526.329 201.416C525.945 201.709 525.437 202.143 524.742 202.788C524.416 202.945 523.824 203.189 522.829 203.465C520.645 204.164 519.126 205.53 518.192 207.439C519.323 208.005 521.019 208 523.348 207.421C524.883 207.102 526.008 206.75 526.854 206.29L530.525 203.834C530.971 203.471 531.599 202.831 532.346 201.985C533.087 201.074 533.642 200.374 533.865 199.767C534.088 199.159 534.358 198.286 534.601 197.087C534.819 195.562 534.938 194.504 534.891 193.918C534.876 192.87 534.575 191.649 533.91 190.129C533.137 188.094 532.339 186.585 531.643 185.526C531.41 185.152 531.187 184.907 530.974 184.793C530.616 184.56 530.279 184.586 530.02 184.738C529.698 184.96 529.595 185.362 529.641 185.948C529.74 187.185 529.896 188.287 530.176 189.248L530.633 190.719C530.877 192.075 531.1 193.172 531.095 193.959ZM533.704 156.919C533.367 156.946 532.973 157.109 532.589 157.402C532.091 157.966 532.003 158.562 532.325 159.192C532.652 159.887 533.222 160.235 533.969 160.241C534.789 160.306 535.302 159.938 535.509 159.135C535.784 158.326 535.53 157.691 534.887 157.284C534.819 157.289 534.752 157.295 534.747 157.23C534.456 156.991 534.109 156.887 533.704 156.919ZM545.655 165.534C546.272 164.764 546.568 164.216 546.396 163.771C546.36 163.315 545.981 162.821 545.255 162.224L542.791 160.258C542.21 159.78 541.713 159.492 541.365 159.389C540.805 159.171 540.131 159.225 539.337 159.485C538.616 159.804 537.662 160.601 536.609 161.865L533.659 165.705C533.093 165.422 532.528 165.14 531.968 164.922C531.127 164.596 530.375 164.525 529.836 164.568C529.504 164.66 529.11 164.822 528.721 165.05C528.332 165.278 527.824 165.712 527.134 166.422L524.837 169.095C524.712 169.236 524.588 169.377 524.526 169.448C524.173 169.279 523.753 169.116 523.333 168.953C518.893 166.883 515.48 166.631 512.954 168.143L520.963 172.419C524.785 174.408 527.643 176.212 529.526 177.7C534.029 181.404 536.695 185.91 537.593 191.212C537.842 192.634 537.889 194.072 537.868 195.515C537.9 200.166 536.765 203.795 534.54 206.529C534.296 206.876 533.477 207.662 532.092 209.018C530.065 210.818 528.467 212.059 527.228 212.682C525.667 213.528 523.748 214.14 521.341 214.594C516.788 215.35 512.903 215.136 509.692 214.016C508.012 213.363 506.238 212.391 504.438 211.092C503.281 210.202 501.689 208.952 499.718 207.209C497.378 205.102 495.687 203.467 494.645 202.305C492.86 200.351 491.621 198.418 490.925 196.507C489.623 192.941 489.664 189.202 491.043 185.226C492.215 182.052 494.269 178.874 497.209 175.756C501.093 171.71 505.159 169.092 509.474 167.896C505.517 167.622 501.855 168.504 498.624 170.531C496.809 171.593 494.662 173.6 492.043 176.495C490.363 178.399 489.191 179.869 488.47 181.04C487.376 182.635 486.635 184.398 486.173 186.27C485.458 189.21 485.495 192.222 486.216 195.31C486.937 198.398 488.177 201.183 490.076 203.718C491.362 205.385 493.432 207.514 496.285 210.104C499.506 213.059 502.042 215.085 503.961 216.177C507.374 218.133 510.979 219.09 514.776 219.05C516.601 218.969 519.013 218.58 522.078 217.877C525.076 217.179 527.259 216.481 528.634 215.847C529.935 215.153 531.668 213.901 533.96 212.014C535.614 210.637 536.75 209.564 537.434 208.788C539.047 206.89 540.344 204.427 541.261 201.471C541.977 199.382 542.365 197.45 542.552 195.535C542.738 192.768 542.38 189.978 541.41 187.172C540.621 184.941 539.573 182.862 538.193 180.875C538.385 180.729 538.51 180.588 538.696 180.376L542.155 176.103C542.762 175.202 543.115 174.519 543.073 173.998C543.047 173.672 542.876 173.227 542.559 172.662C542.186 172.234 541.662 171.62 540.998 170.952L545.655 165.534ZM540.427 162.937C541.09 162.753 541.874 163.215 542.828 164.121L538.607 169.046L536.439 167.384C536.371 167.389 536.366 167.324 536.294 167.264C537.367 166.261 538.3 165.203 539.156 164.021C539.716 163.387 540.162 163.023 540.427 162.937ZM530.044 168.877L530.729 168.953C532.108 169.236 533.457 169.981 534.837 171.116L538.53 174.032L535.621 177.541C533.39 175.098 530.641 172.958 527.441 171.116C527.503 171.045 527.565 170.975 527.622 170.839C527.871 170.557 528.125 170.34 528.25 170.199L529.059 169.283C529.38 169.061 529.707 168.904 530.044 168.877ZM563.109 172.531C562.626 172.438 561.532 172.329 559.831 172.268L552.134 171.899C551.594 171.942 551.117 171.914 550.764 171.746C550.624 171.692 550.267 171.458 549.556 171.056L547.118 169.415C546.475 169.008 545.91 168.725 545.495 168.627C544.737 168.491 544.276 168.659 543.902 169.082C543.602 169.565 543.643 170.086 544.027 170.645C544.333 171.079 544.769 171.438 545.339 171.785L549.069 174.306C549.93 174.893 550.568 175.235 551.05 175.328C551.398 175.431 552.274 175.361 553.488 175.264C554.629 175.108 555.92 175.136 557.419 175.213C558.643 175.246 559.67 175.361 560.427 175.497C562.492 175.857 565.225 176.949 568.695 178.77C569.758 179.34 570.682 179.856 571.34 180.459C571.859 181.008 572.554 182.066 573.364 183.706C574.749 186.61 575.2 188.868 574.786 190.473C574.252 192.286 573.007 193.695 571.041 194.573C569.537 195.283 567.598 195.634 565.29 195.622C564.615 195.676 563.931 195.599 563.246 195.523C560.85 195.255 559.029 194.548 557.712 193.343C556.913 192.685 556.083 191.638 555.222 190.199C554.589 189.07 554.179 188.185 553.93 187.615C553.847 187.425 553.65 186.654 553.282 185.439C552.851 183.441 552.617 181.363 552.653 179.263C552.653 178.411 552.601 177.76 552.508 177.439C552.248 176.739 551.808 176.316 551.19 176.234C550.433 176.098 549.733 176.678 549.085 177.909C548.67 178.663 548.38 179.276 548.286 179.808C548.188 180.274 548.183 181.061 548.333 182.098C548.494 184.117 548.826 185.728 549.267 187.004C549.553 188.03 550.357 189.604 551.54 191.672C552.178 192.867 552.868 193.86 553.542 194.658C554.595 195.951 555.902 197.026 557.463 197.884C558.594 198.45 559.984 198.863 561.509 199.266L564.196 199.772C565.907 199.963 567.671 199.954 569.626 199.798C571.369 199.528 572.764 199.154 573.806 198.612C574.714 198.081 575.735 197.279 576.736 196.216C578.873 194.08 579.993 191.959 580.112 190.049C580.262 188.529 579.842 186.662 578.856 184.513L577.627 181.858C577.051 180.594 576.506 179.719 576.122 179.16C575.22 178.053 574.053 177.032 572.491 176.173C571.423 175.537 569.945 174.869 568.124 174.162C565.743 173.238 564.073 172.716 563.109 172.531ZM518.591 157.142C518.191 157.239 517.865 157.396 517.548 157.684C517.299 157.966 517.128 158.373 517.097 158.834C517.134 159.29 517.232 159.675 517.466 160.05C517.694 160.359 518.057 160.658 518.539 160.751C518.954 160.848 519.364 160.881 519.758 160.719C520.152 160.556 520.474 160.334 520.712 159.922C520.883 159.515 520.987 159.113 520.883 158.663C520.78 158.213 520.546 157.838 520.183 157.539L519.758 157.311C519.478 157.202 519.063 157.104 518.591 157.142ZM525.214 158.514C524.773 158.943 524.613 159.48 524.664 160.131C524.784 160.777 525.157 161.206 525.723 161.488C526.008 161.662 526.355 161.765 526.693 161.739C527.507 161.739 528.088 161.365 528.368 160.622C528.482 160.351 528.456 160.025 528.357 159.64C528.253 159.189 528.02 158.815 527.657 158.516L527.517 158.462C527.226 158.223 526.806 158.059 526.396 158.027C525.862 158.135 525.463 158.232 525.214 158.514ZM521.577 148.646C521.354 148.402 521.007 148.299 520.664 148.26C519.855 148.325 519.347 148.759 519.207 149.556C519.108 150.023 519.145 150.479 519.518 150.908C519.902 151.467 520.462 151.684 521.199 151.56C521.806 151.512 522.252 151.148 522.469 150.476C522.62 149.808 522.438 149.233 521.93 148.815C521.857 148.755 521.722 148.766 521.577 148.646ZM526.769 152.492C526.339 152.199 525.924 152.101 525.716 152.052C524.897 151.986 524.311 152.295 523.958 152.978C523.673 153.656 523.725 154.308 524.249 154.921C524.477 155.231 524.84 155.529 525.323 155.622C525.738 155.72 526.147 155.753 526.609 155.585C527.003 155.422 527.252 155.14 527.496 154.793C527.734 154.381 527.838 153.98 527.739 153.594C527.646 153.274 527.412 152.899 527.034 152.405C526.972 152.476 526.904 152.481 526.769 152.492ZM532.505 151.248C532.225 151.139 532.018 151.09 531.676 151.052C531.064 151.035 530.675 151.263 530.306 151.751C529.938 152.239 529.912 152.765 530.156 153.27C530.255 153.656 530.483 153.965 530.773 154.204C531.209 154.563 531.697 154.72 532.236 154.677C532.978 154.618 533.491 154.249 533.709 153.577C533.932 152.969 533.813 152.323 533.289 151.71C533.071 151.531 532.785 151.357 532.505 151.248ZM527.676 145.145C527.479 145.226 527.225 145.443 526.914 145.796C526.665 146.078 526.551 146.349 526.571 146.61C526.489 147.271 526.805 147.836 527.526 148.368C527.889 148.667 528.242 148.836 528.589 148.939C529.222 149.216 529.891 149.097 530.529 148.588C531.094 148.018 531.182 147.421 530.856 146.727C530.617 146.287 530.181 145.928 529.543 145.586C528.765 145.189 528.143 145.042 527.676 145.145Z" fill="#2F3C4D"/>
<path d="M389.63 91.4198C388.823 92.1113 388.143 92.8496 387.533 93.6964C384.831 96.8763 382.895 100.394 381.786 104.245C381.188 106.003 380.843 107.855 380.804 109.682C380.758 110.655 380.953 111.552 381.27 112.439C383.521 117.504 387.592 119.916 393.489 119.73C396.002 119.587 398.352 118.943 400.591 117.682C403.782 116.002 406.64 114.007 409.273 111.516C413.743 107.34 416.488 102.389 417.627 96.5977C417.799 95.6718 417.976 94.8026 418.149 93.8767C419.047 89.7004 418.094 86.2419 415.285 83.4445C413.819 81.2811 411.864 80.696 409.484 81.7409C409.183 81.822 408.947 81.9548 408.655 82.1491C408.786 82.2527 408.856 82.3611 408.992 82.5212C409.194 82.7332 409.391 82.8885 409.649 83.0389C410.542 83.4238 411.383 83.9268 412.228 84.4865C413.721 85.4506 414.695 86.8551 415.027 88.7099C415.231 89.7198 415.186 90.6925 414.769 91.6379C413.222 95.4098 411.356 99.0362 409.114 102.579C407.147 105.7 404.649 108.35 401.556 110.479C398.446 113.178 394.908 114.372 390.877 114.01C389.391 113.9 388.052 113.323 386.926 112.33C386.203 111.76 385.716 111.058 385.465 110.223C384.452 107.567 384.362 104.895 385.186 102.093C386.399 98.0055 388.65 94.5764 392.056 91.7393C396.746 88.0018 401.589 84.651 406.708 81.6773C406.219 81.7163 405.734 81.812 405.263 82.0776C399.468 84.3071 394.301 87.4557 389.63 91.4198ZM383.083 63.3808L389.559 62.7502C389.582 63.0334 389.604 63.3166 389.5 63.553C389.237 64.8852 388.602 66.19 387.605 67.5807C386.363 68.991 386.283 70.3086 387.305 71.5383C388.866 73.3521 390.427 75.1658 391.87 77.046C392.348 77.635 393.048 77.9212 393.904 77.8529C396.225 77.6108 398.364 76.642 400.392 75.055C403.355 72.8234 406.557 72.0549 409.989 72.6363C412.298 73.0222 414.621 73.578 416.839 74.3702C419.25 75.2611 421.434 76.398 423.339 77.8993C426.226 80.1204 427.947 83.1756 428.377 87.0179C429.166 93.0549 428.981 99.2266 427.761 105.538C427.32 107.739 427.417 109.727 427.99 111.505C424.962 115.224 421.741 118.845 418.389 122.362C417.133 123.602 415.742 124.682 414.144 125.494C410.643 127.141 407.083 128.052 403.459 128.17C395.286 128.366 387.716 126.861 380.805 123.592C379.011 122.709 377.552 121.401 376.428 119.666C375.107 117.776 374.202 115.682 373.649 113.389C372.275 107.74 373.056 102.091 375.865 96.3944C376.343 95.4441 376.948 94.5407 377.685 93.7408C378.979 92.2124 380.02 90.5901 380.811 88.9308C381.029 88.5714 381.119 88.1651 381.092 87.8252C380.907 85.5026 380.001 83.4085 378.497 81.5332C377.545 80.4119 376.286 80.0564 374.652 80.4147C373.446 80.7389 372.42 80.9918 371.45 81.1832C371.021 81.2174 370.711 81.1851 370.518 81.0865C370.067 80.8374 369.796 80.517 369.703 80.1254C369.3 78.1622 370.021 76.3944 371.993 74.869C374.837 72.7038 376.911 70.144 378.206 67.0763C377.311 67.4327 376.415 67.7892 375.586 68.1974C371.622 70.2238 368.531 73.1498 366.368 76.9139C365.006 79.1318 364.627 81.3284 365.24 83.6168C365.505 84.6218 366.119 85.371 367.082 85.8643C369.83 87.1273 372.767 86.893 375.954 85.1566L376.682 88.1199C375.592 89.119 374.638 90.2783 373.824 91.6544C373.001 92.9172 372.117 94.1849 371.233 95.4526C369.053 98.99 367.935 102.728 367.993 106.543C368.059 112.01 369.205 117.107 371.358 121.724C371.868 122.709 372.491 123.571 373.289 124.306C377.28 128.035 382.043 130.62 387.694 131.993C389.264 132.381 390.948 132.646 392.622 132.797C396.164 133.199 399.683 133.317 403.118 133.157C404.53 133.102 405.828 133.169 407.009 133.303C409.003 133.6 410.97 133.557 413.027 133.108C414.577 132.471 415.856 131.514 416.867 130.293C421.81 125.11 426.758 119.984 431.706 114.858C432.678 113.925 433.274 112.908 433.612 111.741C433.764 111.33 433.733 110.933 433.64 110.542C432.99 107.8 432.939 104.84 433.429 101.722C434.319 95.8934 434.365 90.3028 433.564 84.8939C432.759 79.4283 430.029 75.3134 425.502 72.596C420.52 69.5729 414.969 67.9064 408.726 67.6063C407.244 67.5534 405.855 67.8923 404.498 68.6276C400.783 70.6912 397.051 72.5281 393.291 74.0252L389.775 70.087C391.946 67.9755 393.234 65.5925 393.76 62.9281C393.98 61.8274 393.781 60.8741 393.224 60.0635C391.903 58.1735 389.887 57.5933 387.188 58.4927C384.484 59.3354 383.077 60.9869 383.083 63.3808ZM371.318 44.0242C368.044 43.8863 364.778 43.8617 361.413 44.1301C359.63 44.1584 358.465 44.9924 357.787 46.5287L359.049 49.2215C358.917 52.1965 358.168 55.1636 356.869 58.1746C356.091 60.0039 355.629 61.9221 355.537 63.8677C355.467 65.2985 355.745 66.4735 356.321 67.5108C357.317 69.1985 358.554 70.8101 359.961 72.2372C361.977 74.3567 364.535 74.7797 367.688 73.3881L368.463 72.3001L367.944 71.2013L363.845 71.5283C362.76 71.0448 361.971 70.4236 361.357 69.6744C360.467 68.5482 359.869 67.2277 359.568 65.7695C359.095 63.6979 359.352 61.5111 360.281 59.2707C361.694 56.1365 362.603 52.8715 362.953 49.5371C365.493 49.7336 368.094 49.9252 370.691 50.0601C372.794 50.1774 374.514 50.8953 375.911 52.2091C377.314 53.5794 377.939 55.2398 377.73 57.2518C377.607 58.8008 377.96 60.1408 378.789 61.2719C379.904 61.354 380.917 60.9311 381.894 60.0551C383.018 58.7112 383.517 57.2462 383.513 55.6503C383.428 51.4955 381.693 48.2704 378.36 45.8568C377.966 45.5462 377.515 45.2971 377.069 45.1047C375.297 44.5049 373.36 44.1464 371.318 44.0242Z" fill="#2F3C4D"/>
<path d="M157.961 233.286C158.044 233.009 158.022 232.741 158.001 232.473C157.875 232.213 157.75 231.952 157.633 231.8C157.452 231.49 157.227 231.292 157.01 231.201C156.685 231.065 156.218 231.102 155.667 231.416L155.607 231.313C155.269 231.664 155.082 231.949 154.956 232.337C154.834 232.779 154.869 233.209 155.05 233.518C155.236 233.882 155.569 234.125 156.106 234.298C156.691 234.414 157.206 234.319 157.597 233.963C157.74 233.79 157.879 233.563 157.961 233.286ZM185.313 228.619L188.054 229.535C188.07 230.398 187.701 231.022 187.004 231.456C184.512 233.005 182.461 234.843 180.848 236.917C180.61 237.206 180.579 237.479 180.709 237.792C181.938 238.775 183.337 238.609 184.867 237.461C186.059 236.663 187.242 235.759 188.374 234.858C191.381 232.565 191.847 229.881 189.931 226.846C189.633 226.384 189.243 226.091 188.711 225.971L185.584 225.464C182.565 226.299 180.241 227.997 178.619 230.612C178.623 230.666 178.628 230.719 178.688 230.822C179.242 231.21 179.818 231.219 180.421 230.9C181.981 230.128 183.645 229.347 185.313 228.619ZM168.014 228.162C168.568 228.55 169.023 229 169.438 229.615C170.93 231.928 172.019 234.434 172.649 237.085C172.874 237.931 172.89 238.794 172.751 239.67C172.442 241.045 171.917 242.329 171.175 243.523C173.058 244.183 174.315 243.543 175.049 241.593C175.088 241.428 175.127 241.263 175.166 241.098C175.331 240.544 175.436 239.888 175.545 239.285C176.045 237.03 175.618 234.957 174.316 233.062C172.776 230.808 171.241 228.607 169.649 226.357C169 225.437 168.169 224.855 167.052 224.62C165.402 224.265 163.613 224.137 161.634 224.241C161.478 224.254 161.378 224.316 161.278 224.378L161.58 225.542C163.967 225.946 166.131 226.854 168.014 228.162ZM158.471 201.642C157.945 203.574 157.423 205.561 157.006 207.539C155.954 212.053 154.732 216.418 153.239 220.643C153.022 221.201 152.748 221.709 152.367 222.171C149.405 225.703 147.587 229.792 146.863 234.495C146.589 236.3 146.21 238.113 145.724 239.881C145.276 241.483 145.145 243.114 145.325 244.721C145.454 245.683 145.973 246.29 146.883 246.541C155.868 249.012 164.924 249.748 173.998 248.754C177.628 248.357 181.051 247.327 184.271 245.72C190.666 242.617 196.469 238.642 201.628 233.801C206.21 229.6 209.095 224.453 210.235 218.42C210.757 215.785 211.708 213.278 213.04 210.957C213.778 209.709 214.887 209.189 216.377 209.502C218.663 209.968 220.885 210.277 223.15 210.475C228.052 210.948 231.683 209.254 234.104 205.495C234.29 205.21 234.312 204.83 234.078 204.525C232.945 202.778 231.327 201.503 229.227 200.752C226.637 199.77 223.957 198.957 221.238 198.31C220.998 195.303 221.546 192.342 222.883 189.427C223.057 188.98 223.126 188.543 223.04 188.117C222.248 183.427 219.508 181.214 214.813 181.372C213.561 181.418 212.391 181.836 211.299 182.571C206.493 185.926 203.825 190.515 203.291 196.284C203.204 197.155 203.324 198.01 203.648 198.794C204.847 195.457 206.257 192.157 207.889 189.002C208.527 187.816 209.381 186.722 210.408 185.83C212.406 183.995 214.694 183.165 217.271 183.337C219.821 185.133 220.524 187.4 219.487 190.13C219.144 191.075 218.744 191.972 218.237 192.822C216.254 196.168 216.746 199.046 219.611 201.519C220.229 202.064 220.931 202.332 221.723 202.431C225.257 202.797 228.344 204.118 231.041 206.442C228.664 209.44 225.524 210.069 221.618 208.328C218.419 206.908 215.205 206.624 212.043 207.633C210.968 207.935 210.179 208.538 209.685 209.55C208.01 212.817 206.872 216.257 206.271 219.87C206.123 220.639 205.875 221.469 205.567 222.196C201.334 228.8 195.928 234.472 189.444 239.095C183.116 243.705 175.985 246.111 167.993 246.262C165.589 246.292 163.186 246.321 160.782 246.351C159.006 246.385 157.308 246.088 155.693 245.514C153.329 244.73 150.986 244.215 148.513 244.034L148.892 242.221C150.204 242.927 151.572 243.034 153.002 242.596C153.413 242.509 153.829 242.476 154.193 242.447C155.869 242.475 157.528 242.289 159.11 241.784C160.132 241.487 161.167 241.35 162.268 241.37C164.152 241.382 165.564 240.729 166.553 239.354C165.701 237.855 164.372 237.583 162.573 238.645C162.123 238.897 161.611 239.046 161.031 238.984C159.351 238.902 157.752 239.191 156.227 239.745C154.806 240.291 153.402 240.403 151.869 240.201C151.605 240.168 151.397 240.185 151.085 240.209C150.622 240.3 150.197 240.226 149.76 239.991C150.448 236.154 151.396 232.297 152.655 228.415C153.281 226.42 154.456 224.76 156.134 223.492C157.456 222.36 158.18 220.951 158.247 219.163C158.45 214.501 159.135 209.962 160.399 205.486C160.929 203.606 161.728 201.814 162.86 200.265C163.705 199.063 164.784 198.815 166.195 199.459C167.988 200.288 168.835 201.733 168.799 203.897C168.749 206.548 169.895 207.807 172.191 207.732C172.923 207.728 173.586 207.513 174.18 207.087C179.303 203.113 184.932 200.233 191.123 198.497C192.708 198.046 194.32 197.918 195.961 198.165C197.654 198.408 198.283 197.764 197.738 196.186C197.389 195.08 196.562 194.551 195.258 194.601C187.912 194.971 181.309 197.443 175.445 201.962C174.461 202.743 173.477 203.524 172.432 204.202C171.214 200.733 169.164 197.979 166.329 195.883C165.775 195.495 165.19 195.379 164.523 195.54C161.49 196.214 159.405 198.272 158.471 201.642Z" fill="#2F3C4D"/>
<path d="M614.02 296.232C613.962 294.766 614.021 293.29 614.079 291.815C614.354 287.145 612.868 283.264 609.567 280.232C603.286 274.498 596.04 272.899 587.766 275.383C587.479 275.464 587.196 275.605 586.913 275.745C576.598 279.921 566.496 284.551 556.543 289.58C546.536 294.673 537.902 301.48 530.64 310.001C529.138 311.827 527.821 313.755 526.694 315.846C521.379 325.917 519.875 336.568 522.183 347.797C522.452 348.952 523.057 349.904 523.999 350.652C528.137 353.852 532.928 355.646 538.362 355.919C541.668 356.067 544.923 355.572 548.014 354.502C553.114 352.801 557.735 350.255 561.931 346.803C574.307 336.756 586.756 326.88 599.273 317.116C601.875 315.084 604.474 312.995 607.014 310.91C611.936 306.987 614.194 302.101 614.02 296.232ZM600.053 279.697C603.735 280.874 606.386 283.133 608.06 286.412C609.109 288.505 609.812 290.684 610.057 293.018C610.643 298.148 609.05 302.511 605.273 306.048C598.163 312.792 590.66 319.038 582.833 324.898C573.843 331.675 564.722 338.285 555.471 344.73C553.909 345.795 552.337 346.744 550.689 347.464C543.879 350.596 536.953 350.795 529.808 348.247C529.02 347.957 528.51 347.468 528.157 346.732C526.886 344.068 526.248 341.236 526.186 338.241C526.112 332.894 527.051 327.701 529.066 322.716C531.812 315.849 535.929 309.932 541.289 304.857C547.969 298.618 555.502 293.487 563.951 289.519C567.704 287.16 571.747 285.485 576.026 284.555C578.449 283.95 580.668 283.008 582.747 281.783C588.306 278.457 594.079 277.82 600.053 279.697ZM533.051 319.574C532.288 320.341 532.218 320.935 532.844 321.414C538.361 320.504 543.795 320.776 549.03 322.241C549.511 322.379 549.827 322.648 549.976 323.048C551.117 325.546 552.73 326.593 554.937 326.241C555.534 324.134 554.863 322.364 552.916 320.813C548.764 317.438 543.849 316.301 538.172 317.401C536.238 317.496 534.473 318.225 533.051 319.574ZM555.204 307.453C556.674 307.454 557.993 307.76 559.277 308.364C563.19 310.228 566.772 312.355 569.954 314.63C571.028 312.603 570.64 310.693 568.849 308.894C563.166 303.288 556.5 301.585 548.842 303.666C548.618 303.802 548.452 303.933 548.227 304.068C547.441 304.543 546.962 305.169 546.852 306.002C546.782 306.595 546.877 307.059 547.207 307.503C547.396 307.664 547.576 307.709 547.752 307.695C550.265 307.494 552.725 307.357 555.204 307.453ZM566.222 292.926L564.468 294.537C564.873 295.916 565.918 296.48 567.55 296.291C569.173 295.985 570.721 296.215 572.243 296.858C577.129 299.116 581.316 302.194 584.804 306.092C585.391 305.34 585.672 304.435 585.651 303.436C585.624 300.144 583.751 298.058 580.155 297.227C579.615 297.094 579.182 296.834 578.745 296.516C574.963 293.347 570.803 292.09 566.222 292.926ZM594.109 289.996C596.339 291.406 598.649 292.34 600.99 292.918C601.383 291.945 601.25 291.014 600.654 290.18C597.426 285.848 593.175 284.187 587.839 285.142L585.152 286.121L585.428 288.1C585.869 288.476 586.419 288.727 586.95 288.743C589.562 288.299 591.946 288.697 594.109 289.996Z" fill="#2F3C4D"/>
<path d="M253.978 99.9306L254.101 102.215C264.803 104.362 268.556 111.592 265.425 123.961C265.815 123.695 266.148 123.433 266.47 123.054C272.848 116.721 273.481 109.905 268.491 102.656C267.778 101.83 267.011 101.068 266.141 100.49C262.279 97.7977 258.204 97.5934 253.978 99.9306ZM239.199 74.6952C238.684 75.6187 238.345 76.5282 238.127 77.4869C236.714 83.3649 235.003 89.2077 232.991 94.957C232.076 97.5008 233.03 99.1307 235.793 99.8516L237.552 96.8286C247.064 89.9517 257.525 88.3525 268.937 92.0309C277.927 94.8435 281.739 100.599 280.428 109.234C281.609 148.378 251.608 163.89 222.392 153.102L214.376 146.27C210.255 142.54 207.216 138.37 205.201 133.765C196.342 113.411 202.969 99.8813 224.98 93.3604C212.684 90.3997 203.087 95.4597 196.301 108.473C193.442 113.937 193.107 119.317 195.294 124.613C210.411 161.47 235.569 170.052 270.776 150.478C280.166 140.61 284.927 128.759 284.996 114.87C285.179 89.1469 270.39 79.2667 240.677 85.1078L249.889 64.9005L244.055 67.7191C230.411 57.4534 216.679 57.1368 202.916 66.7648C202.135 67.2978 201.812 67.6765 201.952 67.9595C209.103 85.3319 221.582 87.631 239.199 74.6952ZM236.322 70.3361C235.994 70.6564 235.604 70.9228 235.208 71.1308C225.581 76.5463 216.483 76.8014 207.846 71.7839C207.945 71.5407 208.052 71.4145 208.218 71.2836C217.404 64.0208 226.79 63.6839 236.322 70.3361Z" fill="#2F3C4D"/>
<path d="M424.271 181.599C424.128 182.309 424.282 182.995 424.635 183.665C424.972 184.137 425.515 184.692 426.158 185.24C426.586 185.605 426.998 185.771 427.311 185.946C428.557 186.545 429.869 186.74 431.241 186.431C432.316 186.145 433.276 185.67 434.105 184.805C431.845 183.988 430.211 183.52 429.18 183.103C428.05 182.694 427.217 182.262 426.682 181.806C426.147 181.349 425.925 181.068 425.818 180.977C425.496 180.703 425.191 180.627 424.902 180.75C424.513 180.881 424.338 181.194 424.271 181.599ZM434.826 170.081C435.27 170.644 436.012 171.184 436.959 171.806C437.808 172.437 439.029 172.739 440.524 172.719C441.92 172.708 443.078 172.216 443.991 171.146C441.5 169.948 439.736 169.091 438.796 168.567C437.749 167.952 437.107 167.405 436.77 166.933C436.433 166.461 436.211 166.179 436.104 166.088C435.775 165.715 435.462 165.54 434.966 165.58C434.569 165.612 434.189 165.841 433.923 166.262C433.574 166.888 433.522 167.491 433.677 168.177C434.029 168.847 434.382 169.518 434.826 170.081ZM419.23 165.937C419.754 164.997 420.377 164.05 420.9 163.11C422.471 160.291 424.494 158.134 426.854 156.449L433.397 158.421C433.496 158.414 433.687 158.299 433.786 158.291C434.448 157.839 434.797 157.212 434.635 156.427C434.627 156.328 434.52 156.237 434.512 156.137C433.676 154.408 432.102 153.436 429.806 153.42C432.903 150.978 436.108 148.627 439.337 146.573C440.09 146.014 440.959 145.646 441.744 145.483C446.456 144.509 450.088 145.017 452.756 147.199C455.417 149.282 456.518 153.085 456.259 158.593C456.1 161.599 455.163 164.867 453.334 168.205C453.342 168.305 453.35 168.404 453.251 168.412C453.16 168.519 453.069 168.626 452.977 168.733C451.581 171.239 449.788 173.776 447.507 176.453C441.934 182.884 436.158 188.034 430.28 191.895C424.394 195.657 420.079 199.094 417.227 202.116C414.375 205.137 411.622 208.15 408.968 211.155C412.943 208.444 416.917 205.732 420.998 203.112C426.404 199.588 431.917 196.155 437.339 192.829C446.668 187.196 453.748 179.647 458.581 170.182C462.822 162.061 462.356 153.717 457.298 145.34L475.623 146.173C473.379 143.06 471.222 141.037 469.168 140.303C466.495 139.319 462.736 139.718 457.782 141.41C458.651 141.042 459.139 140.903 459.428 140.78C464.037 138.517 468.645 136.254 473.254 133.99C474.214 133.515 474.555 132.789 474.476 131.797C474.219 129.823 473.073 129.215 471.022 129.778C467.013 130.796 462.238 133.472 456.788 137.698C459.35 134.8 460.885 132.782 461.592 131.628C462.298 130.474 462.255 128.682 461.545 126.044C460.737 123.415 457.033 122.014 450.335 121.85C453.079 126.221 454.422 129.306 454.382 131.305C454.342 133.304 454.064 134.823 453.663 136.052C453.163 137.289 452.076 138.673 450.303 140.211C448.769 139.735 446.96 139.58 444.894 139.944C442.82 140.209 440.389 141.002 437.684 142.116C434.88 143.237 431.302 145.917 426.959 150.255C425.103 151.999 423.46 153.926 421.925 155.944C416.863 162.534 412.634 169.556 409.452 177.193C408.877 178.736 408.301 180.278 407.825 181.813C405.166 191.005 403.316 200.332 402.175 209.802L401.171 215.968L402.483 216.163C405.423 209.243 407.233 201.915 407.905 194.079C408.037 191.973 408.489 190.141 409.279 188.781L414.799 190.436L415.592 187.878L410.077 185.026L415.612 173.11C416.032 173.376 416.559 173.733 417.087 174.09C417.194 174.181 417.301 174.273 417.507 174.356C418.768 175.153 420.164 175.142 421.611 174.527L421.905 173.207L417.068 170.101C417.841 168.542 418.532 167.19 419.23 165.937Z" fill="#2F3C4D"/>
<path d="M246.072 218.396C258.382 228.18 267.178 221.183 270.2 206.706C274.259 207.441 278.381 208.23 282.44 208.965C285.01 209.466 290.718 209.481 292.733 211.144C294.248 212.435 295.614 219.974 294.701 221.812C292.774 225.672 289.796 222.262 286.257 224.368C280.972 227.437 289.868 233.492 292.577 237.218C297.932 244.615 302.506 252.545 306.051 260.851C292.102 268.141 277.066 274.341 262.179 279.47C259.266 270.231 258.017 261.212 256.371 251.636C256.037 249.663 256.958 241.294 253.546 242.037C249.842 242.803 249.668 249.465 245.482 250.093C242.632 250.497 231.999 241.109 232.342 247.611C232.719 253.817 249.418 258.133 251.76 251.357C252.631 257.112 253.735 262.848 255.011 268.511C255.812 271.918 256.558 281.271 259.335 283.638C264.123 287.61 282.876 277.113 288.091 274.638C292.969 272.366 297.629 269.583 302.508 267.311C307.552 264.908 312.353 262.408 310.752 259.3C305.596 249.239 298.095 237.072 291.162 228.33C298.072 227.19 299.313 228.739 299.009 221.233C298.778 216.133 301.295 210.814 296.079 208.112C290.557 205.258 280.571 204.702 274.321 203.788C272.715 203.564 268.92 202.454 267.332 203.934C265.421 205.793 266.8 208.33 266.451 210.593C265.763 215.237 262.589 218.961 257.192 219.156C252.204 219.318 250.422 213.931 246.15 214.213C239.301 214.641 233.906 236.25 232.995 241.794C236.367 242.76 243.985 221.739 246.072 218.396Z" fill="#2F3C4D"/>
<path d="M346.847 193.325C346.569 192.053 345.91 191.165 344.758 190.727C331.917 184.633 319.974 183.88 308.927 188.467C312.531 184.238 316.208 180.18 319.898 176.297C323.584 172.355 324.955 168.893 324.061 165.787C323.103 162.628 320.207 156.564 315.324 147.718C310.496 138.808 318.251 132.777 338.706 129.616L335.014 140.853C334.337 144.907 335.815 145.73 339.564 143.313C343.317 140.955 346.846 138.732 350.092 136.65C348.141 140.217 346.602 143.046 345.537 145.19C344.415 147.339 344.302 148.877 345.195 149.747C346.03 150.622 350.999 148.755 360.219 144.137C359.442 160.2 354.892 168.799 346.516 169.997C338.077 171.141 331.168 170.809 325.671 169.012C334.012 174.759 342.617 176.426 351.484 174.013C361.96 171.118 365.72 159.994 362.827 140.693C359.147 141.751 354.739 143.28 349.477 145.17C352.659 139.328 354.137 135.739 353.899 134.228C353.724 132.771 352.132 132.722 349.248 134.187L339.233 139.163L342.671 125.476C339.018 125.414 331 127.407 318.557 131.458C306.115 135.51 306.804 147.103 320.572 166.301L305.902 185.943C306.934 181.92 306.25 177.032 303.738 171.35C302.001 168.018 299.928 164.889 297.581 162.017C295.292 159.14 292.835 157.101 290.215 155.957C289.971 155.858 289.67 155.765 289.377 155.788C283.662 167.48 285.2 180.123 293.996 193.776C296.079 197.022 298.662 199.169 301.75 200.276C319.674 206.67 334.726 204.352 346.847 193.325ZM341.624 192.742C341.724 193.263 338.64 195.157 332.438 198.534C326.231 201.853 317.028 201.528 304.882 197.496C313.697 189.263 325.985 187.695 341.624 192.742ZM290.438 161.704C290.527 159.873 292.998 162.088 297.738 168.416C302.479 174.745 303.169 183.396 299.696 194.439L297.221 190.695C289.655 180.651 287.356 171.009 290.438 161.704Z" fill="#2F3C4D"/>
<path d="M79.8573 567.686C82.5229 557.59 84.8331 547.464 87.0171 537.23C87.9627 532.86 88.247 526.837 93.8098 526.511C98.1403 526.224 102.348 528.83 106.033 530.772C124.519 540.533 143.001 550.237 161.487 559.998C172.05 565.568 182.608 571.08 193.108 576.596C192.65 575.279 192.192 573.962 191.738 572.704C188.381 581.502 185.145 590.35 181.671 599.157C182.744 598.601 183.822 598.103 184.896 597.547C167.685 593.448 150.696 588.45 134.131 582.123C125.937 578.953 117.845 575.598 109.842 571.883C102.145 568.32 94.5845 563.511 86.441 560.984C84.3297 560.329 83.1645 563.422 84.6794 564.713C88.0294 567.623 92.011 569.599 95.9434 571.698C99.8127 573.742 103.736 575.724 107.708 577.583C115.779 581.411 124.065 584.985 132.435 588.142C149.121 594.517 166.304 599.736 183.774 603.401C184.971 603.659 186.566 603.002 186.999 601.791C190.235 592.944 193.651 584.141 197.008 575.343C197.593 573.826 197.17 572.212 195.639 571.452C175.252 560.724 154.811 550.059 134.429 539.39C129.213 536.688 124.055 533.981 118.835 531.221C113.925 528.671 109.041 525.708 103.926 523.527C100.274 521.995 95.7449 520.532 91.7766 521.672C87.8084 522.813 85.2589 526.252 84.2082 530.042C82.5513 535.821 81.8718 542.053 80.8767 548.015C79.7481 554.517 78.9119 560.996 78.0803 567.534C77.9257 568.546 79.5367 568.83 79.8573 567.686Z" fill="#2F3C4D"/>
<path d="M234.818 440.904C232.751 451.128 232.662 461.078 232.435 471.508C232.306 476.519 232.176 481.53 231.515 486.524C231.18 488.963 230.607 489.891 228.203 490.73C225.741 491.574 223.143 492.193 220.608 492.865C200.19 497.965 178.862 498.313 157.98 496.861C154.611 496.659 153.609 501.798 156.983 502.059C179.637 503.605 202.543 503.131 224.552 497.316C228.7 496.22 233.699 495.469 235.77 491.185C236.78 489.105 236.828 486.748 237.001 484.498C237.259 481.83 237.4 479.172 237.482 476.518C237.692 471.03 237.434 465.58 237.643 460.092C237.864 454.015 238.733 447.945 239.908 442.027C240.69 438.553 235.492 437.556 234.818 440.904Z" fill="#2F3C4D"/>
<path d="M140.755 430.64C141.641 411.509 140.589 392.414 141.592 373.274C142.069 363.764 143.023 354.334 143.558 344.82C144.086 335.954 144.668 327.024 145.965 318.214C146.46 314.821 146.601 310.692 149.725 308.56C152.796 306.492 157.122 306.147 160.66 305.511C170.001 303.884 179.481 303.245 188.943 303.138C198.762 303.06 208.505 303.519 218.325 304.206C222.878 304.49 226.97 305.634 231.309 306.935C235.167 308.098 237.881 308.941 239.489 312.872C241.31 317.256 240.878 322.174 240.774 326.771C240.726 332.069 240.503 337.381 240.221 342.699C239.681 353.625 238.96 364.507 238.659 375.473C238.578 378.892 243.835 378.414 243.92 375.054C244.196 364.501 244.886 353.975 245.395 343.404C245.633 338.267 245.875 333.188 245.937 328.065C246.036 323.409 246.36 318.618 245.29 314.056C244.498 310.766 243 307.474 240.466 305.205C237.427 302.506 232.905 301.867 229.11 300.757C219.41 297.884 208.607 298.157 198.527 297.902C188.267 297.603 178.048 297.83 167.851 299.055C162.779 299.636 157.726 300.451 152.76 301.612C149.757 302.322 146.792 303.5 144.621 305.791C141.855 308.717 141.295 312.762 140.716 316.574C139.988 321.456 139.444 326.441 139.013 331.358C138.253 341.008 137.912 350.742 137.152 360.391C136.259 372.052 135.716 383.685 135.708 395.392C135.71 407.217 135.892 419.086 135.363 430.894C135.292 434.429 140.549 433.951 140.755 430.64Z" fill="#2F3C4D"/>
<path d="M162.99 305.972C160.055 309.735 164.445 313.15 167.91 313.815C175.201 315.234 183.17 314.834 190.551 315.186C198.288 315.569 206.021 315.893 213.753 316.218C216.529 316.349 218.823 316.343 220.575 313.968C222.38 311.529 224.49 308.478 225.255 305.535C225.576 304.391 223.953 303.227 222.962 304.071C221.423 305.429 220.501 307.149 219.463 308.879C218.581 310.362 217.902 312.181 216.055 312.622C215.134 312.872 213.873 312.561 212.866 312.465C207.256 312.206 201.652 312.006 196.047 311.806C190.618 311.592 185.247 311.373 179.817 311.159C177.105 311.082 174.393 311.004 171.68 310.926C169.44 310.869 161.647 311.256 164.108 306.706C164.583 306.021 163.47 305.345 162.99 305.972Z" fill="#2F3C4D"/>
<path d="M108.454 523.518C108.002 509.729 104.011 496.576 99.5083 483.639C95.1504 471.045 89.9275 457.931 91.0226 444.371C92.0919 431.226 100.225 420.341 104.733 408.274C105.416 406.514 106.546 405.188 107.166 403.374C107.599 402.163 107.973 400.957 108.406 399.745C109.494 396.423 110.407 393.115 111.135 389.703C111.769 386.594 111.994 383.517 112.332 380.372C112.515 378.239 113.139 376.483 113.138 374.248C113.088 367.722 111.692 356.126 119.014 352.777C131.443 347.08 132.45 372.237 132.28 378.957C132.138 386.028 130.88 393.129 129.312 400.019C128.051 405.591 126.024 411.165 126.072 416.926C126.138 425.863 131.322 433.333 137.071 439.757C144.172 447.662 152.698 454.983 155.265 465.779C157.031 473.168 154.242 480.98 151.306 487.685C148.424 494.327 144.555 500.401 139.938 505.946C137.733 508.534 141.772 511.977 143.978 509.389C152.258 499.61 159.687 486.546 161.004 473.557C162.181 461.756 155.51 451.876 147.907 443.599C141.79 436.969 133.954 430.181 131.868 420.994C130.583 415.213 132.502 409.766 133.826 404.248C135.551 397.11 136.975 389.878 137.444 382.487C137.923 375.213 137.466 368.013 135.67 360.979C134.378 355.846 132.24 350.428 127.267 347.825C123.033 345.633 117.711 346.763 114.121 349.697C110.863 352.369 109.295 356.318 108.556 360.318C107.79 364.733 107.915 369.252 107.973 373.66C107.984 376.012 107.319 378.007 107.213 380.368C107.021 383.854 106.415 387.315 105.623 390.672C102.37 404.463 94.7353 416.426 89.4198 429.439C83.3579 444.159 85.9216 460.074 90.9688 474.673C96.4833 490.705 102.816 506.672 103.359 523.806C103.288 527.342 108.55 526.922 108.454 523.518Z" fill="#2F3C4D"/>
<path d="M251.826 369.423C244.091 371.275 236.689 376.572 230.545 381.415C224.675 386.002 217.189 391.717 214.709 398.974C212.371 405.808 216.567 411.945 223.144 414.009C231.107 416.492 238.661 412.359 246.13 410.116C245.23 408.423 244.325 406.672 243.484 404.974C239.258 408.782 235.027 412.531 230.86 416.335C227.571 419.362 224.346 422.443 221.883 426.228C217.736 432.501 215.395 444.453 224.867 447.404C228.846 448.616 233.079 447.102 236.572 445.176C241.198 442.689 245.344 439.358 249.311 435.983C255.539 430.721 263.32 424.276 264.573 415.646C265.746 407.493 258.916 398.566 250.322 400.722C247.958 401.323 248.949 404.891 251.175 404.772C254.862 404.537 257.873 406.885 259.596 410.042C261.734 413.99 260.88 418.764 258.461 422.369C253.311 430.075 244.162 434.864 236.417 439.541C233.777 441.104 227.715 444.765 225.039 441.449C222.493 438.298 224.641 432.774 226.468 429.863C228.706 426.213 231.994 423.186 235.121 420.348C239.015 416.802 242.914 413.314 246.813 409.827C249.231 407.692 247.497 403.654 244.167 404.684C238.361 406.383 232.012 410.125 225.773 408.622C223.496 408.098 220.924 406.832 220.149 404.482C219.142 401.445 221.305 398.33 223.129 396.126C227.209 391.212 231.973 386.773 237.012 382.841C242.16 378.783 247.845 375.565 252.866 371.399C253.794 370.501 253.039 369.15 251.826 369.423Z" fill="#2F3C4D"/>
<path d="M251.017 402.078C256.983 397.955 263.188 392.401 265.015 385.078C266.27 380.154 265.286 369.29 258.287 369.319C256.758 369.323 256.007 370.972 256.407 372.293C257.051 374.477 259.228 375.95 260.058 378.237C260.955 380.637 260.989 383.281 260.425 385.797C259.03 391.909 253.974 396.371 250.042 400.921C249.392 401.62 250.294 402.607 251.017 402.078Z" fill="#2F3C4D"/>
<path d="M172.317 560.075C171.368 558.503 173.745 555.843 174.591 554.658C176.123 552.476 177.655 550.295 179.124 548.06C181.915 543.955 184.827 539.899 187.86 535.892C190.836 531.889 193.932 527.936 197.097 524.095C198.706 522.143 200.261 520.254 201.934 518.356C203.655 516.336 205.84 514.22 206.701 511.74C207.325 509.984 205.815 507.28 203.606 508.339C200.942 509.611 199.019 512.058 197.078 514.272C195.088 516.608 193.156 518.938 191.282 521.264C187.271 526.291 183.386 531.425 179.749 536.715C177.59 539.888 161.765 559.799 171.534 561.314C172.191 561.438 172.661 560.694 172.317 560.075Z" fill="#2F3C4D"/>
<path d="M111.626 378.899C112.1 381.155 113.975 382.535 116.234 382.826C119.384 383.221 121.715 380.741 123.098 378.16C124.937 374.66 125.459 370.147 125.736 366.243C125.959 362.401 126.25 357.201 124.1 353.843C123.228 352.5 120.913 352.979 120.688 354.585C120.334 356.79 121.047 359.086 121.166 361.313C121.385 364.06 121.312 366.831 120.942 369.566C120.651 371.825 120.195 374.215 119.369 376.398C118.632 378.222 115 382.1 113.308 378.588C112.892 377.798 111.43 377.914 111.626 378.899Z" fill="#2F3C4D"/>
<path d="M223.536 408.623C230.303 410.849 236.9 405.793 239.41 399.651C240.795 396.363 241.322 391.909 239.361 388.712C237.604 385.852 232.802 383.176 229.764 385.654C228.162 386.958 228.748 389.147 230.621 389.762C231.769 390.142 232.929 389.931 233.969 390.437C235.257 391.099 236.333 392.778 236.62 394.167C237.089 396.365 236.593 398.993 235.631 400.952C233.454 405.361 228.524 408.461 223.583 407.737C223.111 407.716 223.05 408.427 223.536 408.623Z" fill="#2F3C4D"/>
<path d="M224.451 429.67C226.402 427.573 228.722 425.682 230.934 423.917C233.366 421.959 237.083 419.133 238.933 423.162C241.21 428.098 238.865 434.109 237.903 439.01C237.65 440.266 239.231 440.904 240.043 440.016C244.545 435.245 245.948 424.073 240.735 419.194C234.187 413.069 226.735 424.37 223.626 428.913C223.205 429.534 223.909 430.243 224.451 429.67Z" fill="#2F3C4D"/>
<path d="M250.588 436.526C253.409 435.007 259.935 432.016 261.716 436.639C262.835 439.608 257.484 444.8 255.578 446.717C252.807 449.586 249.643 451.956 246.27 453.931C243.123 455.771 239.33 456.897 236.904 459.679C236.097 460.625 236.731 461.928 237.816 462.253C243.168 463.709 249.479 459.499 253.595 456.523C258.376 453.024 262.438 448.641 265.568 443.626C268.649 438.733 268.475 432.864 262.665 430.092C257.584 427.614 251.651 430.676 249.511 435.553C249.104 436.35 249.915 436.933 250.588 436.526Z" fill="#2F3C4D"/>
<path d="M245.714 323.787C248.251 323.879 250.279 322.011 252.295 320.732C254.647 319.251 257.068 317.881 259.619 316.677C260.751 316.116 260.952 315.689 261.908 316.612C262.485 317.213 262.843 318.008 263.084 318.813C263.705 320.705 263.639 322.828 263.262 324.74C261.237 335.491 252.916 343.273 247.76 352.391C246.834 354.053 249.106 355.99 250.601 354.812C255.963 350.501 260.351 345.033 263.883 339.163C267.043 333.793 269.984 327.146 269.413 320.72C269.072 316.453 265.894 309.058 260.329 310.091C257.137 310.639 253.533 313.398 250.975 315.249C248.465 316.979 244.869 319.089 244.482 322.356C244.255 323.197 244.891 323.794 245.714 323.787Z" fill="#2F3C4D"/>
<path d="M237.225 461.478C242.021 460.389 249.279 458.457 249.559 452.376C249.724 448.539 245.785 442.676 241.629 445.89C240.907 446.418 241.248 447.744 242.241 447.665C245.856 447.259 248.364 451.412 246.736 454.601C244.965 458.213 240.431 459.634 236.867 460.683C236.351 460.842 236.645 461.583 237.225 461.478Z" fill="#2F3C4D"/>
<path d="M172.432 573.304C169.565 574.238 167.455 577.289 168.462 580.327C169.614 583.706 173.785 584.373 176.524 582.566C179.375 580.692 180.011 576.876 177.522 574.427C175.231 572.257 170.543 571.748 168.978 574.991C168.227 576.639 170.102 578.019 171.503 577.143C172.571 576.528 173.956 576.182 174.912 577.106C175.863 577.971 175.309 579.133 174.294 579.685C173.167 580.304 171.969 580.047 171.458 578.793C170.796 577.14 171.262 574.868 172.649 573.816C173.049 573.666 172.832 573.154 172.432 573.304Z" fill="#2F3C4D"/>
<path d="M288.501 301.902C313.526 277.845 346.429 259.631 381.702 258.582C392.091 258.283 401.955 260.261 412.133 261.744C414.217 262.048 415.391 259.072 413.315 258.12C404.894 254.321 395.113 253.395 385.982 253.241C376.613 253.047 367.297 254.26 358.231 256.395C340.387 260.584 323.76 268.969 309.165 279.958C301.005 286.08 293.987 293.229 287.117 300.777C286.301 301.607 287.685 302.732 288.501 301.902Z" fill="#2F3C4D"/>
<path d="M326.936 254.949C336.338 247.434 347.796 242.107 359.292 238.72C364.981 237.03 370.834 235.917 376.715 235.153C382.888 234.367 389 234.291 395.202 233.855C397.657 233.659 397.84 230.056 395.446 229.541C383.245 227.043 369.566 229.605 357.869 233.421C345.539 237.405 334.817 243.849 324.751 251.888C322.866 253.332 324.998 256.457 326.936 254.949Z" fill="#2F3C4D"/>
<path d="M301.657 120.188C308.299 113.481 316.353 108.25 325.141 104.843C329.364 103.212 333.669 101.868 338.133 101.042C342.826 100.138 347.652 100.165 352.345 99.261C354.782 98.8313 355.321 95.2586 352.571 94.7132C347.729 93.7463 342.5 94.5752 337.69 95.4883C332.593 96.4832 327.654 97.9949 322.883 100.14C313.621 104.232 305.447 110.179 298.564 117.552C296.78 119.518 299.863 122.037 301.657 120.188Z" fill="#2F3C4D"/>
<path d="M471.931 109.431C486.923 111.529 501.885 115.454 515.871 121.163C522.801 123.963 529.588 127.187 536.174 130.838C542.697 134.436 548.955 138.408 555.326 142.312C556.565 143.095 557.648 141.185 556.692 140.261C545.473 130.155 531.23 122.702 517.214 117.349C502.774 111.853 487.845 108.338 472.392 107.1C470.912 106.982 470.383 109.201 471.931 109.431Z" fill="#2F3C4D"/>
<path d="M505.213 234.61C512.149 241.176 518.776 248.295 524.451 256.019C527.156 259.686 529.69 263.426 532.004 267.359C534.453 271.517 536.454 275.946 538.962 280.099C540.182 282.12 543.1 280.358 542.523 278.286C539.911 269.14 533.913 260.324 528.032 252.969C521.826 245.228 514.827 238.609 506.621 233.086C505.445 232.356 504.256 233.687 505.213 234.61Z" fill="#2F3C4D"/>
<path d="M527.233 232.62C533.15 238.207 538.803 244.169 543.566 250.789C548.199 257.244 551.7 264.26 555.66 271.121C556.41 272.414 558.201 271.271 557.865 270.004C555.706 262.116 551.179 254.771 546.2 248.403C541.085 241.81 535.213 236.043 528.368 231.353C527.44 230.78 526.413 231.921 527.233 232.62Z" fill="#2F3C4D"/>
<path d="M192.013 289.243C192.874 286.763 194.167 284.542 195.276 282.218C196.38 279.835 197.489 277.511 198.715 275.178C201.015 270.818 203.26 266.521 205.866 262.312C211.23 253.59 217.377 245.099 223.804 237.174C224.983 235.726 222.977 234.18 221.658 235.345C217.764 238.891 213.996 242.545 210.743 246.746C207.597 250.82 204.757 255.047 202.17 259.489C199.529 263.995 197.077 268.661 195.171 273.52C194.188 275.951 193.327 278.432 192.466 280.912C191.61 283.452 191.289 286.066 190.432 288.605C190.151 289.51 191.683 290.27 192.013 289.243Z" fill="#2F3C4D"/>
<path d="M277.048 107.445C286.19 100.362 296.089 93.9247 306.655 89.1992C317.278 84.4691 328.484 81.8692 339.68 79.1525C341.527 78.711 340.567 76.2579 339.028 76.1453C326.923 75.5813 314.677 79.1466 303.721 84.1386C292.712 89.1936 282.904 96.0354 274.928 105.202C273.915 106.518 275.666 108.555 277.048 107.445Z" fill="#2F3C4D"/>
<path d="M401.147 412.398C398.517 420.726 395.819 428.942 394.332 437.591C392.797 446.361 392.268 455.228 391.74 464.094C390.381 486.146 389.792 508.254 389.143 530.366C388.738 542.988 388.508 555.596 388.396 568.194C388.351 569.845 390.086 570.942 391.552 570.884C442.021 569.329 492.534 566.123 542.917 562.752C555.558 561.92 568.194 561.03 580.884 560.076C587.085 559.64 593.34 559.141 599.536 558.647C605.323 558.186 611.576 558.393 617.235 557.059C622.898 555.784 623.339 550.983 623.064 546.064C622.687 539.858 622.251 533.657 621.874 527.451C621.046 514.869 620.273 502.223 619.446 489.641C618.57 475.71 617.572 461.729 616.638 447.802C615.671 433.466 614.29 419.105 613.912 404.78C613.882 403.665 612.84 402.395 611.656 402.313C599.033 401.143 586.341 401.332 573.693 401.341C560.929 401.359 548.11 401.44 535.36 401.634C509.621 401.981 483.855 402.742 458.123 403.912C443.583 404.542 429.117 405.343 414.596 406.207C410.149 406.503 410.699 413.401 415.146 413.105C466.191 409.916 517.298 408.251 568.473 408.17C582.766 408.147 597.16 408.646 611.389 407.806C610.379 406.945 609.432 406.138 608.422 405.277C609.626 417.418 609.962 429.745 610.698 441.923C611.362 453.93 612.03 465.995 612.752 477.997C613.434 490.238 614.17 502.416 614.911 514.652C615.256 520.449 615.605 526.304 615.95 532.1C616.138 535.203 616.327 538.306 616.516 541.409C616.623 542.753 616.672 544.103 616.784 545.506C616.882 546.733 617.342 548.814 616.967 550.021C616.41 551.889 611.785 551.434 610.149 551.565C607.05 551.812 603.952 552.059 600.791 552.252C594.77 552.733 588.744 553.155 582.718 553.576C570.667 554.42 558.62 555.322 546.505 556.112C522.164 557.759 497.813 559.29 473.512 560.699C446.044 562.243 418.558 563.553 391.148 565.092C392.222 566.006 393.231 566.867 394.304 567.782C393.968 545.865 394.05 524.033 394.659 502.159C395.218 481.877 395.461 461.327 397.612 441.094C398.615 431.543 400.684 422.083 403.181 412.824C403.488 411.505 401.522 411.192 401.147 412.398Z" fill="#2F3C4D"/>
<path d="M405.352 408.298C415.029 399.82 424.382 390.955 433.735 382.091C438.054 377.981 442.833 372.247 449.055 371.339C455.336 370.426 461.614 370.219 467.946 369.95C494.218 368.913 520.456 368.173 546.768 368.369C554.127 368.429 561.431 368.552 568.794 368.671C576.634 368.869 584.568 368.765 592.387 369.436C591.693 368.844 590.998 368.253 590.304 367.661C594.625 378.317 601.029 389.278 608.493 398.036C610.894 400.845 615.424 397.895 613.287 394.713C610.076 389.851 606.649 385.241 603.603 380.248C600.621 375.309 597.975 370.167 595.164 365.155C594.684 364.311 593.599 363.986 592.66 364.002C578.964 364.153 565.239 363.189 551.521 363.048C537.802 362.907 524.098 362.941 510.354 363.214C496.663 363.423 482.928 363.813 469.221 364.553C463.069 364.867 456.466 364.688 450.466 366.167C444.983 367.487 440.041 371.175 435.995 375.028C425.117 385.426 414.574 396.326 404.337 407.379C403.902 407.826 404.746 408.817 405.352 408.298Z" fill="#2F3C4D"/>
<path d="M449.451 406.546C454.34 399.979 459.354 393.519 464.301 386.947C466.64 383.819 469.042 380.745 471.381 377.617C473.72 374.489 476.698 371.251 478.298 367.712C478.798 366.613 477.45 365.191 476.404 366.098C473.6 368.557 471.464 372.022 469.292 375.019C466.85 378.332 464.466 381.64 462.083 384.948C457.257 391.569 452.558 398.297 447.674 404.922C446.662 406.239 448.555 407.852 449.451 406.546Z" fill="#2F3C4D"/>
<path d="M499.537 404.609C503.602 399.52 506.423 393.589 508.947 387.622C511.462 381.539 513.627 375.483 514.04 368.861C514.138 367.147 511.747 365.926 510.897 367.818C508.413 373.546 506.716 379.564 504.358 385.4C502.004 391.294 499.033 396.825 496.558 402.67C495.875 404.431 498.255 406.241 499.537 404.609Z" fill="#2F3C4D"/>
<path d="M548.724 363.387C549.543 369.97 551.882 376.431 554.081 382.609C555.219 385.813 556.411 388.953 557.661 392.089C558.902 395.108 559.67 398.106 562.464 399.942C563.149 400.417 564.314 400.265 564.468 399.253C564.923 396.098 563.567 393.853 562.34 391.01C560.905 387.771 559.524 384.469 558.143 381.167C555.598 375.075 553.497 368.654 550.382 362.784C549.907 361.999 548.6 362.574 548.724 363.387Z" fill="#2F3C4D"/>
<path d="M409.168 408.934C404.556 413.067 403.689 419.902 407.279 425.086C410.661 429.876 416.532 431.937 422.181 431.957C437.595 431.963 445.481 417.98 452.131 406.213C450.663 405.507 449.253 404.796 447.785 404.089C444.865 410.264 446.839 418.048 451.014 423.186C455.776 429.042 462.706 431.843 470.127 431.957C486.729 432.103 499.014 418.71 504.632 404.32C503.227 403.667 501.88 403.01 500.47 402.299C499.242 405.338 498.467 408.165 499.079 411.41C499.686 414.598 501.166 417.656 503.134 420.206C507.323 425.519 513.359 428.92 519.944 430.336C532.216 433.005 545.508 428.532 554.732 420.267C559.564 415.94 564.529 409.602 565.055 402.912C565.188 400.901 562.5 399.645 561.489 401.726C558.551 407.667 555.926 413.112 550.622 417.418C545.596 421.525 539.343 424.259 532.882 425.127C526.48 425.991 519.479 425.255 513.803 421.943C508.374 418.787 501.642 411.088 504.686 404.257C505.883 401.573 501.907 399.654 500.524 402.236C494.748 413.168 485.963 423.987 472.911 425.558C460.789 426.995 450.082 418.143 452.372 405.547C452.864 402.86 449.055 401.576 447.838 404.026C443.218 413.219 436.666 424.743 425.58 426.627C421.287 427.381 416.424 426.887 412.907 424.108C408.639 420.742 407.6 414.354 410.173 409.737C410.486 409.241 409.719 408.479 409.168 408.934Z" fill="#2F3C4D"/>
<path d="M560.941 403.711C557.145 418.074 571.371 428.999 584.486 428.953C590.661 428.931 597.082 426.83 601.821 422.805C607.281 418.251 612.36 410.375 613.5 403.284C613.765 401.439 611.359 400.042 610.077 401.674C606.29 406.565 604.725 412.749 600.267 417.34C596.518 421.228 591.333 423.347 586.077 423.826C581.054 424.285 575.73 423.18 571.66 420.093C566.589 416.262 564.026 409.936 562.952 403.845C562.742 402.685 561.261 402.568 560.941 403.711Z" fill="#2F3C4D"/>
<path d="M445.261 564.953C447.83 557.335 448.076 548.609 449.029 540.65C448.024 541.318 447.018 541.987 446.071 542.651C484.497 544.998 522.883 539.465 561.265 539.051C560.318 538.244 559.435 537.491 558.488 536.684C558.859 540.596 558.879 544.536 559.6 548.42C560.154 551.67 564.776 551.36 564.745 548.009C564.666 544.074 563.944 540.19 563.632 536.274C563.515 534.812 562.267 533.912 560.855 533.907C522.615 533.898 484.578 538.638 446.371 537.567C445.368 537.53 444.161 538.626 444.065 539.634C443.695 543.84 443.329 548.105 443.017 552.307C442.745 556.27 442.19 560.374 442.682 564.335C442.731 565.684 444.784 566.344 445.261 564.953Z" fill="#2F3C4D"/>
<path d="M415.206 459.575C412.122 459.998 410.821 462.866 410.577 465.709C410.125 471.099 410.631 476.706 410.709 482.112C410.815 487.869 411.097 493.612 411.315 499.301C411.427 502.175 411.539 505.048 411.65 507.922C411.743 510.562 411.415 513.824 412.142 516.295C412.632 518.021 413.813 518.809 415.599 519.079C418.393 519.444 421.384 519.323 424.155 519.396C429.939 519.641 435.806 520.173 441.563 520.067C447.022 519.925 446.83 515.293 447.02 511.042C447.201 505.204 447.446 499.419 447.627 493.581C448.075 480.014 448.225 466.413 448.853 452.891C448.89 451.888 447.632 450.87 446.706 451.062C441.784 452.043 436.713 452.624 431.741 453.726C426.765 454.77 421.668 455.765 416.792 457.331C413.521 458.356 414.616 463.975 418.095 463.345C423.085 462.476 427.97 461.028 432.864 459.696C437.871 458.297 442.665 456.443 447.55 454.995C446.68 454.417 445.752 453.844 444.882 453.266C444.43 468.245 443.5 483.144 442.868 498.078C442.689 501.74 442.574 505.455 442.395 509.117C442.346 510.709 442.64 512.921 442.172 514.429C441.837 515.397 441.882 515.217 440.888 515.297C439.953 515.371 438.999 515.212 438.054 515.17C434.456 515.045 430.857 514.92 427.259 514.795C425.369 514.711 423.485 514.685 421.595 514.6C420.003 514.55 417.274 515.003 415.801 514.239C416.189 514.678 416.577 515.118 417.024 515.553C416.183 513.855 416.628 510.584 416.537 508.709C416.413 506.424 416.29 504.14 416.167 501.855C415.906 497.111 415.64 492.308 415.321 487.568C415.074 482.999 414.652 478.444 414.284 473.826C414.069 471.137 411.976 462.598 415.662 461.598C416.691 461.221 416.312 459.428 415.206 459.575Z" fill="#2F3C4D"/>
<path d="M556.995 454.56C556.233 474.505 557.18 494.49 557.596 514.459C557.621 515.516 558.596 516.673 559.662 516.765C569.326 517.7 578.99 518.635 588.698 519.39C591.955 519.66 596.942 520.968 599.15 517.674C601.148 514.691 599.72 509.334 599.396 506.006C597.605 486.5 594.221 466.945 593.892 447.322C593.885 446.499 593.041 445.508 592.209 445.398C581.956 444.451 571.153 444.724 561.212 447.694C558.053 448.651 559.205 453.501 562.425 453.303C572.309 452.574 582.167 450.787 592.014 449.59C591.256 448.944 590.499 448.299 589.741 447.653C592.209 464.576 592.114 481.82 593.237 498.85C593.519 503.122 593.801 507.394 594.141 511.661C594.202 512.421 594.592 513.626 594.355 514.35C594.339 514.881 594.393 514.818 594.458 514.166C594.103 514.135 593.689 514.109 593.334 514.079C591.227 513.482 588.48 513.701 586.352 513.577C577.831 512.962 569.253 512.352 560.674 511.742C561.382 512.51 562.032 513.281 562.74 514.048C562.036 494.162 561.795 474.179 559.801 454.336C559.656 452.524 557.094 452.846 556.995 454.56Z" fill="#2F3C4D"/>
<path d="M472.852 527.336C473.436 512.523 473.61 497.743 473.784 482.963C473.898 475.542 473.958 468.183 474.072 460.762C474.098 457.407 473.945 454.007 474.205 450.633C474.287 449.45 474.414 448.086 475.501 447.706C476.935 447.238 479.626 447.788 481.146 447.667C488.238 447.337 495.36 446.651 502.433 446.087C506.058 445.798 509.741 445.504 513.365 445.215C514.885 445.093 516.405 444.972 517.983 444.846C519.444 444.73 523.12 445.084 524.296 444.343C524.472 444.329 524.706 444.31 524.881 444.296C523.913 442.491 523.539 442.226 523.817 443.499C523.67 443.863 523.922 445.549 523.945 445.841C524.085 447.595 524.167 449.354 524.243 451.054C524.479 454.741 524.656 458.433 524.832 462.125C525.186 469.509 525.418 476.845 525.655 484.238C526.161 500.905 526.258 517.605 525.819 534.23C525.713 538.062 531.612 537.533 531.781 533.754C532.423 517.466 532.827 501.138 532.817 484.785C532.812 476.608 532.694 468.499 532.455 460.341C532.368 456.288 532.217 452.182 532.012 448.14C531.877 444.974 532.373 440.875 530.167 438.286C527.635 435.311 523.594 436.28 520.204 436.551C516.17 436.873 512.137 437.194 508.103 437.516C500.036 438.16 491.969 438.803 483.97 439.559C480.701 439.878 476.099 439.716 473.457 441.986C471.254 443.867 470.226 446.479 470.036 449.259C469.523 456.83 470.143 464.605 470.213 472.13C470.45 490.583 470.565 508.987 471.328 527.399C471.412 528.451 472.81 528.281 472.852 527.336Z" fill="#2F3C4D"/>
<path d="M214.1 542.563C216.26 547.509 217.785 552.623 220.169 557.433C222.336 561.731 224.785 565.889 227.737 569.713C233.114 576.638 239.795 582.223 247.337 586.798C264.025 596.88 283.78 600.422 303.122 599.527C315.022 598.989 327.56 596.871 338.679 592.455C341.015 591.504 340.392 587.376 337.668 587.888C327.751 589.679 318.096 591.802 308.051 592.721C298.064 593.635 287.988 593.439 278.138 591.636C261.722 588.651 246.12 581.13 234.343 569.186C230.82 565.584 227.908 561.522 225.157 557.271C221.999 552.346 218.871 547.065 216.504 541.724C215.911 540.183 213.448 541.027 214.1 542.563Z" fill="#2F3C4D"/>
<path d="M333.026 538.548C333.165 543.243 333.354 547.817 333.902 552.479C334.418 556.733 334.634 561.657 336.476 565.569C337.186 567.101 339.602 567.144 339.925 565.294C340.686 560.821 339.588 555.908 338.883 551.494C338.164 546.904 337.099 542.4 335.975 537.901C335.543 536.17 332.954 536.906 333.026 538.548Z" fill="#2F3C4D"/>
<path d="M324.309 553.893C328.499 553.324 332.608 552.466 336.817 552.131C340.728 551.76 344.872 552.077 348.674 551.067C349.712 550.808 349.752 549.099 348.784 548.764C344.899 547.25 340.519 547.659 336.504 548.214C332.138 548.798 327.81 549.849 323.907 551.807C322.829 552.305 322.969 554.059 324.309 553.893Z" fill="#2F3C4D"/>
<path d="M329.883 562.566C332.596 559.703 334.524 555.843 336.552 552.504C338.678 548.923 341.258 545.128 342.587 541.14C343.055 539.632 341.288 538.125 340.105 539.514C337.42 542.728 335.569 546.817 333.627 550.502C331.74 554.124 329.452 557.895 328.357 561.865C328.13 562.706 329.341 563.139 329.883 562.566Z" fill="#2F3C4D"/>
<path d="M324.182 545.666C327.772 549.38 333.173 552.185 337.767 554.466C342.604 556.845 347.867 558.661 353.212 559.294C354.103 559.399 354.702 558.057 353.729 557.664C348.808 555.703 343.842 553.923 339.072 551.656C334.24 549.335 330.156 546.072 325.592 543.436C324.231 542.603 323.216 544.626 324.182 545.666Z" fill="#2F3C4D"/>
<path d="M102.035 251.299C103.346 256.666 104.549 262.159 105.63 267.602C106.606 272.466 106.953 277.557 108.505 282.257C108.823 283.29 110.198 282.828 110.24 281.883C110.477 276.746 108.996 271.452 107.894 266.481C106.705 261.163 105.17 255.932 103.406 250.778C103.156 249.857 101.844 250.373 102.035 251.299Z" fill="#2F3C4D"/>
<path d="M89.9773 260.909C95.1233 262.734 100.3 264.204 105.343 266.214C110.084 268.13 114.73 271.054 119.811 272.06C121.008 272.318 121.593 270.8 120.821 269.979C117.05 266.221 111.378 264.438 106.475 262.711C101.388 260.881 96.1389 259.241 90.7892 258.55C89.4213 258.365 88.5814 260.373 89.9773 260.909Z" fill="#2F3C4D"/>
<path d="M94.1685 280.988C99.7323 276.25 103.576 269.119 107.44 262.987C109.526 259.644 111.667 256.238 113.505 252.738C115.133 249.549 117.255 245.909 117.555 242.296C117.647 241.23 116.37 239.979 115.383 240.881C112.804 243.205 111.19 246.569 109.426 249.533C107.447 252.75 105.779 256.178 103.922 259.444C102.069 262.768 100.149 265.981 98.2328 269.251C96.2047 272.59 93.9429 275.947 92.649 279.639C92.2513 280.553 93.2892 281.765 94.1685 280.988Z" fill="#2F3C4D"/>
<path d="M387.383 285.543C387.39 293.013 387.457 300.479 387.698 307.931C387.812 311.57 387.867 315.213 388.039 318.846C388.165 321.895 388.019 325.966 389.987 328.515C390.578 329.292 391.568 329.154 392.091 328.348C393.815 325.622 393.255 321.548 393.066 318.445C392.894 314.812 392.605 311.187 392.375 307.558C391.899 300.125 391.307 292.701 390.598 285.286C390.43 283.182 387.395 283.483 387.383 285.543Z" fill="#2F3C4D"/>
<path d="M371.227 300.597C373.28 302.727 376.427 303.829 379.057 305.09C381.993 306.503 385.042 307.848 387.974 309.203C393.468 311.706 399.528 315.4 405.539 316.273C407.029 316.507 408.112 314.597 406.85 313.521C402.057 309.491 395.062 307.343 389.392 304.854C386.406 303.563 383.411 302.154 380.372 300.926C377.693 299.787 374.868 298.306 371.918 298.188C370.685 298.228 370.524 299.888 371.227 300.597Z" fill="#2F3C4D"/>
<path d="M377.886 325.07C380.218 322.589 382.021 319.386 383.975 316.583C385.874 313.843 387.836 311.157 389.862 308.525C393.805 303.386 398.951 298.564 402.146 292.896C402.813 291.667 401.185 290.443 400.126 291.175C394.717 294.901 390.516 301.237 386.703 306.541C384.741 309.227 382.842 311.967 381.005 314.761C379.169 317.555 377.001 320.61 375.904 323.816C375.529 325.022 376.908 326.089 377.886 325.07Z" fill="#2F3C4D"/>
<path d="M369.061 318.419C382.323 312.831 395.729 307.585 408.923 301.885C410.23 301.31 409.501 299.545 408.175 299.886C394.287 303.523 380.591 309.557 368.093 316.613C367.142 317.219 367.978 318.858 369.061 318.419Z" fill="#2F3C4D"/>
<path d="M203.115 594.386C222.896 613.751 249.891 624.717 277.037 628.728C307.751 633.22 338.788 629.215 368.562 621.192C386.876 616.261 405.06 609.692 422.033 601.22C423.619 600.446 422.838 598.038 421.059 598.592C405.496 603.363 390.22 608.758 374.59 613.417C358.96 618.076 343.012 621.701 326.808 623.582C299.066 626.854 270.433 624.843 243.973 615.423C229.561 610.278 216.074 602.706 204.191 593.123C203.361 592.307 202.285 593.57 203.115 594.386Z" fill="#2F3C4D"/>
<path d="M443.713 340.526C450.499 337.102 455.383 330.477 459.039 323.95C458.013 323.62 457.045 323.285 456.019 322.955C454.474 328.667 453.594 343.444 463.773 340.515C463.081 339.217 462.385 337.86 461.693 336.563C455.626 340.164 450.792 346.668 450.128 353.839C451.667 353.952 453.259 354.002 454.798 354.114C454.899 350.223 454.861 346.05 452.705 342.633C451.025 340.002 448.252 337.693 445.007 338.305C443.618 338.593 442.948 340.529 444.475 341.23C446.673 342.232 448.529 343.378 449.48 345.714C450.504 348.221 450.328 351.176 450.192 353.893C450.015 356.849 454.156 357.871 454.849 354.757C456.19 348.708 459.028 343.717 464.343 340.293C466.525 338.883 464.672 335.56 462.263 336.341C457.846 337.752 459.053 325.596 459.187 323.585C459.316 321.515 456.688 321.019 456.019 322.955C453.763 330.077 448.802 335.002 443.356 339.731C442.97 340.056 443.206 340.802 443.713 340.526Z" fill="#2F3C4D"/>
<path d="M89.2862 202.075C97.5641 199.65 102.951 189.749 104.927 182.061C105.519 179.896 102.054 179.231 101.462 181.396C99.5401 189.021 102.424 197.145 108.626 201.886C108.663 200.883 108.706 199.938 108.743 198.935C100.732 203.221 98.4497 212.228 97.4119 220.605C98.4735 220.638 99.5397 220.73 100.601 220.763C100.359 216.252 100.477 211.831 99.3627 207.449C98.4353 203.934 96.5424 199.379 93.1196 197.769C91.9576 197.215 90.8326 198.599 91.5057 199.663C92.436 201 93.64 202.081 94.5211 203.54C95.5426 205.283 96.2272 207.228 96.6196 209.197C97.4441 212.896 97.6489 216.939 97.4166 220.664C97.2828 222.675 100.1 223.332 100.585 221.294C102.328 214.389 104.112 205.776 110.875 202.059C111.89 201.508 111.93 199.798 110.993 199.108C105.674 195.121 103.33 188.601 104.814 182.129C103.68 181.925 102.542 181.663 101.349 181.464C100.439 185.537 98.8081 189.432 96.3171 192.867C94.0366 195.99 91.0477 198.346 88.5147 201.254C88.2504 201.628 88.7694 202.234 89.2862 202.075Z" fill="#2F3C4D"/>
<path d="M457.281 46.711C464.367 44.0869 467.593 38.0643 468.908 30.9587C469.321 28.7492 465.921 27.432 465.041 29.6788C463.769 32.8982 464.053 36.4641 465.479 39.586C466.126 41.0639 467.056 42.4016 468.26 43.4822C469.469 44.6212 471.475 44.6965 472.504 45.791C472.551 44.9048 472.598 44.0186 472.64 43.074C465.58 46.7551 461.053 55.6463 462.146 63.4423C463.13 63.2461 464.168 62.9868 465.153 62.7906C464.195 59.6314 462.954 56.6125 461.489 53.7291C460.236 51.2994 458.946 48.402 456.8 46.573C455.664 45.6047 453.994 46.7968 454.457 48.1718C455.373 50.8049 457.259 53.0664 458.516 55.5545C459.909 58.2672 461.073 61.057 462.12 63.8561C462.646 65.2849 464.872 65.1662 465.16 63.6137C465.708 60.1579 466.611 56.7326 468.185 53.6067C469.814 50.4177 472.267 47.9865 474.779 45.5507C475.927 44.459 474.667 42.677 473.318 42.7258C472.144 42.7606 469.699 38.661 469.211 37.6999C468.147 35.4316 468.209 33.25 468.724 30.8558C467.365 30.7877 466.007 30.7195 464.648 30.6514C465.538 36.6398 461.489 42.6692 456.807 45.9253C456.543 46.2993 456.823 46.8653 457.281 46.711Z" fill="#2F3C4D"/>
<path d="M94.3851 564.703C94.8039 563.317 95.2813 561.926 95.7048 560.598C98.714 551.121 101.723 541.645 106.191 532.759" stroke="#3C3C3B" stroke-width="2" stroke-miterlimit="10" stroke-dasharray="12 12"/>
<path d="M109.871 575.939C114.027 563.136 119.51 550.756 126.229 539.101" stroke="#3C3C3B" stroke-width="2" stroke-miterlimit="10" stroke-dasharray="12 12"/>
<path d="M130.092 582.386C133.52 571.523 137.853 560.942 143.105 550.816" stroke="#3C3C3B" stroke-width="2" stroke-miterlimit="10" stroke-dasharray="12 12"/>
<path d="M148.382 591.163C150.699 589.978 151.712 587.191 152.573 584.71C156.062 574.607 160.514 564.781 165.836 555.532" stroke="#3C3C3B" stroke-width="2" stroke-miterlimit="10" stroke-dasharray="12 12"/>
<path d="M167.771 596.735C172.223 586.908 176.675 577.082 181.131 567.314" stroke="#3C3C3B" stroke-width="2" stroke-miterlimit="10" stroke-dasharray="12 12"/>
<path d="M85.5371 548.172C116.003 563.567 147.122 577.557 178.884 590.025" stroke="#3C3C3B" stroke-width="2" stroke-miterlimit="10" stroke-dasharray="12 12"/>
<path d="M87.8477 532.162C122.574 546.394 157.296 560.567 192.023 574.798" stroke="#3C3C3B" stroke-width="2" stroke-miterlimit="10" stroke-dasharray="12 12"/>
<path fill-rule="evenodd" clip-rule="evenodd" d="M499.4 484.038C506.122 483.502 511.125 477.631 510.589 470.909C510.053 464.186 504.182 459.183 497.46 459.72C490.737 460.256 485.734 466.126 486.271 472.849C486.807 479.571 492.677 484.574 499.4 484.038ZM499.087 480.121C494.528 480.485 490.551 477.096 490.187 472.536L506.672 471.221C506.977 475.786 503.588 479.762 499.087 480.121Z" fill="#2F3C4D"/>
<path fill-rule="evenodd" clip-rule="evenodd" d="M186.152 411.957C200.946 412.307 213.246 400.56 213.595 385.766C213.945 370.972 202.198 358.672 187.404 358.323C172.61 357.973 160.31 369.72 159.961 384.514C159.611 399.308 171.3 411.612 186.152 411.957ZM186.339 403.235C176.317 402.976 168.418 394.664 168.624 384.705L204.873 385.579C204.668 395.538 196.36 403.495 186.339 403.235Z" fill="#2F3C4D"/>
</g>
<defs>
<clipPath id="clip0">
<rect width="633.341" height="633.341" fill="white" transform="translate(0 50.3594) rotate(-4.56059)"/>
</clipPath>
</defs>
</svg>
