<svg width="295" height="296" viewBox="0 0 295 296" fill="none" xmlns="http://www.w3.org/2000/svg">
<path fill-rule="evenodd" clip-rule="evenodd" d="M84.0091 72.4498C81.7123 72.864 80.0387 74.3615 79.9632 76.2107V76.7898C80.0507 85.728 81.9054 94.5605 85.4203 102.778C88.9353 110.996 94.041 118.437 100.443 124.672C111.323 135.347 125.396 142.167 140.513 144.092C134.055 177.829 134.616 212.536 142.16 246.047C142.16 246.582 144.743 247.027 147.681 247.027C150.619 247.027 152.979 246.582 153.202 246.047C160.623 212.654 161.154 178.098 154.76 144.493C172.115 143.279 188.427 135.754 200.617 123.336C207.314 116.581 212.614 108.572 216.216 99.7674C219.818 90.9626 221.651 81.5342 221.609 72.0207C221.568 62.5071 219.653 53.095 215.975 44.3219C212.297 35.5488 206.927 27.5866 200.172 20.8903C193.529 14.2397 185.636 8.96999 176.948 5.38473C168.26 1.79946 158.949 -0.0304662 149.551 0.000383655C130.989 0.00979222 113.187 7.37719 100.043 20.4894C93.7416 26.7789 88.741 34.2487 85.3263 42.472C81.9116 50.6954 80.1497 59.5113 80.1413 68.416C80.1413 70.25 81.776 71.738 84.0152 72.1401C84.0129 72.2432 84.0109 72.3465 84.0091 72.4498ZM172.339 52.3199C167.975 47.7314 162.871 43.9086 157.24 41.0113C156.908 39.6578 156.803 38.2587 156.928 36.8708C156.736 35.3654 156.92 33.8361 157.462 32.4186C162.311 30.9028 167.481 30.7375 172.416 31.9406C177.352 33.1438 181.865 35.6697 185.471 39.2465C189.077 42.8233 191.639 47.3155 192.88 52.2394C194.121 57.1633 193.996 62.3324 192.516 67.1902C191.08 67.651 189.565 67.8176 188.062 67.6799C186.566 67.7924 185.061 67.657 183.608 67.2792C180.689 61.7144 176.883 56.6619 172.339 52.3199Z" fill="#243143"/>
<path d="M41.0071 181.506V181.996C27.3537 214.838 13.923 247.769 0.714824 280.789C0.252228 281.921 0.0104259 283.13 0.00247481 284.352C-0.0270483 285.69 0.207825 287.02 0.693611 288.266C1.1794 289.512 1.90652 290.651 2.83321 291.615C3.75991 292.579 4.86791 293.351 6.09358 293.886C7.31925 294.42 8.63844 294.707 9.97537 294.731H10.3761C101.794 296.423 193.212 296.423 284.631 294.731H285.031C286.235 294.687 287.423 294.447 288.549 294.018C289.81 293.529 290.96 292.791 291.93 291.849C292.901 290.907 293.673 289.779 294.2 288.533C294.728 287.287 295 285.948 295 284.595C295 283.241 294.729 281.902 294.203 280.655C281.113 247.606 267.757 214.675 254.133 181.863V181.328C253.607 179.975 252.673 178.819 251.46 178.02C250.248 177.222 248.817 176.822 247.366 176.874L190.645 179.235C189.899 179.167 189.148 179.255 188.438 179.494C187.729 179.732 187.077 180.117 186.524 180.622C185.971 181.127 185.529 181.741 185.227 182.427C184.925 183.112 184.769 183.853 184.769 184.602C184.769 185.351 184.925 186.092 185.227 186.777C185.529 187.462 185.971 188.077 186.524 188.582C187.077 189.087 187.729 189.471 188.438 189.71C189.148 189.949 189.899 190.037 190.645 189.969H191.535L242.023 191.84C251.284 219.277 260.737 246.641 270.384 273.93C188.612 272.534 106.84 272.534 25.0683 273.93C34.6553 246.67 44.1088 219.366 53.4287 192.018L104.673 190.103C105.437 190.172 106.207 190.081 106.933 189.835C107.66 189.59 108.327 189.196 108.893 188.679C109.459 188.161 109.911 187.532 110.22 186.83C110.53 186.128 110.689 185.369 110.689 184.602C110.689 183.835 110.53 183.076 110.22 182.374C109.911 181.672 109.459 181.043 108.893 180.525C108.327 180.008 107.66 179.614 106.933 179.368C106.207 179.123 105.437 179.032 104.673 179.101H103.827L47.9525 177.052C46.4809 177.008 45.0302 177.409 43.7908 178.204C42.5513 178.999 41.581 180.15 41.0071 181.506Z" fill="#243143"/>
</svg>
