<svg width="208" height="208" viewBox="0 0 208 208" fill="none" xmlns="http://www.w3.org/2000/svg">
<g filter="url(#filter0_b)">
<path fill-rule="evenodd" clip-rule="evenodd" d="M84 16C84 11.5817 87.5817 8 92 8C96.4183 8 100 11.5817 100 16V48C100 52.4183 96.4183 56 92 56C87.5817 56 84 52.4183 84 48V16ZM140.083 32.6031C143.208 29.479 148.273 29.4789 151.397 32.6031C154.521 35.7273 154.521 40.7927 151.397 43.9169L128.77 66.5443C125.645 69.6685 120.58 69.6685 117.456 66.5443C114.332 63.4201 114.332 58.3548 117.456 55.2306L140.083 32.6031ZM55.2304 117.456C58.3545 114.332 63.4199 114.332 66.5441 117.456C69.6683 120.58 69.6683 125.645 66.5441 128.77L43.9166 151.397C40.7924 154.521 35.7271 154.521 32.6029 151.397C29.4787 148.273 29.4787 143.208 32.6029 140.083L55.2304 117.456ZM48 84C52.4183 84 56 87.5817 56 92C56 96.4183 52.4183 100 48 100H16C11.5817 100 8 96.4183 8 92C8 87.5817 11.5817 84 16 84H48ZM66.5443 55.2304C69.6685 58.3545 69.6685 63.4199 66.5443 66.5441C63.4201 69.6683 58.3548 69.6683 55.2306 66.5441L32.6032 43.9166C29.479 40.7924 29.479 35.7271 32.6032 32.6029C35.7274 29.4787 40.7927 29.4787 43.9169 32.6029L66.5443 55.2304ZM103.839 89.1308C99.7879 88.5521 95.7011 89.9144 92.8077 92.8077C89.9144 95.7011 88.5521 99.7879 89.1308 103.839L98.3232 168.185C99.0195 173.06 102.41 177.123 107.082 178.68C111.753 180.237 116.903 179.021 120.385 175.539L138.77 157.154L166.347 184.732C171.424 189.808 179.655 189.808 184.732 184.732C189.808 179.655 189.808 171.424 184.732 166.347L157.154 138.77L175.539 120.385C179.021 116.903 180.237 111.753 178.68 107.082C177.123 102.41 173.06 99.0195 168.185 98.3232L103.839 89.1308Z" fill="white" fill-opacity="0.6"/>
</g>
<defs>
<filter id="filter0_b" x="-22" y="-22" width="240.539" height="240.539" filterUnits="userSpaceOnUse" color-interpolation-filters="sRGB">
<feFlood flood-opacity="0" result="BackgroundImageFix"/>
<feGaussianBlur in="BackgroundImage" stdDeviation="15"/>
<feComposite in2="SourceAlpha" operator="in" result="effect1_backgroundBlur"/>
<feBlend mode="normal" in="SourceGraphic" in2="effect1_backgroundBlur" result="shape"/>
</filter>
</defs>
</svg>
