<svg width="278" height="278" viewBox="0 0 278 278" fill="none" xmlns="http://www.w3.org/2000/svg">
<path fill-rule="evenodd" clip-rule="evenodd" d="M116.256 44.7658C120.684 30.0047 136.24 21.6277 151.001 26.0554L191.092 38.0809C205.853 42.5086 214.23 58.0642 209.802 72.8254L203.79 92.871L237.199 102.892L197.114 236.53C192.686 251.291 177.13 259.668 162.369 255.24L55.4594 223.172C40.6983 218.744 32.3213 203.189 36.749 188.427L76.8341 54.7901L110.243 64.8114L116.256 44.7658ZM130.289 70.8242L183.744 86.8582L189.757 66.8126C190.864 63.1224 188.769 59.2334 185.079 58.1265L144.988 46.101C141.298 44.9941 137.409 47.0883 136.302 50.7786L130.289 70.8242Z" fill="#FF7171"/>
<path d="M111.585 181.743L138.312 189.76L122.278 243.215L95.5507 235.198L111.585 181.743Z" fill="#FAE2E2"/>
<path fill-rule="evenodd" clip-rule="evenodd" d="M149 105.569C153.206 106.83 156.573 109.999 158.087 114.121L182.144 179.602C183.967 184.562 182.83 190.126 179.209 193.975C175.587 197.823 170.102 199.295 165.04 197.777L84.8574 173.726C79.7956 172.207 76.0261 167.959 75.1204 162.753C74.2147 157.547 76.3283 152.275 80.58 149.137L136.705 107.707C140.238 105.099 144.793 104.307 149 105.569Z" fill="#FAE2E2"/>
</svg>
