<svg width="41" height="40" viewBox="0 0 41 40" fill="none" xmlns="http://www.w3.org/2000/svg">
<path fill-rule="evenodd" clip-rule="evenodd" d="M34.3333 11.6667H32.6394C33.0773 10.895 33.3659 10.0242 33.4639 9.09123C33.8082 5.81555 31.4319 2.88098 28.1562 2.53669C24.8083 2.18481 21.7329 4.39876 20.9986 7.67625C20.2642 4.39876 17.1888 2.18481 13.8409 2.53669C10.5652 2.88098 8.18886 5.81555 8.53315 9.09123C8.63121 10.0242 8.91976 10.895 9.3577 11.6667H7.66667C6.74619 11.6667 6 12.4129 6 13.3333V21.6667C6 22.5871 6.74619 23.3333 7.66667 23.3333V36.6667C7.66667 37.5871 8.41286 38.3333 9.33333 38.3333H19.3333L19.3333 26.6667H7.66667L7.66667 23.3333H19.3333H22.6667H34.3333C35.2538 23.3333 36 22.5871 36 21.6667V13.3333C36 12.4129 35.2538 11.6667 34.3333 11.6667ZM34.3333 26.6667H22.6667V38.3333H32.6667C33.5871 38.3333 34.3333 37.5871 34.3333 36.6667V26.6667ZM14.1893 5.85176C15.8648 5.67567 17.4028 6.79276 17.7536 8.44049L18.4458 11.692L15.1214 11.691C13.4368 11.6904 12.0243 10.4182 11.8482 8.74281C11.6964 7.29799 12.7445 6.00362 14.1893 5.85176ZM26.8757 11.691C28.5603 11.6904 29.9728 10.4182 30.1489 8.74281C30.3007 7.29799 29.2526 6.00362 27.8078 5.85176C26.1323 5.67567 24.5943 6.79276 24.2435 8.44049L23.5513 11.692L26.8757 11.691Z" fill="white"/>
</svg>
