<svg width="196" height="196" viewBox="0 0 196 196" fill="none" xmlns="http://www.w3.org/2000/svg">
<g filter="url(#filter0_b)">
<path d="M178.009 -170.751C187.019 -183.541 205.981 -183.541 214.991 -170.751L223.776 -158.28C230.07 -149.346 241.851 -146.189 251.768 -150.78L265.611 -157.187C279.809 -163.759 296.231 -154.277 297.639 -138.696L299.012 -123.503C299.995 -112.62 308.62 -103.995 319.504 -103.012L334.696 -101.639C350.277 -100.231 359.759 -83.8094 353.187 -69.6114L346.78 -55.7682C342.189 -45.8508 345.346 -34.0697 354.28 -27.7761L366.751 -18.9912C379.541 -9.98128 379.541 8.98129 366.751 17.9913L354.28 26.7761C345.346 33.0697 342.189 44.8508 346.78 54.7682L353.187 68.6115C359.759 82.8094 350.277 99.2314 334.696 100.639L319.504 102.012C308.62 102.995 299.995 111.62 299.012 122.503L297.639 137.696C296.231 153.277 279.809 162.759 265.611 156.187L251.768 149.78C241.851 145.189 230.07 148.346 223.776 157.28L214.991 169.751C205.981 182.541 187.019 182.541 178.009 169.751L169.224 157.28C162.93 148.346 151.149 145.189 141.232 149.78L127.389 156.187C113.191 162.759 96.7686 153.277 95.3608 137.696L93.9882 122.503C93.0048 111.62 84.3805 102.995 73.4965 102.012L58.3042 100.639C42.7227 99.2314 33.2414 82.8094 39.813 68.6115L46.2204 54.7682C50.8107 44.8508 47.654 33.0697 38.7199 26.7761L26.2493 17.9913C13.4592 8.98129 13.4592 -9.98128 26.2493 -18.9912L38.7199 -27.7761C47.654 -34.0697 50.8107 -45.8508 46.2204 -55.7682L39.813 -69.6114C33.2414 -83.8094 42.7227 -100.231 58.3042 -101.639L73.4965 -103.012C84.3805 -103.995 93.0048 -112.62 93.9882 -123.503L95.3608 -138.696C96.7686 -154.277 113.191 -163.759 127.389 -157.187L141.232 -150.78C151.149 -146.189 162.93 -149.346 169.224 -158.28L178.009 -170.751Z" fill="#FFD874"/>
</g>
<defs>
<filter id="filter0_b" x="1.65674" y="-195.343" width="389.687" height="389.687" filterUnits="userSpaceOnUse" color-interpolation-filters="sRGB">
<feFlood flood-opacity="0" result="BackgroundImageFix"/>
<feGaussianBlur in="BackgroundImage" stdDeviation="7.5"/>
<feComposite in2="SourceAlpha" operator="in" result="effect1_backgroundBlur"/>
<feBlend mode="normal" in="SourceGraphic" in2="effect1_backgroundBlur" result="shape"/>
</filter>
</defs>
</svg>
