<svg width="132" height="132" viewBox="0 0 132 132" fill="none" xmlns="http://www.w3.org/2000/svg">
<circle cx="57.75" cy="57.75" r="53.625" fill="#A4E9FF"/>
<path d="M93.7533 101.295L105.421 89.6276L122.921 107.129C126.143 110.35 126.143 115.574 122.921 118.796C119.7 122.018 114.476 122.018 111.254 118.796L93.7533 101.295Z" fill="#E3F5FF"/>
<path fill-rule="evenodd" clip-rule="evenodd" d="M64.5852 60.4594C66.4213 58.6232 69.0149 57.7587 71.5855 58.126L112.421 63.9596C115.514 64.4015 118.093 66.5533 119.081 69.5178C120.069 72.4823 119.297 75.7507 117.088 77.9603L82.0861 112.962C79.8764 115.172 76.608 115.943 73.6435 114.955C70.679 113.967 68.5273 111.389 68.0853 108.295L62.2517 67.4598C61.8845 64.8891 62.749 62.2956 64.5852 60.4594Z" fill="#E3F5FF"/>
</svg>
