<svg width="32" height="32" viewBox="0 0 32 32" fill="none" xmlns="http://www.w3.org/2000/svg">
<path fill-rule="evenodd" clip-rule="evenodd" d="M1.02588 5.13891C6.10352e-05 7.1522 6.10352e-05 9.78774 6.10352e-05 15.0588V16.9412C6.10352e-05 22.2123 6.10352e-05 24.8478 1.02588 26.8611C1.92822 28.632 3.36804 30.0718 5.13897 30.9742C7.15226 32 9.7878 32 15.0589 32H16.9412C22.2123 32 24.8479 32 26.8611 30.9742C28.6321 30.0718 30.0719 28.632 30.9742 26.8611C32.0001 24.8478 32.0001 22.2123 32.0001 16.9412V15.0588C32.0001 9.78774 32.0001 7.1522 30.9742 5.13891C30.0719 3.36798 28.6321 1.92816 26.8611 1.02582C24.8479 0 22.2123 0 16.9412 0H15.0589C9.7878 0 7.15226 0 5.13897 1.02582C3.36804 1.92816 1.92822 3.36798 1.02588 5.13891ZM16.5463 4.5C19.4766 4.50105 22.2267 5.63638 24.2946 7.69692C26.3629 9.75746 27.5011 12.4965 27.5001 15.4096C27.498 21.4203 22.5833 26.3108 16.5463 26.3108H16.5416C14.7085 26.3103 12.9069 25.8529 11.3071 24.9841L5.50006 26.5L7.05423 20.8505C6.09568 19.1977 5.59093 17.3222 5.59198 15.4007C5.59408 9.38999 10.5082 4.5 16.5463 4.5ZM16.5426 24.4698H16.5463C21.5644 24.4698 25.6486 20.4046 25.6507 15.4085C25.6518 12.9878 24.7058 10.7109 22.9867 8.99848C21.2676 7.28554 18.9818 6.34205 16.55 6.341C11.5277 6.341 7.44343 10.4056 7.44133 15.4012C7.44028 17.1131 7.92192 18.7806 8.8332 20.2232L9.0496 20.5661L8.12991 23.9099L11.576 23.0104L11.9085 23.2069C13.3066 24.0323 14.9091 24.4693 16.5426 24.4698ZM19.6699 16.7974C19.9209 16.8883 21.2666 17.5469 21.5402 17.6834C21.5927 17.7095 21.6417 17.7332 21.6873 17.7551C21.8795 17.8477 22.0092 17.9102 22.0644 18.0028C22.1327 18.1162 22.1327 18.6619 21.9047 19.298C21.6768 19.9342 20.5832 20.5149 20.0575 20.5933C19.5858 20.6634 18.9892 20.6926 18.3337 20.4851C17.9361 20.3597 17.4261 20.1919 16.7732 19.9112C14.2089 18.8087 12.4753 16.3359 12.1461 15.8663C12.1228 15.8331 12.1066 15.8099 12.0975 15.7979L12.0957 15.7956C11.9521 15.605 10.9798 14.315 10.9798 12.98C10.9798 11.7255 11.5993 11.0677 11.8844 10.7649C11.9039 10.7442 11.9218 10.7252 11.9379 10.7078C12.1889 10.4349 12.4857 10.3669 12.6679 10.3669C12.8507 10.3669 13.033 10.3685 13.1927 10.3764C13.2124 10.3774 13.2331 10.3773 13.2544 10.3772C13.4135 10.3766 13.6123 10.3758 13.8082 10.8442C13.8874 11.033 14.0048 11.3174 14.1273 11.614C14.3584 12.1737 14.6077 12.7774 14.6523 12.8666C14.7206 13.003 14.7663 13.1619 14.6749 13.3438C14.6605 13.3723 14.6473 13.3991 14.6347 13.4247C14.567 13.5621 14.5168 13.6641 14.4012 13.798C14.3547 13.852 14.3065 13.9103 14.2584 13.9685C14.1649 14.0816 14.0716 14.1945 13.9905 14.2753C13.8539 14.4107 13.7111 14.5581 13.8707 14.8309C14.0304 15.1038 14.5798 15.9955 15.3934 16.7179C16.2679 17.4938 17.0277 17.8219 17.4132 17.9883C17.4887 18.0209 17.5498 18.0473 17.5947 18.0697C17.8683 18.2061 18.028 18.1836 18.1876 18.0017C18.3473 17.8203 18.872 17.2067 19.0543 16.9338C19.2365 16.6609 19.4188 16.7064 19.6699 16.7974Z" fill="#45CA52"/>
</svg>
