<svg width="32" height="32" viewBox="0 0 32 32" fill="none" xmlns="http://www.w3.org/2000/svg">
<path fill-rule="evenodd" clip-rule="evenodd" d="M1.02582 5.13891C0 7.1522 0 9.78774 0 15.0588V16.9412C0 22.2123 0 24.8478 1.02582 26.8611C1.92816 28.632 3.36798 30.0718 5.13891 30.9742C7.1522 32 9.78774 32 15.0588 32H16.9412C22.2123 32 24.8478 32 26.8611 30.9742C28.632 30.0718 30.0718 28.632 30.9742 26.8611C32 24.8478 32 22.2123 32 16.9412V15.0588C32 9.78774 32 7.1522 30.9742 5.13891C30.0718 3.36798 28.632 1.92816 26.8611 1.02582C24.8478 0 22.2123 0 16.9412 0H15.0588C9.78774 0 7.1522 0 5.13891 1.02582C3.36798 1.92816 1.92816 3.36798 1.02582 5.13891ZM16.5462 4.5C19.4765 4.50105 22.2266 5.63638 24.2945 7.69692C26.3629 9.75746 27.5011 12.4965 27.5 15.4096C27.4979 21.4203 22.5833 26.3108 16.5462 26.3108H16.5415C14.7084 26.3103 12.9069 25.8529 11.307 24.9841L5.5 26.5L7.05417 20.8505C6.09562 19.1977 5.59087 17.3222 5.59192 15.4007C5.59402 9.38999 10.5081 4.5 16.5462 4.5ZM16.5425 24.4698H16.5462C21.5643 24.4698 25.6485 20.4046 25.6506 15.4085C25.6517 12.9878 24.7057 10.7109 22.9867 8.99848C21.2676 7.28554 18.9817 6.34205 16.5499 6.341C11.5276 6.341 7.44337 10.4056 7.44127 15.4012C7.44022 17.1131 7.92186 18.7806 8.83314 20.2232L9.04954 20.5661L8.12985 23.9099L11.5759 23.0104L11.9084 23.2069C13.3066 24.0323 14.9091 24.4693 16.5425 24.4698ZM19.6698 16.7974C19.9209 16.8883 21.2665 17.5469 21.5402 17.6834C21.5926 17.7095 21.6417 17.7332 21.6872 17.7551C21.8795 17.8477 22.0091 17.9102 22.0643 18.0028C22.1326 18.1162 22.1326 18.6619 21.9047 19.298C21.6767 19.9342 20.5832 20.5149 20.0574 20.5933C19.5858 20.6634 18.9891 20.6926 18.3336 20.4851C17.936 20.3597 17.426 20.1919 16.7731 19.9112C14.2088 18.8087 12.4752 16.3359 12.146 15.8663C12.1228 15.8331 12.1065 15.8099 12.0975 15.7979L12.0957 15.7956C11.952 15.605 10.9798 14.315 10.9798 12.98C10.9798 11.7255 11.5992 11.0677 11.8843 10.7649C11.9038 10.7442 11.9218 10.7252 11.9378 10.7078C12.1889 10.4349 12.4856 10.3669 12.6679 10.3669C12.8507 10.3669 13.0329 10.3685 13.1926 10.3764C13.2124 10.3774 13.233 10.3773 13.2543 10.3772C13.4134 10.3766 13.6122 10.3758 13.8082 10.8442C13.8873 11.033 14.0047 11.3174 14.1272 11.614C14.3583 12.1738 14.6076 12.7774 14.6522 12.8666C14.7205 13.003 14.7662 13.1619 14.6748 13.3438C14.6604 13.3723 14.6472 13.3991 14.6346 13.4247C14.567 13.5621 14.5167 13.6641 14.4012 13.798C14.3546 13.852 14.3064 13.9103 14.2583 13.9685C14.1649 14.0816 14.0716 14.1945 13.9904 14.2753C13.8539 14.4107 13.711 14.5581 13.8707 14.8309C14.0303 15.1038 14.5797 15.9955 15.3933 16.7179C16.2678 17.4938 17.0277 17.8219 17.4131 17.9883C17.4886 18.0209 17.5498 18.0473 17.5946 18.0697C17.8682 18.2061 18.0279 18.1836 18.1876 18.0017C18.3473 17.8203 18.872 17.2067 19.0542 16.9338C19.2365 16.6609 19.4187 16.7064 19.6698 16.7974Z" fill="#243143"/>
</svg>
