<svg width="48" height="48" viewBox="0 0 48 48" fill="none" xmlns="http://www.w3.org/2000/svg">
<path d="M48 9V39H42V45H6V39H0V9H6V30.5332L12.0806 24.4581C13.252 23.2878 15.15 23.2878 16.3213 24.4581L20.8024 28.9351L27.8661 21.8777C29.0375 20.7074 30.9355 20.7074 32.1068 21.8777L42 31.762V9H48Z" fill="#F34B15"/>
<path d="M42 3V9H6V3H42Z" fill="#F34B15"/>
<path d="M18 21C16.3431 21 15 19.6569 15 18C15 16.3431 16.3431 15 18 15C19.6569 15 21 16.3431 21 18C21 19.6569 19.6569 21 18 21Z" fill="#F34B15"/>
<path d="M0 9C0 5.68629 2.68629 3 6 3V9H0Z" fill="#F34B15"/>
<path d="M42 3C45.3137 3 48 5.68629 48 9H42V3Z" fill="#F34B15"/>
<path d="M42 39H48C48 42.3137 45.3137 45 42 45V39Z" fill="#F34B15"/>
<path d="M0 39H6V45C2.68629 45 0 42.3137 0 39Z" fill="#F34B15"/>
</svg>
